<svg width="64" height="64" version="1.1" xmlns="http://www.w3.org/2000/svg" xmlns:xlink="http://www.w3.org/1999/xlink" viewBox="0 0 64 64" aria-labelledby="title">
		<title>Data Set</title>
		<path d="M25,17v-6H2v42h60V17H25z M59,50H5V23h54V50z M16,45h-3V28h3V45z M37,45h-3V28h3V45z M25,45c3.3,0,6-2.1,6-8.6
		c0-6.4-2.8-8.5-6-8.5c-3.2,0-6,2.1-6,8.5C19,43,21.7,45,25,45z M25,30.7c2.7,0,2.7,4,2.7,5.7c0,1.8,0,5.9-2.7,5.9
		c-2.7,0-2.7-4-2.7-5.9C22.3,34.7,22.3,30.7,25,30.7z M46,45c3.3,0,6-2.1,6-8.6c0-6.4-2.8-8.4-6-8.4c-3.2,0-6,2.1-6,8.4
		C40,42.9,42.8,45,46,45z M46,30.7c2.7,0,2.7,4,2.7,5.7c0,1.8,0,5.8-2.7,5.8c-2.7,0-2.7-4-2.7-5.8C43.4,34.7,43.3,30.7,46,30.7z"></path>
</svg>