<svg width="128" height="128" version="1.1" xmlns="http://www.w3.org/2000/svg" xmlns:xlink="http://www.w3.org/1999/xlink" viewBox="0 0 128 128" aria-labelledby="title">
			<title>Data Set</title>
			<path d="M51,34V22H4v86h120V34H51z M120,104H8V45h112V104z M30,92h-7V57h7V92z M74,92h-7V57h7V92z M48.2,91.9
			c6.7,0,12.3-4.2,12.3-17.5c0-13.1-5.6-17.3-12.3-17.3c-6.6,0-12.2,4.2-12.2,17.3C36,87.7,41.6,91.9,48.2,91.9z M48.2,62.7
			c5.5,0,5.5,8.2,5.5,11.7c0,3.8,0,12-5.5,12c-5.4,0-5.4-8.2-5.4-12C42.8,70.9,42.7,62.7,48.2,62.7z M92.7,91.9
			c6.7,0,12.3-4.2,12.3-17.5c0-13.1-5.6-17.3-12.3-17.3c-6.6,0-12.2,4.2-12.2,17.3C80.5,87.7,86.1,91.9,92.7,91.9z M92.7,62.7
			c5.5,0,5.5,8.2,5.5,11.7c0,3.8,0,12-5.5,12c-5.4,0-5.4-8.2-5.4-12C87.3,70.9,87.2,62.7,92.7,62.7z"></path>
</svg>