<svg width="24" height="24" version="1.1" xmlns="http://www.w3.org/2000/svg" xmlns:xlink="http://www.w3.org/1999/xlink" viewBox="0 0 24 24" aria-labelledby="title">
		<title>Data Quality</title>
		<path d="M15.1,6.2l1.1,1.1L11.4,12L8.7,9.4l1.1-1.1l1.6,1.6L15.1,6.2z M15.7,16.2l0.7,6.8L12,20.1L7.6,23l0.7-6.8
		c-2.6-1.4-4.4-4.1-4.4-7.2C3.9,4.6,7.5,1,12,1s8.1,3.6,8.1,8.1C20.1,12.2,18.2,14.9,15.7,16.2z M19.3,9.1c0-4.1-3.3-7.3-7.3-7.3
		S4.6,5,4.6,9.1c0,4.1,3.3,7.3,7.3,7.3S19.3,13.1,19.3,9.1z"></path>
</svg>