<svg width="64" height="64" version="1.1" xmlns="http://www.w3.org/2000/svg" xmlns:xlink="http://www.w3.org/1999/xlink" viewBox="0 0 64 64" aria-labelledby="title">
		<title>Data</title>
		<path d="M2,19h5v27H2V19z M20.6,19.1c5.1,0,9.3,3.3,9.3,13.4c0,10.3-4.3,13.6-9.3,13.6c-5,0-9.2-3.3-9.2-13.6
		C11.4,22.3,15.6,19.1,20.6,19.1z M20.6,41.7c4.2,0,4.2-6.3,4.2-9.3c0-2.7,0-9-4.2-9c-4.1,0-4.1,6.3-4.1,9
		C16.5,35.3,16.5,41.7,20.6,41.7z M52.7,19.1c5.1,0,9.3,3.3,9.3,13.4C62,42.8,57.7,46,52.7,46c-5,0-9.2-3.3-9.2-13.6
		C43.5,22.3,47.7,19.1,52.7,19.1z M52.7,41.7c4.2,0,4.2-6.3,4.2-9.3c0-2.7,0-9-4.2-9c-4.1,0-4.1,6.3-4.1,9
		C48.6,35.3,48.6,41.7,52.7,41.7z M34,19h5v27h-5V19z"></path>
</svg>