<svg width="16" height="16" version="1.1" xmlns="http://www.w3.org/2000/svg" xmlns:xlink="http://www.w3.org/1999/xlink" viewBox="0 0 16 16" aria-labelledby="title">
		<title>Data</title>
		<path d="M5.4,5.4c-1.1,0-2,0.7-2,3c0,2.3,0.9,3.1,2,3.1c1.1,0,2-0.7,2-3.1C7.5,6.2,6.5,5.4,5.4,5.4z M5.4,10.6
		c-0.9,0-0.9-1.4-0.9-2.1c0-0.6,0-2,0.9-2c0.9,0,0.9,1.4,0.9,2C6.4,9.1,6.4,10.6,5.4,10.6z M1,5.4h1.3v6.1H1V5.4z M8,5.4h1.3v6.1H8
		V5.4z M12.5,5.4c-1.1,0-2,0.7-2,3c0,2.3,0.9,3.1,2,3.1c1.1,0,2-0.7,2-3.1C14.5,6.2,13.6,5.4,12.5,5.4z M12.5,10.6
		c-0.9,0-0.9-1.4-0.9-2.1c0-0.6,0-2,0.9-2c0.9,0,0.9,1.4,0.9,2C13.4,9.1,13.4,10.6,12.5,10.6z"></path>
</svg>