<svg width="24" height="24" version="1.1" xmlns="http://www.w3.org/2000/svg" xmlns:xlink="http://www.w3.org/1999/xlink" viewBox="0 0 24 24" aria-labelledby="title">
		<title>Database</title>
		<path d="M22,1H2H1v22h22V1H22z M19,3.5c0.8,0,1.5,0.7,1.5,1.5S19.8,6.5,19,6.5S17.5,5.8,17.5,5S18.2,3.5,19,3.5z M22,22H2v-6h20V22z M22,15H2V9h20V15z M17.5,12c0-0.8,0.7-1.5,1.5-1.5s1.5,0.7,1.5,1.5s-0.7,1.5-1.5,1.5S17.5,12.8,17.5,12z M17.5,19c0-0.8,0.7-1.5,1.5-1.5s1.5,0.7,1.5,1.5s-0.7,1.5-1.5,1.5S17.5,19.8,17.5,19z"></path>
</svg>