<svg width="128" height="128" version="1.1" xmlns="http://www.w3.org/2000/svg" xmlns:xlink="http://www.w3.org/1999/xlink" viewBox="0 0 128 128" aria-labelledby="title">
			<title>Data</title>
			<path d="M4,37h10v54H4V37z M69,37h10v54H69V37z M41.4,37.1c10.1,0,18.6,6.5,18.6,26.7C60,84.5,51.5,91,41.4,91
			c-10,0-18.5-6.5-18.5-27.2C22.9,43.6,31.4,37.1,41.4,37.1z M41.4,82.4c8.4,0,8.4-12.7,8.4-18.5c0-5.4,0-18.1-8.4-18.1
			c-8.3,0-8.2,12.7-8.2,18.1C33.2,69.7,33.2,82.4,41.4,82.4z M105.4,37.1c10.1,0,18.6,6.5,18.6,26.7c0,20.7-8.5,27.2-18.6,27.2
			c-10,0-18.5-6.5-18.5-27.2C86.9,43.6,95.4,37.1,105.4,37.1z M105.4,82.4c8.4,0,8.4-12.7,8.4-18.5c0-5.4,0-18.1-8.4-18.1
			c-8.3,0-8.2,12.7-8.2,18.1C97.2,69.7,97.2,82.4,105.4,82.4z"></path>
</svg>