<svg width="32" height="32" version="1.1" xmlns="http://www.w3.org/2000/svg" xmlns:xlink="http://www.w3.org/1999/xlink" viewBox="0 0 32 32" aria-labelledby="title">
		<title>Database</title>
		<path d="M3,3v26h26V3H3z M23.5,6.2c1,0,1.7,0.8,1.7,1.7s-0.8,1.7-1.7,1.7S21.7,8.9,21.7,8S22.5,6.2,23.5,6.2z M27,27H5v-6h22V27z
	 M27,19H5v-6h22V19z M22,23.5c0-0.8,0.7-1.5,1.5-1.5c0.8,0,1.5,0.7,1.5,1.5c0,0.8-0.7,1.5-1.5,1.5C22.7,25,22,24.3,22,23.5z
	 M22,15.5c0-0.8,0.7-1.5,1.5-1.5c0.8,0,1.5,0.7,1.5,1.5c0,0.8-0.7,1.5-1.5,1.5C22.7,17,22,16.3,22,15.5z"></path>
</svg>