<svg width="24" height="24" version="1.1" xmlns="http://www.w3.org/2000/svg" xmlns:xlink="http://www.w3.org/1999/xlink" viewBox="0 0 24 24" aria-labelledby="title">
		<title>Data</title>
		<path d="M1,7h2v10H1V7z M7.7,7c1.9,0,3.5,1.2,3.5,5c0,3.8-1.6,5-3.5,5c-1.9,0-3.4-1.2-3.4-5C4.3,8.2,5.9,7,7.7,7z M7.7,15.5
		c1.6,0,1.6-2.4,1.6-3.5c0-1,0-3.4-1.6-3.4C6.2,8.6,6.2,11,6.2,12C6.2,13.1,6.2,15.5,7.7,15.5z M19.5,7c1.9,0,3.5,1.2,3.5,5
		c0,3.8-1.6,5-3.5,5c-1.9,0-3.4-1.2-3.4-5C16.1,8.2,17.7,7,19.5,7z M19.5,15.4c1.6,0,1.6-2.4,1.6-3.5c0-1,0-3.4-1.6-3.4
		C18,8.6,18,11,18,12C18,13.1,18,15.4,19.5,15.4z M13,7h2v10h-2V7z"></path>
</svg>