<svg width="32" height="32" version="1.1" xmlns="http://www.w3.org/2000/svg" xmlns:xlink="http://www.w3.org/1999/xlink" viewBox="0 0 32 32" aria-labelledby="title">
		<title>Data</title>
		<path d="M27,9L27,9L27,9L27,9z M1,23h2.5V10H1V23z M5.8,16.5c0,5,2,6.6,4.5,6.6c2.4,0,4.5-1.6,4.5-6.6c0-4.9-2.1-6.5-4.5-6.5
		C7.8,10,5.8,11.6,5.8,16.5z M8.3,16.5c0-1.3,0-4.4,2-4.4c2,0,2,3.1,2,4.4c0,1.4,0,4.5-2,4.5C8.3,20.9,8.3,17.9,8.3,16.5z M22,16.4
		c0,5,2,6.6,4.5,6.6c2.4,0,4.5-1.6,4.5-6.6c0-4.9-2.1-6.5-4.5-6.5C24,10,22,11.5,22,16.4z M24.5,16.4c0-1.3,0-4.4,2-4.4
		c2,0,2,3.1,2,4.4c0,1.4,0,4.5-2,4.5C24.5,20.9,24.5,17.8,24.5,16.4z M17,23h2.5V10H17V23z"></path>
</svg>