<svg width="32" height="32" version="1.1" xmlns="http://www.w3.org/2000/svg" xmlns:xlink="http://www.w3.org/1999/xlink" viewBox="0 0 32 32" aria-labelledby="title">
		<title>Data Set</title>
		<path d="M13,8V5H1v21h30V8H13z M29,24H3V11h26V24z M8.8,21H7.5v-7.5h1.3V21z M18.5,21h-1.3v-7.5h1.3V21z M13,21
		c1.4,0,2.7-0.9,2.7-3.8c0-2.8-1.2-3.7-2.7-3.7c-1.4,0-2.6,0.9-2.6,3.7C10.3,20.1,11.6,21,13,21z M13,14.7c1.2,0,1.2,1.8,1.2,2.5
		c0,0.8,0,2.6-1.2,2.6c-1.2,0-1.2-1.8-1.2-2.6C11.8,16.5,11.8,14.7,13,14.7z M22.7,21c1.4,0,2.7-0.9,2.7-3.8c0-2.8-1.2-3.7-2.7-3.7
		c-1.4,0-2.6,0.9-2.6,3.7C20,20.1,21.2,21,22.7,21z M22.7,14.7c1.2,0,1.2,1.8,1.2,2.5c0,0.8,0,2.6-1.2,2.6c-1.2,0-1.2-1.8-1.2-2.6
		C21.5,16.5,21.5,14.7,22.7,14.7z"></path>
</svg>