<svg width="128" height="128" version="1.1" xmlns="http://www.w3.org/2000/svg" xmlns:xlink="http://www.w3.org/1999/xlink" viewBox="0 0 128 128" aria-labelledby="title">
			<title>Data Quality</title>
			<path d="M72,4L72,4L72,4L72,4z M82,87l4,37l-24-16l-24,16l4-37c-13.9-7.4-24-22.2-24-39C18,23.7,37.7,4,62,4c24.3,0,44,19.7,44,44 C106,64.8,95.9,79.6,82,87z M102,48c0-22.1-17.9-40-40-40S22,25.9,22,48c0,22.1,17.9,40,40,40S102,70.1,102,48z M57,53.4l-9-9l-6,6
			l15,15l27-27l-6-6L57,53.4z"></path>
</svg>