<svg width="64" height="64" version="1.1" xmlns="http://www.w3.org/2000/svg" xmlns:xlink="http://www.w3.org/1999/xlink" viewBox="0 0 64 64" aria-labelledby="title">
		<title>Structured Data</title>
		<path d="M52,42.3V21.7c3.4-0.9,6-4,6-7.7c0-4.4-3.6-8-8-8c-3.7,0-6.8,2.5-7.7,6H21.7c-0.9-3.4-4-6-7.7-6c-4.4,0-8,3.6-8,8
	c0,3.7,2.6,6.8,6,7.7v20.5c-3.4,0.9-6,4-6,7.7c0,4.4,3.6,8,8,8c4.1,0,7.4-3.1,7.9-7h20.1c0.5,3.9,3.9,7,7.9,7c4.4,0,8-3.6,8-8
	C58,46.3,55.4,43.2,52,42.3z M20.6,45.5l6.9-6.9c1.3,0.9,2.8,1.4,4.5,1.4c1.7,0,3.2-0.5,4.5-1.4l6.9,6.9c-0.5,0.7-0.9,1.6-1.1,2.5
	H21.7C21.5,47.1,21.1,46.3,20.6,45.5z M18.5,20.6l6.9,6.9C24.5,28.8,24,30.3,24,32c0,1.7,0.5,3.2,1.4,4.5l-6.9,6.9
	c-1-0.7-2.2-1.2-3.5-1.3V21.9C16.3,21.8,17.5,21.3,18.5,20.6z M43.4,18.5l-6.9,6.9C35.2,24.5,33.7,24,32,24c-1.7,0-3.2,0.5-4.5,1.4
	l-6.9-6.9c0.7-1,1.2-2.2,1.3-3.5h20.1C42.2,16.3,42.7,17.5,43.4,18.5z M45.5,43.4l-6.9-6.9c0.9-1.3,1.4-2.8,1.4-4.5
	c0-1.7-0.5-3.2-1.4-4.5l6.9-6.9c1,0.7,2.2,1.2,3.5,1.3v20.1C47.7,42.2,46.5,42.7,45.5,43.4z M50,9c2.6,0,5,2.4,5,5c0,2.6-2.4,5-5,5
	c-2.6,0-5-2.4-5-5C45,11.4,47.4,9,50,9z M9,14c0-2.6,2.4-5,5-5c2.6,0,5,2.4,5,5c0,2.6-2.4,5-5,5C11.4,19,9,16.6,9,14z M14,55
	c-2.6,0-5-2.4-5-5c0-2.6,2.4-5,5-5c2.6,0,5,2.4,5,5C19,52.6,16.6,55,14,55z M50,55c-2.6,0-5-2.4-5-5c0-2.6,2.4-5,5-5
	c2.6,0,5,2.4,5,5C55,52.6,52.6,55,50,55z"></path>
</svg>