<svg width="16" height="16" version="1.1" xmlns="http://www.w3.org/2000/svg" xmlns:xlink="http://www.w3.org/1999/xlink" viewBox="0 0 16 16" aria-labelledby="title">
		<title>Structured Data</title>
		<path d="M14,11.3V4.7c0.6-0.3,1-1,1-1.7c0-1.1-0.9-2-2-2c-0.7,0-1.4,0.4-1.7,1H4.7C4.4,1.4,3.7,1,3,1C1.9,1,1,1.9,1,3
	c0,0.7,0.4,1.4,1,1.7v6.6c-0.6,0.3-1,1-1,1.7c0,1.1,0.9,2,2,2c0.7,0,1.4-0.4,1.7-1h6.6c0.3,0.6,1,1,1.7,1c1.1,0,2-0.9,2-2
	C15,12.3,14.6,11.6,14,11.3z M13,11c-0.4,0-0.7,0.1-1,0.3L9.7,9C9.9,8.7,10,8.4,10,8S9.9,7.3,9.7,7L12,4.7C12.3,4.9,12.6,5,13,5V11z
	 M13,2c0.6,0,1,0.4,1,1s-0.4,1-1,1s-1-0.4-1-1S12.4,2,13,2z M11,3c0,0.4,0.1,0.7,0.3,1L9,6.3C8.7,6.1,8.4,6,8,6S7.3,6.1,7,6.3L4.7,4
	C4.9,3.7,5,3.4,5,3H11z M3,2c0.6,0,1,0.4,1,1S3.6,4,3,4S2,3.6,2,3S2.4,2,3,2z M3,5c0.4,0,0.7-0.1,1-0.3L6.3,7C6.1,7.3,6,7.6,6,8
	s0.1,0.7,0.3,1L4,11.3C3.7,11.1,3.4,11,3,11V5z M3,14c-0.6,0-1-0.4-1-1s0.4-1,1-1s1,0.4,1,1S3.6,14,3,14z M5,13c0-0.4-0.1-0.7-0.3-1
	L7,9.7C7.3,9.9,7.6,10,8,10s0.7-0.1,1-0.3l2.3,2.3c-0.2,0.3-0.3,0.6-0.3,1H5z M13,14c-0.6,0-1-0.4-1-1s0.4-1,1-1s1,0.4,1,1
	S13.6,14,13,14z"></path></svg>