<svg width="24" height="24" version="1.1" xmlns="http://www.w3.org/2000/svg" xmlns:xlink="http://www.w3.org/1999/xlink" viewBox="0 0 24 24" aria-labelledby="title">
		<title>Structured Data</title>
		<path d="M20,17V7c1.4-0.2,3-1.5,3-3c0-1.7-1.3-3-3-3c-1.5,0-2.7,1.6-2.9,3H7C6.8,2.6,5.5,1,4,1C2.3,1,1,2.3,1,4c0,1.5,1.6,2.8,3,3
	v10.1c-1.4,0.2-3,1.4-3,2.9c0,1.7,1.3,3,3,3c1.5,0,2.7-1.6,2.9-3H17c0.2,1.4,1.5,3,3,3c1.7,0,3-1.3,3-3C23,18.5,21.4,17.3,20,17z
	 M20,2c1.1,0,2,0.9,2,2c0,1.1-0.9,2-2,2c-1.1,0-2-0.9-2-2C18,2.9,18.9,2,20,2z M14.5,10.3l3.8-3.8C18.6,6.7,18.6,6.9,19,7V17
	c-0.5,0.1-0.4,0.3-0.8,0.5l-3.8-3.8c0.3-0.5,0.6-1.1,0.6-1.7C15,11.4,14.8,10.8,14.5,10.3z M7,5h10.1c0.1,0.5,0.2,0.4,0.5,0.8
	l-3.8,3.8C13.3,9.2,12.7,9,12,9c-0.6,0-1.2,0.2-1.7,0.6L6.5,5.8C6.7,5.4,6.9,5.5,7,5z M9.6,13.8l-3.8,3.8c-0.4-0.3-0.3-0.4-0.8-0.5
	V7c0.5-0.1,0.4-0.3,0.8-0.5l3.8,3.8C9.2,10.7,9,11.3,9,12C9,12.7,9.2,13.3,9.6,13.8z M2,4c0-1.1,0.9-2,2-2c1.1,0,2,0.9,2,2
	c0,1.1-0.9,2-2,2C2.9,6,2,5.1,2,4z M4,22c-1.1,0-2-0.9-2-2c0-1.1,0.9-2,2-2c1.1,0,2,0.9,2,2C6,21.1,5.1,22,4,22z M17,19H6.9
	c-0.1-0.4-0.2-0.4-0.4-0.7l3.8-3.8c0.5,0.3,1.1,0.5,1.7,0.5c0.7,0,1.3-0.2,1.7-0.6l3.8,3.8C17.3,18.6,17.1,18.5,17,19z M20,22
	c-1.1,0-2-0.9-2-2c0-1.1,0.9-2,2-2c1.1,0,2,0.9,2,2C22,21.1,21.1,22,20,22z"></path>
</svg>