<svg width="128" height="128" version="1.1" xmlns="http://www.w3.org/2000/svg" xmlns:xlink="http://www.w3.org/1999/xlink" viewBox="0 0 128 128" aria-labelledby="title">
			<title>Structured Data</title>
			<path d="M101,84.1V43.9c8.1-0.8,14.5-7.6,14.5-15.9c0-8.8-7.2-16-16-16c-8.2,0-14.9,6.1-15.9,14H43.9c-1-7.9-7.7-14-15.9-14
	c-8.8,0-16,7.2-16,16c0,8.2,6.1,14.9,14,15.9v40.3c-7.9,1-14,7.7-14,15.9c0,8.8,7.2,16,16,16c8.2,0,14.9-6.1,15.9-14h39.8
	c1,7.9,7.7,14,15.9,14c8.8,0,16-7.2,16-16C115.5,91.7,109.1,84.8,101,84.1z M40.4,89.9l13.7-13.3c2.7,2.2,6.2,3.4,9.9,3.4
	c3.7,0,7.1-1.3,9.8-3.4l13.3,13.3c-1.9,2.3-3.1,5.1-3.5,8.1H43.9C43.5,95,42.3,92.2,40.4,89.9z M37.8,40.6l13.6,13.6
	C49.3,56.9,48,60.3,48,64c0,3.7,1.2,7,3.3,9.7L37.5,87.1c-2.2-1.6-4.7-2.7-7.5-3V43.9C32.9,43.5,35.6,42.3,37.8,40.6z M87.4,38.5
	L74,51.5c-2.7-2.2-6.2-3.5-10-3.5c-3.7,0-7.1,1.3-9.8,3.3L40.7,37.8c1.7-2.2,2.8-4.9,3.2-7.8h39.8C84,33.2,85.4,36.2,87.4,38.5z
	 M90,87.1L76.7,73.8c2.1-2.7,3.3-6.1,3.3-9.8c0-3.6-1.2-6.9-3.2-9.6l13.6-13.3c1.9,1.3,4.2,2.2,6.6,2.6v40.4
	C94.4,84.6,92,85.6,90,87.1z M99.5,16c6.6,0,12,5.4,12,12s-5.4,12-12,12s-12-5.4-12-12S92.9,16,99.5,16z M16,28c0-6.6,5.4-12,12-12
	s12,5.4,12,12s-5.4,12-12,12S16,34.6,16,28z M28,112c-6.6,0-12-5.4-12-12s5.4-12,12-12s12,5.4,12,12S34.6,112,28,112z M99.5,112
	c-6.6,0-12-5.4-12-12s5.4-12,12-12s12,5.4,12,12S106.1,112,99.5,112z"></path>
</svg>