<svg width="64" height="64" version="1.1" xmlns="http://www.w3.org/2000/svg" xmlns:xlink="http://www.w3.org/1999/xlink" viewBox="0 0 64 64" aria-labelledby="title">
		<title>Unstructured Data</title>
		<path d="M14,6c-4.4,0-8,3.6-8,8c0,4.4,3.6,8,8,8c4.4,0,8-3.6,8-8C22,9.6,18.4,6,14,6z M14,19c-2.6,0-5-2.4-5-5c0-2.6,2.4-5,5-5
	c2.6,0,5,2.4,5,5C19,16.6,16.6,19,14,19z M40,32c0,4.4-3.6,8-8,8c-4.4,0-8-3.6-8-8c0-4.4,3.6-8,8-8C36.4,24,40,27.6,40,32z M14,42
	c-4.4,0-8,3.6-8,8c0,4.4,3.6,8,8,8c4.4,0,8-3.6,8-8C22,45.6,18.4,42,14,42z M14,55c-2.6,0-5-2.4-5-5c0-2.6,2.4-5,5-5
	c2.6,0,5,2.4,5,5C19,52.6,16.6,55,14,55z M50,22c4.4,0,8-3.6,8-8c0-4.4-3.6-8-8-8c-4.4,0-8,3.6-8,8C42,18.4,45.6,22,50,22z M50,9
	c2.6,0,5,2.4,5,5c0,2.6-2.4,5-5,5c-2.6,0-5-2.4-5-5C45,11.4,47.4,9,50,9z M50,42c-4.4,0-8,3.6-8,8c0,4.4,3.6,8,8,8c4.4,0,8-3.6,8-8
	C58,45.6,54.4,42,50,42z M50,55c-2.6,0-5-2.4-5-5c0-2.6,2.4-5,5-5c2.6,0,5,2.4,5,5C55,52.6,52.6,55,50,55z"></path>
</svg>