<svg width="128" height="128" version="1.1" xmlns="http://www.w3.org/2000/svg" xmlns:xlink="http://www.w3.org/1999/xlink" viewBox="0 0 128 128" aria-labelledby="title">
			<title>Unstructured Data</title>
			<path d="M80,64c0,8.8-7.2,16-16,16s-16-7.2-16-16s7.2-16,16-16S80,55.2,80,64z M44,28c0,8.8-7.2,16-16,16s-16-7.2-16-16
	s7.2-16,16-16S44,19.2,44,28z M40,28c0-6.6-5.4-12-12-12s-12,5.4-12,12s5.4,12,12,12S40,34.6,40,28z M83.5,28c0-8.8,7.2-16,16-16
	s16,7.2,16,16s-7.2,16-16,16S83.5,36.8,83.5,28z M87.5,28c0,6.6,5.4,12,12,12s12-5.4,12-12s-5.4-12-12-12S87.5,21.4,87.5,28z
	 M44,100c0,8.8-7.2,16-16,16s-16-7.2-16-16s7.2-16,16-16S44,91.2,44,100z M40,100c0-6.6-5.4-12-12-12s-12,5.4-12,12s5.4,12,12,12
	S40,106.6,40,100z M115.5,100c0,8.8-7.2,16-16,16s-16-7.2-16-16s7.2-16,16-16S115.5,91.2,115.5,100z M111.5,100c0-6.6-5.4-12-12-12
	s-12,5.4-12,12s5.4,12,12,12S111.5,106.6,111.5,100z"></path>
</svg>