<svg width="24" height="24" version="1.1" xmlns="http://www.w3.org/2000/svg" xmlns:xlink="http://www.w3.org/1999/xlink" viewBox="0 0 24 24" aria-labelledby="title">
		<title>Unstructured Data</title>
		<path d="M4,1C2.3,1,1,2.3,1,4c0,1.7,1.3,3,3,3c1.7,0,3-1.3,3-3C7,2.3,5.7,1,4,1z M4,6C2.9,6,2,5.1,2,4c0-1.1,0.9-2,2-2
	c1.1,0,2,0.9,2,2C6,5.1,5.1,6,4,6z M15,12c0,1.7-1.3,3-3,3s-3-1.3-3-3s1.3-3,3-3S15,10.3,15,12z M20,7c1.7,0,3-1.3,3-3
	c0-1.7-1.3-3-3-3c-1.7,0-3,1.3-3,3C17,5.7,18.3,7,20,7z M20,2c1.1,0,2,0.9,2,2c0,1.1-0.9,2-2,2c-1.1,0-2-0.9-2-2C18,2.9,18.9,2,20,2
	z M4,17c-1.7,0-3,1.3-3,3s1.3,3,3,3c1.7,0,3-1.3,3-3S5.7,17,4,17z M4,22c-1.1,0-2-0.9-2-2c0-1.1,0.9-2,2-2c1.1,0,2,0.9,2,2
	C6,21.1,5.1,22,4,22z M20,17c-1.7,0-3,1.3-3,3s1.3,3,3,3c1.7,0,3-1.3,3-3S21.7,17,20,17z M20,22c-1.1,0-2-0.9-2-2c0-1.1,0.9-2,2-2
	c1.1,0,2,0.9,2,2C22,21.1,21.1,22,20,22z"></path>
</svg>