<svg width="32" height="32" version="1.1" xmlns="http://www.w3.org/2000/svg" xmlns:xlink="http://www.w3.org/1999/xlink" viewBox="0 0 32 32" aria-labelledby="title">
		<title>Unstructured Data</title>
		<path d="M7,3C4.8,3,3,4.8,3,7s1.8,4,4,4s4-1.8,4-4S9.2,3,7,3z M7,9C5.9,9,5,8.1,5,7s0.9-2,2-2s2,0.9,2,2S8.1,9,7,9z M25,11
	c2.2,0,4-1.8,4-4s-1.8-4-4-4c-2.2,0-4,1.8-4,4S22.8,11,25,11z M25,5c1.1,0,2,0.9,2,2s-0.9,2-2,2c-1.1,0-2-0.9-2-2S23.9,5,25,5z
	 M7,21c-2.2,0-4,1.8-4,4c0,2.2,1.8,4,4,4s4-1.8,4-4C11,22.8,9.2,21,7,21z M7,27c-1.1,0-2-0.9-2-2c0-1.1,0.9-2,2-2s2,0.9,2,2
	C9,26.1,8.1,27,7,27z M20,16c0,2.2-1.8,4-4,4s-4-1.8-4-4s1.8-4,4-4S20,13.8,20,16z M25,21c-2.2,0-4,1.8-4,4c0,2.2,1.8,4,4,4
	c2.2,0,4-1.8,4-4C29,22.8,27.2,21,25,21z M25,27c-1.1,0-2-0.9-2-2c0-1.1,0.9-2,2-2c1.1,0,2,0.9,2,2C27,26.1,26.1,27,25,27z"></path>
</svg>