<svg width="16" height="16" version="1.1" xmlns="http://www.w3.org/2000/svg" xmlns:xlink="http://www.w3.org/1999/xlink" viewBox="0 0 16 16" aria-labelledby="title">
		<title>Unstructured Data</title>
		<path d="M3,1C1.9,1,1,1.9,1,3s0.9,2,2,2s2-0.9,2-2S4.1,1,3,1z M3,4C2.4,4,2,3.6,2,3s0.4-1,1-1s1,0.4,1,1S3.6,4,3,4z M10,8
	c0,1.1-0.9,2-2,2S6,9.1,6,8s0.9-2,2-2S10,6.9,10,8z M13,5c1.1,0,2-0.9,2-2s-0.9-2-2-2s-2,0.9-2,2S11.9,5,13,5z M13,2
	c0.6,0,1,0.4,1,1s-0.4,1-1,1s-1-0.4-1-1S12.4,2,13,2z M3,11c-1.1,0-2,0.9-2,2s0.9,2,2,2s2-0.9,2-2S4.1,11,3,11z M3,14
	c-0.6,0-1-0.4-1-1s0.4-1,1-1s1,0.4,1,1S3.6,14,3,14z M13,11c-1.1,0-2,0.9-2,2s0.9,2,2,2s2-0.9,2-2S14.1,11,13,11z M13,14
	c-0.6,0-1-0.4-1-1s0.4-1,1-1s1,0.4,1,1S13.6,14,13,14z"></path></svg>