<?xml version="1.0" encoding="utf-8"?>
<!-- Generator: Adobe Illustrator 19.1.0, SVG Export Plug-In . SVG Version: 6.00 Build 0)  -->
<svg version="1.1" id="Layer_1" xmlns="http://www.w3.org/2000/svg" xmlns:xlink="http://www.w3.org/1999/xlink" x="0px" y="0px"
	 viewBox="0 0 22 22" style="enable-background:new 0 0 22 22;" xml:space="preserve">
<style type="text/css">
	.st0{fill:#FFFFFF;}
</style>
<g>
	<path class="st0" d="M11,1.5c5.2,0,9.5,4.3,9.5,9.5s-4.3,9.5-9.5,9.5S1.5,16.2,1.5,11S5.8,1.5,11,1.5 M11,0C4.9,0,0,4.9,0,11
		s4.9,11,11,11s11-4.9,11-11S17.1,0,11,0L11,0z"/>
</g>
<path class="st0" d="M15,6.4l-0.7,0.8l-5,5.3L7.7,11L7,10.3l-1.5,1.5l0.7,0.7l2.3,2.3l0.8,0.8l0.7-0.8l5.8-6.1l0.7-0.8L15,6.4z"/>
</svg>
