<?xml version="1.0" encoding="utf-8"?>
<!-- Generator: Adobe Illustrator 19.1.0, SVG Export Plug-In . SVG Version: 6.00 Build 0)  -->
<svg version="1.1" id="Layer_1" xmlns="http://www.w3.org/2000/svg" xmlns:xlink="http://www.w3.org/1999/xlink" x="0px" y="0px"
	 viewBox="0 0 22 22" style="enable-background:new 0 0 22 22;" xml:space="preserve">
<style type="text/css">
	.st0{fill:#1C3649;}
</style>
<g>
	<path class="st0" d="M11,1.5c5.2,0,9.5,4.3,9.5,9.5s-4.3,9.5-9.5,9.5S1.5,16.2,1.5,11S5.8,1.5,11,1.5 M11,0C4.9,0,0,4.9,0,11
		s4.9,11,11,11c6.1,0,11-4.9,11-11S17.1,0,11,0L11,0z"/>
</g>
<g>
	<path class="st0" d="M9.9,4.7c0.3-0.3,0.7-0.4,1.1-0.4s0.8,0.1,1.1,0.4c0.3,0.3,0.4,0.7,0.4,1.1c0,0.4-0.1,0.8-0.4,1.1
		c-0.3,0.3-0.7,0.4-1.1,0.4c-0.4,0-0.8-0.1-1.1-0.4C9.6,6.6,9.5,6.2,9.5,5.8C9.5,5.4,9.6,5,9.9,4.7z"/>
	<path class="st0" d="M12.8,17.7H9.1v-0.5c0.3,0,0.5-0.1,0.6-0.3c0.2-0.2,0.2-0.5,0.2-0.9v-5.7c0-0.4-0.1-0.7-0.2-0.8
		C9.7,9.4,9.5,9.3,9.2,9.2V8.8h3v7.4c0,0.4,0.1,0.7,0.2,0.8c0.1,0.1,0.3,0.2,0.6,0.3L12.8,17.7L12.8,17.7z"/>
</g>
</svg>
