<svg version="1.1"
	 xmlns="http://www.w3.org/2000/svg" xmlns:xlink="http://www.w3.org/1999/xlink" xmlns:a="http://ns.adobe.com/AdobeSVGViewerExtensions/3.0/"
	 x="0px" y="0px" width="29px" height="29px" viewBox="0 0 29 29" style="enable-background:new 0 0 29 29;" xml:space="preserve">
<style type="text/css">
	.st0{fill:#A6266E;}
</style>
<defs>
</defs>
<g id="XMLID_1_">
	<path id="XMLID_4_" class="st0" d="M6.6,0C3,0,0,3,0,6.6c0,3.6,3,6.6,6.6,6.6s6.6-3,6.6-6.6C13.2,3,10.2,0,6.6,0z M6.6,12
		c-3,0-5.4-2.4-5.4-5.4s2.4-5.4,5.4-5.4S12,3.6,12,6.6S9.6,12,6.6,12z"/>
	
		<rect id="XMLID_3_" x="13.7" y="12" transform="matrix(0.7071 -0.7071 0.7071 0.7071 -6.2132 15)" class="st0" width="2.5" height="5.9"/>
	<circle id="XMLID_2_" class="st0" cx="12" cy="12" r="0.6"/>
</g>
</svg>
