<svg width="64" height="64" version="1.1" xmlns="http://www.w3.org/2000/svg" xmlns:xlink="http://www.w3.org/1999/xlink" viewBox="0 0 64 64" aria-labelledby="title">
		<title>CSV File</title>
		<path d="M53,18L37,2h0v0h-3H11v60h42L53,18L53,18L53,18z M50,59H14V5h20c0,5.3,0,16,0,16h16V59z M25.5,45.3h2.4
	c-0.3,2.4-2,3.7-4.4,3.7c-2.7,0-4.6-1.9-4.6-4.6c0-2.8,1.7-4.9,4.6-4.9c2.1,0,4.1,1.1,4.3,3.4h-2.4c-0.2-1-0.8-1.6-1.8-1.6
	c-1.6,0-2.1,1.6-2.1,2.9c0,1.3,0.5,2.9,2.1,2.9C24.7,47.2,25.3,46.5,25.5,45.3z M32.7,39.5c2,0,3.8,0.7,4,2.9h-2.4
	c-0.1-1-0.8-1.2-1.7-1.2c-0.6,0-1.4,0.1-1.4,0.8c0,0.9,1.4,1,2.8,1.3c1.5,0.3,2.9,0.9,2.9,2.5c0,2.4-2.1,3.1-4.1,3.1
	c-2.1,0-4.2-0.8-4.3-3.2h2.4c0,1.1,0.9,1.5,1.9,1.5c0.7,0,1.6-0.3,1.6-1.2c0-0.8-1-1-2.8-1.4c-1.5-0.3-2.9-0.8-2.9-2.4
	C28.8,40.1,30.8,39.5,32.7,39.5z M40.1,48.8l-3.1-9h2.6l1.9,6.2h0l1.9-6.2h2.5l-3.1,9H40.1z"></path>
</svg>