<svg width="128" height="128" version="1.1" xmlns="http://www.w3.org/2000/svg" xmlns:xlink="http://www.w3.org/1999/xlink" viewBox="0 0 128 128" aria-labelledby="title">
			<title>CSV File</title>
			<path d="M72,4L72,4H24v120h80V36L72,4z M100,120H28V8h39v33h33V120z M49.5,94h5c-0.7,5-4.1,7.7-9,7.7c-5.7,0-9.5-4-9.5-9.6
			c0-5.8,3.5-10.2,9.6-10.2c4.4,0,8.5,2.1,8.8,7.1h-5c-0.3-2-1.6-3.2-3.8-3.2c-3.3,0-4.4,3.4-4.4,6.1c0,2.7,1.1,5.9,4.3,5.9
			C47.8,97.8,49.2,96,49.5,94z M64.5,82c4.1,0,7.9,1,8.3,6h-4.9c-0.1-2-1.7-2.6-3.5-2.6c-1.2,0-2.9,0.2-2.9,1.7c0,1.9,2.9,2.1,5.8,2.8
			c3,0.7,6,1.8,6,5.3c0,4.9-4.3,6.5-8.6,6.5c-4.4,0-8.6-1.7-8.8-6.7h4.9c0,2,2,3.2,4,3.2c1.5,0,3.4-0.5,3.4-2.4c0-1.6-2.2-2.1-5.8-2.9
			c-3-0.7-6-1.7-6-5C56.3,83.2,60.4,82,64.5,82z M79.8,101l-6.4-19h5.4l4,13h0.1l4-13h5.1l-6.4,19H79.8z"></path>
</svg>