<svg width="24" height="24" version="1.1" xmlns="http://www.w3.org/2000/svg" xmlns:xlink="http://www.w3.org/1999/xlink" viewBox="0 0 24 24" aria-labelledby="title">
		<title>CSV File</title>
		<path d="M9.2,15.3H12v1.4H9.2v1.4H12v1.4H9.2v-0.7H7.7v-0.7H7v-1.4h0.7V16h1.4V15.3z M11.3,10.6H9.9v0.7H9.2v1.4H7.7v-2.1H7v2.8h0.7
	v0.7h1.4v-0.7h0.7V12h1.4v2.1H12v-2.8h-0.7V10.6z M20,7l0,16H4V1h10L20,7z M19,9l-6,0c0,0,0-4.9,0-7H5v20h14V9z M11.3,6H7.7v0.7H7
	v2.1h0.7v0.7h0.7V8.1H7.7V7.4h3.6v0.7h-0.7v1.4h0.7V8.8H12V6.7h-0.7V6z"></path>
</svg>