<svg width="32" height="32" version="1.1" xmlns="http://www.w3.org/2000/svg" xmlns:xlink="http://www.w3.org/1999/xlink" viewBox="0 0 32 32" aria-labelledby="title">
		<title>CSV File</title>
		<path d="M27,9l-8-8H5v30h22L27,9L27,9L27,9z M25,29H7V3h10v8h8V29z M14.2,9.8H15v2.6h-0.9v0.9h-0.9v-1.7h0.9v-0.9H9.9v0.9h0.9v1.7
	H9.9v-0.9H9V9.8h0.9V9h4.3V9.8z M14.2,15.3H15v3.4h-0.9v-2.6h-1.7v1.7h-0.9v0.9H9.9v-0.9H9v-3.4h0.9V17h1.7v-1.7h0.9v-0.9h1.7V15.3z
	 M11.6,19.8H15v1.7h-3.4v1.7H15V25h-3.4v-0.9H9.9v-0.9H9v-1.7h0.9v-0.9h1.7V19.8z"></path>
</svg>