<svg width="32" height="32" version="1.1" xmlns="http://www.w3.org/2000/svg" xmlns:xlink="http://www.w3.org/1999/xlink" viewBox="0 0 32 32" aria-labelledby="title">
		<title>D3 Chart</title>
		<path d="M27,14c0-6.1-4.9-11-11-11S5,7.9,5,14s4.9,11,11,11c0,0,0,0,0,0v4l7-6.5C25.4,20.5,27,17.4,27,14z M7,14c0-5,4-9,9-9
		s9,4,9,9c0,5-4,9-9,9S7,19,7,14z M12,16h3v1h-4v-7h4v1h-3V16z M15,11h1v5h-1V11z M17,10h5v1h-1v1h-1v-1h-3V10z M21,16v-2h1v2H21z
		 M18,15v1h-1v-1H18z M18,16h3v1h-3V16z M20,14v-1h1v1H20z M19,12h1v1h-1V12z"></path>
</svg>