<svg width="64" height="64" version="1.1" xmlns="http://www.w3.org/2000/svg" xmlns:xlink="http://www.w3.org/1999/xlink" viewBox="0 0 64 64" aria-labelledby="title">
		<title>D3 Chart</title>
		<path d="M53,27c0-11.6-9.4-21-21-21s-21,9.4-21,21c0,11.6,9.4,21,21,21l0,0v10l14.4-15.8l0,0C50.4,38.4,53,33,53,27z M14,27
	c0-9.9,8.1-18,18-18s18,8.1,18,18s-8.1,18-18,18S14,36.9,14,27z M27.9,22h-4.2v9.8h4.2c3,0,4.5-2.1,4.5-5C32.3,23.6,30.4,22,27.9,22
	z M27.7,30h-1.9v-6.2h1.5c2.1,0,2.8,1.3,2.8,3.2C30.2,29.2,29,30,27.7,30z M38.3,28.9c0-1.5-1.3-1.4-2.2-1.4v-1.4
	c0.8,0.1,2.1-0.1,2.1-1.2c0-0.8-0.6-1.3-1.4-1.3c-1,0-1.5,0.7-1.5,1.7h-1.9c0.1-2,1.3-3.3,3.3-3.3c1.5,0,3.2,0.9,3.2,2.7
	c0,0.9-0.5,1.7-1.3,2v0c1.1,0.2,1.7,1.1,1.7,2.2c0,2-1.7,3.2-3.6,3.2c-2.2,0-3.6-1.3-3.6-3.5h1.9c0,1,0.6,1.9,1.7,1.9
	C37.7,30.4,38.3,29.8,38.3,28.9z"></path>
</svg>