<svg width="32" height="32" version="1.1" xmlns="http://www.w3.org/2000/svg" xmlns:xlink="http://www.w3.org/1999/xlink" viewBox="0 0 32 32" aria-labelledby="title">
		<title>JSON File</title>
		<path d="M27,9l-8-8H5v30h22L27,9L27,9L27,9z M25,29H7V3h10v8h8V29z M9.8,9.3H9V6.8h0.8V6h0.8v1.6H9.8v0.8H13V10l-3.2,0V9.3z
	 M12.4,12.1h0.8v2.4h-0.8v-1.6h-0.8v1.6h-0.8v0.8H9.9v-0.8H9.1v-3.2h0.8v2.4h0.8v-1.6h0.8v-0.8h0.8V12.1z M12.4,16.6H9.9v0.8H9.1
	v2.4h0.8v0.8h2.5v-0.8h0.8v-2.4h-0.8V16.6z M12.4,19H9.9v-0.8h2.5V19z M12.4,24.4v-0.8h0.8v1.6h-0.8V26H9.1v-1.6H12.4z M9.1,22h4.2
	v0.8h-0.8v0.8H9.1V22z"></path>
</svg>