<svg width="24" height="24" version="1.1" xmlns="http://www.w3.org/2000/svg" xmlns:xlink="http://www.w3.org/1999/xlink" viewBox="0 0 24 24" aria-labelledby="title">
		<title>JSON File</title>
		<path d="M7,16.8h3.6v0.7H9.9v0.7H7V16.8z M7,18.7V20h2.9v-0.6h0.7v-1.3H9.9v0.7H7z M9.9,13.1h0.7v1.9H9.9v0.6H7.7v-0.6H7v-1.9h0.7
	v-0.6h2.2V13.1z M9.9,13.8H7.7v0.6h2.2V13.8z M7.7,7.2l2.7,0v-1H7.7V5.4h0.7V4H7.7v0.7H7v2.1h0.7V7.2z M7.7,11.4h0.7l0-0.4h0.7V9.6
	h0.7V11h0.7V8.9H9.9V8.3H9.2v0.7H8.4v1.4H7.7V8.3H7V11h0.7V11.4z M20,7l0,16H4V1h10L20,7z M19,9h-6c0,0,0-4.9,0-7H5v20h14V9z"></path>
</svg>