<svg width="64" height="64" version="1.1" xmlns="http://www.w3.org/2000/svg" xmlns:xlink="http://www.w3.org/1999/xlink" viewBox="0 0 64 64" aria-labelledby="title">
		<title>JSON File</title>
		<path d="M53,18L37,2l0,0v0H11v60h42L53,18L53,18L53,18z M50,59H14V5h20c0,5.4,0,16,0,16h16V59z M18.4,37.5h2.2v1.9h-2.2V37.5z
		 M18.4,40.5h2.2v8.3c0,1.7-0.6,2.4-2.8,2.4c-0.2,0-0.5,0-0.7-0.1v-1.8c0.1,0,0.3,0.1,0.5,0.1c0.5,0,0.9-0.1,0.9-0.7V40.5z
		 M29.3,46.1c0,2.1-1.9,2.8-3.7,2.8c-1.9,0-3.7-0.7-3.8-2.8h2.1c0,1,0.8,1.4,1.7,1.4c0.6,0,1.5-0.2,1.5-1c0-0.7-0.9-0.9-2.5-1.3
		C23.3,44.9,22,44.5,22,43c0-2.1,1.8-2.6,3.5-2.6c1.8,0,3.4,0.6,3.6,2.6H27c-0.1-0.9-0.7-1.1-1.5-1.1c-0.5,0-1.2,0.1-1.2,0.8
		c0,0.8,1.3,0.9,2.5,1.2C28.1,44.2,29.3,44.6,29.3,46.1z M30.2,44.7c0,2.6,1.6,4.3,4.2,4.3c2.5,0,4.2-1.7,4.2-4.3
		c0-2.6-1.6-4.3-4.2-4.3C31.9,40.4,30.2,42.1,30.2,44.7z M34.4,42.1c1.5,0,2,1.3,2,2.6c0,1.3-0.5,2.6-2,2.6c-1.5,0-2-1.3-2-2.6
		C32.5,43.4,32.9,42.1,34.4,42.1z M41.7,48.9h-2.2v-8.3h2.1v1.1h0c0.6-0.9,1.5-1.3,2.5-1.3c2.4,0,3,1.3,3,3.3v5.2h-2.2v-4.8
		c0-1.3-0.4-2-1.4-2c-1.2,0-1.7,0.7-1.7,2.3V48.9z"></path>
</svg>