<svg width="128" height="128" version="1.1" xmlns="http://www.w3.org/2000/svg" xmlns:xlink="http://www.w3.org/1999/xlink" viewBox="0 0 128 128" aria-labelledby="title">
		<title>JSON File</title>
			<path d="M43.7,83.2h-4.2v-3.5h4.2V83.2z M55.2,91.6c-2.3-0.6-4.7-0.8-4.7-2.3c0-1.3,1.4-1.4,2.3-1.4c1.5,0,2.7,0.4,2.8,2h3.9
			c-0.3-3.7-3.4-4.8-6.7-4.8c-3.2,0-6.6,1-6.6,4.9c0,2.7,2.4,3.5,4.8,4c3,0.6,4.7,1.1,4.7,2.3c0,1.5-1.5,1.9-2.7,1.9
			c-1.6,0-3.2-0.8-3.2-2.5H46c0.1,4,3.6,5.3,7.1,5.3c3.4,0,6.9-1.3,6.9-5.3C60,93,57.6,92.1,55.2,91.6z M39.6,100.4
			c0,1.1-0.8,1.3-1.6,1.3c-0.4,0-0.7,0-0.9-0.1v3.4c0.4,0.1,0.9,0.1,1.3,0.1c4.2,0,5.3-1.5,5.3-4.6V85.2h-4.2V100.4z M77.3,93.1
			c0,4.8-3.1,8-7.8,8c-4.7,0-7.8-3.2-7.8-8c0-4.8,3.1-8,7.8-8C74.3,85.1,77.3,88.3,77.3,93.1z M73.2,93.1c0-2.4-0.8-4.9-3.7-4.9
			c-2.8,0-3.7,2.4-3.7,4.9c0,2.4,0.8,4.8,3.7,4.8C72.3,97.9,73.2,95.5,73.2,93.1z M87.6,85.1c-1.8,0-3.6,0.8-4.6,2.5h-0.1v-2.1h-3.9
			V101h4.2v-8.3c0-3.1,1-4.3,3.2-4.3c2,0,2.7,1.2,2.7,3.7v8.9h4.2v-9.6C93.1,87.6,92,85.1,87.6,85.1z M104,124H24V4h48h0v0l32,32V124z
			 M100,120V41H67V8L28,8v112H100z"></path>
</svg>