<svg width="64" height="64" version="1.1" xmlns="http://www.w3.org/2000/svg" xmlns:xlink="http://www.w3.org/1999/xlink" viewBox="0 0 64 64" aria-labelledby="title">
		<title>R Data</title>
		<path d="M53,27c0-11.6-9.4-21-21-21s-21,9.4-21,21c0,11.6,9.4,21,21,21l0,0v10l14.4-15.8l0,0C50.4,38.4,53,33,53,27z M14,27
	c0-9.9,8.1-18,18-18s18,8.1,18,18s-8.1,18-18,18S14,36.9,14,27z M33.8,29.6c0.1,0.8,0.1,1.8,0.4,2.4h2.2c-0.4-0.5-0.4-1.7-0.4-2.4
	c-0.1-1-0.4-2.1-1.5-2.4v0c1.1-0.5,1.6-1.3,1.6-2.5c0-1.5-1.1-2.8-2.9-2.8h-5.4V32h2.2v-3.9h2.2C33.2,28.1,33.6,28.6,33.8,29.6z
	 M29.9,23.7h2.4c1,0,1.5,0.4,1.5,1.4c0,1-0.5,1.4-1.5,1.4h-2.4V23.7z"></path>
</svg>