<svg width="128" height="128" version="1.1" xmlns="http://www.w3.org/2000/svg" xmlns:xlink="http://www.w3.org/1999/xlink" viewBox="0 0 128 128" aria-labelledby="title">
			<title>R Data</title>
			<path d="M107.8,55.8C107.8,31.6,88.2,12,64,12c-24.2,0-43.8,19.6-43.8,43.8c0,24.1,19.6,43.7,43.7,43.7l0,0V116l28.9-27.3l0,0
	C101.9,80.7,107.8,68.9,107.8,55.8z M24.2,55.8C24.2,33.8,42.1,16,64,16s39.8,17.8,39.8,39.8S85.9,95.5,64,95.5S24.2,77.7,24.2,55.8
	z M68.3,62c0.3,2,0.2,4.4,0.9,6h5.5c-1-1.4-0.9-4.3-1.1-5.9c-0.2-2.6-0.9-5.1-3.6-5.8v-0.1c2.8-1.1,4-3.3,4-6.3
	c0-3.8-2.8-6.9-7.3-6.9H53.2v25h5.5v-9.8h5.5C66.9,58.2,67.9,59.4,68.3,62z M58.7,47.3h6c2.5,0,3.8,1,3.8,3.5c0,2.5-1.3,3.6-3.8,3.6
	h-6V47.3z"></path>
</svg>