<svg width="32" height="32" version="1.1" xmlns="http://www.w3.org/2000/svg" xmlns:xlink="http://www.w3.org/1999/xlink" viewBox="0 0 32 32" aria-labelledby="title">
		<title>Rave Data</title>
		<path d="M27,14c0-6.1-4.9-11-11-11S5,7.9,5,14s4.9,11,11,11c0,0,0,0,0,0v4l7-6.5C25.4,20.5,27,17.4,27,14z M7,14c0-5,4-9,9-9
		s9,4,9,9c0,5-4,9-9,9S7,19,7,14z M9,16L9,16l0,1H8v-1v-4h1V16z M11,13h-1v1H9v-1h1v-1h1V13z M14,12v1h-2v-1H14z M14,13h1v4h-1h-2v-1
		h2V13z M11,15h1v1h-1V15z M14,15h-2v-1h2V15z M17,16h-1v-4h1V16z M17,16h1v1h-1V16z M18,12h1v4h-1V12z M21,17v-1h2.1v1H21z M21,15v1
		h-1v-1v-1v-1h1v1h2v-1h1v1v1H21z M23,13h-2v-1h2V13z"></path>
</svg>