<svg width="24" height="24" version="1.1" xmlns="http://www.w3.org/2000/svg" xmlns:xlink="http://www.w3.org/1999/xlink" viewBox="0 0 24 24" aria-labelledby="title">
		<title>Rave Data</title>
		<path d="M18.7,16c1.4-1.6,2.3-3.7,2.3-6c0-5-4-9-9-9s-9,4-9,9c0,5,4,9,9,9v4l6.3-6.6c0.1-0.1,0.1-0.1,0.2-0.2L18.7,16L18.7,16z
		 M4,10c0-4.4,3.6-8,8-8s8,3.6,8,8s-3.6,8-8,8S4,14.4,4,10z M5,8h1v5H5V8z M8,9H7v1H6V9h1V8h1V9z M9,8h2v1v4h-1H9v-1h1V9H9V8z M8,11
		h1v1H8V11z M10,11H9v-1h1V11z M13,12h-1V8h1V12z M13,12h1v1h-1V12z M15,12h-1V8h1V12z M17,12h-1v-1v-1V9h1v1h1v1h-1V12z M17,13v-1h2
		v1H17z M18,9h-1V8h1V9z M18,10V9h1v1H18z"></path>
</svg>