<svg width="128" height="128" version="1.1" xmlns="http://www.w3.org/2000/svg" xmlns:xlink="http://www.w3.org/1999/xlink" viewBox="0 0 128 128" aria-labelledby="title">
			<title>Rave Data</title>
			<path d="M108.8,55.8C108.8,31.6,89.2,12,65,12c-24.2,0-43.8,19.6-43.8,43.8c0,23.8,19.1,43.2,42.8,43.7l-0.1,0V116l24.9-23.6
	C100.8,84.6,108.8,71.1,108.8,55.8z M65,95.5c-21.9,0-39.8-17.8-39.8-39.8S43.1,16,65,16s39.8,17.8,39.8,39.8S86.9,95.5,65,95.5z
	 M46.6,47.9c0.3,0,0.6,0.1,0.9,0.1v3.8c-0.4-0.1-1-0.1-1.5-0.1c-3,0-4,2.1-4,4.8v6.7h-4.1V48.3h3.9v2.8h0.1
	C42.6,49.2,44.5,47.9,46.6,47.9z M62,52.2c0-3.6-3.6-4.2-6.5-4.2c-3.3,0-6.7,1.2-7,5h4.1c0.1-1.6,1.1-2.2,2.7-2.2
	c1.4,0,2.6,0.3,2.6,2c0.2,3.3-9.8-0.3-9.9,6.5c0,3,2.2,4.4,5,4.4c1.8,0,3.7-0.5,5-1.8c0,0.5,0.1,1,0.3,1.4h4.1
	c-0.4-0.6-0.5-1.9-0.5-3.3V52.2z M57.9,57.4c0,0.9-0.1,3.4-3.3,3.4c-1.3,0-2.5-0.4-2.5-1.9c0-1.5,1.1-1.9,2.4-2.2
	c1.3-0.2,2.7-0.3,3.4-0.9V57.4z M77.4,48.3l-5,14.8h-4.5l-5.1-14.8h4.3l3.1,10.1h0.1l3.1-10.1H77.4z M84.9,47.9
	c-4.5,0-7.6,3.4-7.6,7.8c0,4.6,2.9,7.8,7.6,7.8c3.4,0,5.8-1.5,6.9-5h-3.6c-0.3,0.9-1.6,1.9-3.2,1.9c-2.3,0-3.5-1.1-3.6-3.8h10.7
	C92.4,52.2,89.9,47.9,84.9,47.9z M81.4,54.2c0.1-1.1,0.7-3.2,3.4-3.2c2,0,2.9,1.1,3.2,3.2H81.4z"></path>
</svg>