<svg width="64" height="64" version="1.1" xmlns="http://www.w3.org/2000/svg" xmlns:xlink="http://www.w3.org/1999/xlink" viewBox="0 0 64 64" aria-labelledby="title">
		<title>Rave Data</title>
		<path d="M53,27c0-11.6-9.4-21-21-21s-21,9.4-21,21c0,11.6,9.4,21,21,21l0,0v10l14.4-15.8l0,0C50.4,38.4,53,33,53,27z M14,27
	c0-9.9,8.1-18,18-18s18,8.1,18,18s-8.1,18-18,18S14,36.9,14,27z M22.1,22.6c0.2,0,0.3,0,0.5,0.1v2.1c-0.2,0-0.5-0.1-0.8-0.1
	c-1.7,0-2.3,1.2-2.3,2.7v3.7h-2.3v-8.3h2.2v1.5h0C19.9,23.3,21,22.6,22.1,22.6z M30.5,25c0-2-2-2.4-3.6-2.4c-1.9,0-3.8,0.7-3.9,2.8
	h2.3c0.1-0.9,0.6-1.3,1.5-1.3c0.8,0,1.5,0.2,1.5,1.1c0.1,1.9-5.5-0.2-5.5,3.6c0,1.7,1.2,2.5,2.8,2.5c1,0,2.1-0.3,2.8-1
	c0,0.3,0.1,0.5,0.2,0.8h2.3c-0.2-0.3-0.3-1.1-0.3-1.8V25z M28.2,27.9c0,0.5-0.1,1.9-1.8,1.9c-0.7,0-1.4-0.2-1.4-1.1
	c0-0.8,0.6-1.1,1.4-1.2c0.7-0.1,1.5-0.1,1.9-0.5V27.9z M33.5,31.1l-2.8-8.3h2.4l1.8,5.7h0l1.8-5.7h2.3l-2.8,8.3H33.5z M42.7,31.4
	c1.9,0,3.2-0.8,3.9-2.8h-2c-0.1,0.5-0.9,1.1-1.8,1.1c-1.3,0-2-0.6-2-2.1h6c0.2-2.6-1.2-4.9-4-4.9c-2.5,0-4.2,1.9-4.2,4.4
	C38.5,29.6,40.1,31.4,42.7,31.4z M42.7,24.3c1.1,0,1.6,0.6,1.8,1.8h-3.7C40.8,25.5,41.2,24.3,42.7,24.3z"></path>
</svg>