<svg width="24" height="24" version="1.1" xmlns="http://www.w3.org/2000/svg" xmlns:xlink="http://www.w3.org/1999/xlink" viewBox="0 0 24 24" aria-labelledby="title">
		<title>Sql Data</title>
		<path d="M18.7,16c1.4-1.6,2.3-3.7,2.3-6c0-5-4-9-9-9s-9,4-9,9c0,5,4,9,9,9v4l6.3-6.6c0.1-0.1,0.1-0.1,0.2-0.2L18.7,16L18.7,16z
		 M4,10c0-4.4,3.6-8,8-8s8,3.6,8,8s-3.6,8-8,8S4,14.4,4,10z M5,8h1v1H5V8z M6,7h3v1H6V7z M6,10V9h2v1h1v1H8v1H5v-1h3v-1H6z M14,10v1
		h-1v-1H14z M13,9v1h-1V9H13z M14,11h1v1h-1V11z M14,10V8h1v2H14z M11,12v-1h2v1H11z M11,8v3h-1V8H11z M14,8h-3V7h3V8z M19,12h-3V7h1
		v4h2V12z"></path>
</svg>