<svg width="128" height="128" version="1.1" xmlns="http://www.w3.org/2000/svg" xmlns:xlink="http://www.w3.org/1999/xlink" viewBox="0 0 128 128" aria-labelledby="title">
			<title>Sql Data</title>
			<path d="M107.8,55.8C107.8,31.6,88.2,12,64,12c-24.2,0-43.8,19.6-43.8,43.8c0,24.1,19.6,43.7,43.7,43.7l0,0V116l28.9-27.3l0,0
	C101.9,80.7,107.8,68.9,107.8,55.8z M24.2,55.8C24.2,33.8,42.1,16,64,16s39.8,17.8,39.8,39.8S85.9,95.5,64,95.5S24.2,77.7,24.2,55.8
	z M50.2,60.5c0,2.3-0.9,4.2-2.7,5.7c-1.8,1.5-4.3,2.3-7.6,2.3c-3.3,0-5.9-0.3-7.8-1.8c-1.9-1.5-2.9-3.7-2.9-5.7h5
	c0.2,1,0.5,1.5,1,2.1c0.9,1,2.4,1.3,4.5,1.3c1.3,0,2.3-0.3,3.1-0.5c1.5-0.5,2.3-1.6,2.3-3c0-0.8-0.4-1.5-1.1-2
	c-0.7-0.4-1.9-0.9-3.5-1.2l-2.7-0.6c-2.7-0.6-4.5-1.2-5.5-1.9c-1.7-1.2-2.6-3-2.6-5.5c0-2.3,0.8-4.1,2.5-5.6
	c1.7-1.5,4.1-2.2,7.3-2.2c2.7,0,5,0.6,6.9,2.1c1.9,1.4,2.9,4.1,3,6.1h-5.1c-0.1-1-0.8-2.5-2-3.2c-0.8-0.4-1.9-0.6-3.1-0.6
	c-1.4,0-2.5,0.3-3.3,0.8s-1.2,1.3-1.2,2.3c0,0.9,0.4,1.6,1.2,2c0.5,0.3,1.6,0.6,3.4,1l4.4,1c1.9,0.5,3.4,1.1,4.4,1.8
	C49.4,56.5,50.2,58.2,50.2,60.5z M69.1,68c0.7-0.2,1.5-0.6,2.4-1.2l3,2.9l2.8-2.9l-2.9-2.7c0.9-1,1.5-2.2,2-3.6
	c0.5-1.5,0.8-3.4,0.8-5.7c0-4.3-1.3-7.6-3.8-9.9c-2.2-2-5-3.1-8.2-3.1c-3.2,0-6,1-8.1,2.9c-2.7,2.4-4,5.9-4,10.5
	c0,4.6,1.3,8.1,3.9,10.4c2.2,2,4.9,2.9,8.2,2.9C66.6,68.6,68,68.4,69.1,68z M60.9,62.6c-1.8-1.5-2.7-4-2.7-7.4c0-3,0.6-5.2,1.9-6.7
	c1.2-1.5,2.9-2.2,5-2.2c2.2,0,3.9,0.8,5.1,2.3c1.2,1.5,1.7,3.7,1.7,6.6c0,1.2-0.1,2.3-0.4,3.2c-0.2,0.6-0.4,1.3-0.8,2.2l-2.6-2.4
	L65.4,61l2.6,2.4c-0.5,0.2-0.9,0.4-1.2,0.4c-0.6,0.1-1.1,0.2-1.7,0.2C63.4,64.1,62,63.6,60.9,62.6z M99,68H81V43h6v20h12V68z"></path>
</svg>