<svg width="64" height="64" version="1.1" xmlns="http://www.w3.org/2000/svg" xmlns:xlink="http://www.w3.org/1999/xlink" viewBox="0 0 64 64" aria-labelledby="title">
		<title>Sql Data</title>
		<path d="M53,27c0-11.6-9.4-21-21-21s-21,9.4-21,21c0,11.6,9.4,21,21,21l0,0v10l14.4-15.8l0,0C50.4,38.4,53,33,53,27z M14,27
	c0-9.9,8.1-18,18-18s18,8.1,18,18s-8.1,18-18,18S14,36.9,14,27z M25.5,27c0.6,0.5,0.9,1.2,0.9,2.1c0,0.9-0.4,1.7-1.1,2.3
	c-0.7,0.6-1.7,0.9-3,0.9c-1.3,0-2.4-0.3-3.1-0.9c-0.8-0.6-1.1-1.4-1.1-2.5h2c0.1,0.5,0.2,0.8,0.4,1c0.3,0.4,0.9,0.6,1.8,0.6
	c0.5,0,0.9-0.1,1.2-0.2c0.6-0.2,0.9-0.6,0.9-1.2c0-0.3-0.1-0.6-0.4-0.8c-0.3-0.2-0.8-0.3-1.4-0.5l-1.1-0.2c-1.1-0.2-1.8-0.5-2.2-0.8
	c-0.7-0.5-1-1.2-1-2.2c0-0.9,0.3-1.7,1-2.2c0.7-0.6,1.6-0.9,2.9-0.9c1.1,0,2,0.3,2.8,0.8c0.8,0.6,1.2,1.4,1.2,2.5h-2
	c0-0.6-0.3-1-0.8-1.3c-0.3-0.2-0.8-0.3-1.3-0.3c-0.6,0-1,0.1-1.3,0.3s-0.5,0.5-0.5,0.9c0,0.4,0.2,0.6,0.5,0.8
	c0.2,0.1,0.7,0.3,1.3,0.4l1.8,0.4C24.6,26.4,25.1,26.7,25.5,27z M34,32.1c0.3-0.1,0.6-0.2,1-0.5l1.2,1.1l1.1-1.1l-1.2-1.1
	c0.3-0.4,0.6-0.9,0.8-1.4c0.2-0.6,0.3-1.4,0.3-2.3c0-1.7-0.5-3-1.5-4c-0.9-0.8-2-1.2-3.3-1.2c-1.3,0-2.4,0.4-3.2,1.2
	c-1.1,0.9-1.6,2.3-1.6,4.2c0,1.8,0.5,3.2,1.6,4.2c0.9,0.8,1.9,1.2,3.3,1.2C33,32.3,33.5,32.2,34,32.1z M30.7,29.9
	c-0.7-0.6-1.1-1.6-1.1-3c0-1.2,0.2-2.1,0.7-2.7s1.2-0.9,2-0.9c0.9,0,1.6,0.3,2,0.9c0.5,0.6,0.7,1.5,0.7,2.6c0,0.5-0.1,0.9-0.2,1.3
	c-0.1,0.2-0.2,0.5-0.3,0.9l-1-1l-1.1,1.1l1,1c-0.2,0.1-0.3,0.1-0.5,0.2c-0.2,0.1-0.5,0.1-0.7,0.1C31.7,30.5,31.2,30.3,30.7,29.9z
	 M45.9,32h-7.1V21.9h2.1v8.3h5V32z"></path>
</svg>