<svg width="32" height="32" version="1.1" xmlns="http://www.w3.org/2000/svg" xmlns:xlink="http://www.w3.org/1999/xlink" viewBox="0 0 32 32" aria-labelledby="title">
		<title>TSV File</title>
		<path d="M30,9L30,9L30,9L30,9z M27,9L27,9l0,22H5V1h14.1L27,9z M25,11h-8V3H7v26h18V11z M10.7,13.3v-0.9H9.9v0.9H10.7z M13.3,9h-0.9
	v0.9H9.9v0.9H9v1.7h0.9v-0.9h2.6v0.9h0.9v-0.9H15V9.9h-1.7V9z M12.5,14.1h-0.9V15h-0.9v1.7H9.9v-2.6H9v3.4h0.9v0.9h0.9v-0.9h0.9
	v-1.7h0.9v1.7h0.9V15h-0.9V14.1z M10.7,20.2H9.9V21H9v0.9h0.9v0.9h0.9v0.9h2.6v-1.7h-2.6V21h2.6v-1.7h-2.6V20.2z"></path>
</svg>