<svg width="24" height="24" version="1.1" xmlns="http://www.w3.org/2000/svg" xmlns:xlink="http://www.w3.org/1999/xlink" viewBox="0 0 24 24" aria-labelledby="title">
		<title>TSV File</title>
		<path d="M7.4,9.9V9.2h0.7v0.7H7.4z M10.3,6.3H9.6v0.7H7.4v0.7H6.7v1.4h0.7V8.5h2.1v0.7h0.7V8.5h1.4V7.1h-1.4V6.3z M9.6,10.6H8.8v0.7
	H8.1v1.4H7.4v-2.1H6.7v2.9h0.7v0.7h0.7v-0.7h0.7V12h0.7v1.4h0.7v-2.1H9.6V10.6z M8.1,15.5H7.4v0.7H6.7v0.7h0.7v0.7h0.7v0.7h2.1v-1.3
	H8.1l0-1h2.2v-1.3H8.1V15.5z M20,7v16H4V1h10L20,7z M19,9h-6c0,0,0-4.8,0-7H5v20h14V9z"></path>
</svg>