<svg width="128" height="128" version="1.1" xmlns="http://www.w3.org/2000/svg" xmlns:xlink="http://www.w3.org/1999/xlink" viewBox="0 0 128 128" aria-labelledby="title">
			<title>TSV File</title>
			<path d="M104,36v88H24V4h48L104,36z M100,41H67V8H28v112h72V41z M46,75h-6v6l-4,0l0,4h4v11.8c0,4.2,3.1,4.9,6.6,4.9
			c1.1,0,2.4,0,3.4-0.2v-4.4c0,0.1-1.2,0.2-1.8,0.2c-1.9,0-2.3-0.2-2.5-2.1l0-10.1H50v-4l-4,0V75z M52.7,86.8c0,3.7,3.2,4.7,6.6,5.5
			c4,0.8,6.4,1.4,6.4,3.1c0,2-2.1,2.5-3.7,2.5c-2.2,0-4.4-0.8-4.4-3.8h-5.4c0.2,6,4.9,7.6,9.7,7.6c4.7,0,9.4-1.4,9.4-6.8
			c0-3.8-3.2-5-6.6-5.8c-3.2-0.8-6.4-1-6.4-3.1c0-1.7,1.9-1.9,3.2-1.9c2,0,3.7,0.9,3.9,2.9h5.4c-0.4-5-4.6-6.7-9.1-6.7
			C57.3,80.3,52.7,81.5,52.7,86.8z M85,101l7-20h-5.6L82,95h-0.1l-4.4-14h-6l7.1,20H85z"></path>
</svg>