<svg width="64" height="64" version="1.1" xmlns="http://www.w3.org/2000/svg" xmlns:xlink="http://www.w3.org/1999/xlink" viewBox="0 0 64 64" aria-labelledby="title">
		<title>TSV File</title>
		<path d="M53,18L37,2H11v60h42L53,18L53,18z M50,59H14V5h20v16h16V59z M24.2,40.5h1.9v1.7h-1.9v4.7c0,0.9,0.2,1.1,1.1,1.1
	c0.3,0,0.6,0,0.8-0.1v2c-0.4,0.1-1,0.1-1.5,0.1c-1.6,0-3-0.3-3-2.2v-5.6H20v-1.7h1.6v-2.8h2.6V40.5z M31.3,40.2c2,0,4,0.7,4.2,3H33
	c-0.1-1-0.8-1.3-1.8-1.3c-0.6,0-1.4,0.1-1.4,0.9c0,0.9,1.5,1.1,2.9,1.4c1.5,0.3,3,0.9,3,2.6c0,2.5-2.2,3.3-4.3,3.3
	c-2.2,0-4.3-0.8-4.4-3.3h2.5c0,1.1,1,1.6,2,1.6c0.7,0,1.7-0.3,1.7-1.2c0-0.8-1.1-1.1-2.9-1.5c-1.5-0.3-3-0.8-3-2.5
	C27.2,40.8,29.3,40.2,31.3,40.2z M39,49.9l-3.2-9.4h2.7l2,6.4h0l2-6.4h2.6l-3.2,9.4H39z"></path>
</svg>