<svg width="128" height="128" version="1.1" xmlns="http://www.w3.org/2000/svg" xmlns:xlink="http://www.w3.org/1999/xlink" viewBox="0 0 128 128" aria-labelledby="title">
<title>XML File</title>
			<path d="M72,4L72,4L72,4L24,4v120h80V36L72,4z M100,120H28V8l39,0v33h33V120z M47.4,91.6l6.3,9.3h-5.3l-3.7-5.5l-3.7,5.5h-5.1
			l6.1-9.2l-6-8.3h5.6l3.2,4.6l3.4-4.6h5.4L47.4,91.6z M66.8,83c2.2,0,4.2,0.8,5.1,2.9c1.1-1.5,2.8-2.9,5.3-2.9c3.7,0,6.4,1.7,6.4,6.3
			V101h-4.8V91c0-2.3-0.2-4.3-2.9-4.3c-2.7,0-3.2,2.3-3.2,4.4v9.8h-4.8v-9.8c0-2,0.1-4.4-2.9-4.4c-0.9,0-3.3,0.6-3.3,4V101h-4.8V83.4
			h4.5v2.4h0.1C62.7,84,64.5,83,66.8,83z M92,101h-4V77h4V101z"></path>
</svg>