<svg width="24" height="24" version="1.1" xmlns="http://www.w3.org/2000/svg" xmlns:xlink="http://www.w3.org/1999/xlink" viewBox="0 0 24 24" aria-labelledby="title">
		<title>XML File</title>
		<path d="M20,7l-6-6H4v22h16L20,7L20,7z M19,22H5V2h8c0,2.2,0,7,0,7h6V22z M7,7V6h1v1H7z M10,10V9h1v1H10z M7,6H6V5h1V6z M10,8v1H9V8
	H10z M11,6h-1V5h1V6z M10,7H9V6h1V7z M7,10H6V9h1V10z M8,7h1v1H8V7z M8,9H7V8h1V9z M10,16H6v-1h4v-1H11v1h-1V16z M8,14v-1h2v1H8z
	 M10,12H6v-1h5v2h-1V12z M12,17h1v2H7v1H6v-3h1l0,1l5,0V17z"></path>
</svg>