<svg width="64" height="64" version="1.1" xmlns="http://www.w3.org/2000/svg" xmlns:xlink="http://www.w3.org/1999/xlink" viewBox="0 0 64 64" aria-labelledby="title">
		<title>XML File</title>
		<path d="M24.7,47.1l2.7,3.9h-2.3l-1.5-2.3L22.1,51h-2.2l2.6-3.8L20,43.7h2.3l1.3,1.9l1.3-1.9h2.2L24.7,47.1z M30.5,44.7L30.5,44.7
	l0-1h-1.9V51h2v-4.2c0-1.4,1-1.7,1.4-1.7c1.3,0,1.2,1,1.2,1.8V51h2v-4.1c0-0.9,0.2-1.8,1.3-1.8c1.1,0,1.2,0.8,1.2,1.8V51h2v-4.9
	c0-1.9-1.1-2.6-2.7-2.6c-1,0-1.8,0.6-2.2,1.2c-0.4-0.9-1.2-1.2-2.1-1.2C31.7,43.5,31,43.9,30.5,44.7z M43,41h-2v10h2V41z M53,18v44
	H11V2h25.9L53,18L53,18z M50,21H34V5H14v54h36V21z"></path>
</svg>