<svg width="32" height="32" version="1.1" xmlns="http://www.w3.org/2000/svg" xmlns:xlink="http://www.w3.org/1999/xlink" viewBox="0 0 32 32" aria-labelledby="title">
		<title>XML File</title>
		<path d="M27,9l-8-8H5v30h22L27,9L27,9L27,9z M25,29H7V3h10v8h8V29z M10,11H9v-1h1V11z M13,15v-1h1v1H13z M13,13v1h-1v-1H13z M14,11
	h-1v-1h1V11z M11,12h1v1h-1V12z M13,12h-1v-1h1V12z M10,12v-1h1v1H10z M11,14h-1v-1h1V14z M10,15H9v-1h1V15z M13,21H9v-1h4v-1H14v1
	h-1V21z M11,19v-1h2v1H11z M13,17H9v-1h5v2h-1V17z M15,22h1v2h-6v1H9v-3h1l0,1l5,0V22z"></path>
</svg>