<svg id="Layer_1" xmlns="http://www.w3.org/2000/svg" viewBox="-263.8 372.8 20 20"><style>.st0{fill:#5596e6}</style><path class="st0" d="M-253.8 374.1c4.8 0 8.6 3.9 8.6 8.6s-3.9 8.6-8.6 8.6-8.6-3.9-8.6-8.6 3.9-8.6 8.6-8.6m0-1.3c-5.5 0-10 4.5-10 10s4.5 10 10 10 10-4.5 10-10-4.4-10-10-10z"/><path class="st0" d="M-254.6 377.1c.2-.2.5-.4.9-.4s.6.1.9.4c.2.2.4.5.4.9 0 .3-.1.6-.4.9-.2.2-.5.4-.9.4-.3 0-.6-.1-.9-.4-.2-.2-.4-.5-.4-.9s.1-.7.4-.9zM-252.1 388.8h-3.4v-.4c.2 0 .4-.1.5-.2.1-.2.2-.4.2-.8v-5.2c0-.4-.1-.6-.1-.7s-.3-.2-.6-.3v-.4h2.7v6.7c0 .4.1.6.1.7.1.1.3.2.5.3l.1.3z"/></svg>