<svg style="position: absolute; width: 0; height: 0;" width="0" height="0" version="1.1" xmlns="http://www.w3.org/2000/svg" xmlns:xlink="http://www.w3.org/1999/xlink">
  <defs>
    <symbol id="icon-error_filled_24" viewBox="0 0 1024 1024">
      <title>Error</title>
      <path class="path1" d="M512 42.667c-260.267 0-469.333 209.067-469.333 469.333s209.067 469.333 469.333 469.333 469.333-209.067 469.333-469.333-209.067-469.333-469.333-469.333zM554.667 725.333h-85.333v-85.333h85.333v85.333zM554.667 426.667l-25.6 153.6h-34.133l-25.6-153.6v-170.667h85.333v170.667z"></path>
    </symbol>
    <symbol id="icon-info_filled_24" viewBox="0 0 1024 1024">
      <title>Information</title>
      <path class="path1" d="M512 42.667c-260.267 0-469.333 209.067-469.333 469.333s209.067 469.333 469.333 469.333 469.333-209.067 469.333-469.333-209.067-469.333-469.333-469.333zM482.133 311.467c8.533-8.533 17.067-12.8 29.867-12.8s21.333 4.267 29.867 12.8 12.8 17.067 12.8 29.867-4.267 21.333-12.8 29.867-17.067 12.8-29.867 12.8-21.333-4.267-29.867-12.8-12.8-17.067-12.8-29.867 4.267-21.333 12.8-29.867zM597.333 725.333h-170.667v-42.667h42.667v-170.667h-42.667v-42.667h128v213.333h42.667v42.667z"></path>
    </symbol>
    <symbol id="icon-success_filled_24" viewBox="0 0 1024 1024">
      <title>Success</title>
      <path class="path1" d="M512 42.667c-260.267 0-469.333 209.067-469.333 469.333s209.067 469.333 469.333 469.333 469.333-209.067 469.333-469.333-209.067-469.333-469.333-469.333zM426.667 699.733l-157.867-157.867 59.733-59.733 98.133 98.133 268.8-238.933 55.467 64-324.267 294.4z"></path>
    </symbol>
    <symbol id="icon-warning_filled_24" viewBox="0 0 1024 1024">
      <title>Warning</title>

      <path d="M42.667 938.667l469.333-810.667 469.333 810.667z"></path>
      <path class="text" d="M469.333 725.333h85.333v85.333h-85.333v-85.333z"></path>
      <path class="text" d="M469.333 469.333h85.333v170.667h-85.333v-170.667z"></path>
    </symbol>
  </defs>
</svg>