<svg id="Layer_1" data-name="Layer 1" xmlns="http://www.w3.org/2000/svg" viewBox="0 0 64 60"><defs><style>.cls-1{fill:#0072c3;}.cls-1,.cls-2{fill-rule:evenodd;}.cls-2{fill:#fff;}</style></defs><path class="cls-1" d="M33.07.29,57.2,14.21a2.17,2.17,0,0,1,1.07,1.86V43.93a2.17,2.17,0,0,1-1.07,1.86L33.07,59.71a2.1,2.1,0,0,1-2.14,0L6.8,45.79a2.17,2.17,0,0,1-1.07-1.86V16.07A2.17,2.17,0,0,1,6.8,14.21L30.93.29A2.1,2.1,0,0,1,33.07.29Z"/><g id="Page-1"><g id="Aggregate"><path id="Combined-Shape" class="cls-2" d="M28,42a2,2,0,0,1-2,2H18.24V42h7.84V31H18.24V29h7.84V18H18.24V16h7.84a2,2,0,0,1,2,2h0V29H42l-3.52-3.59L39.86,24l5.9,6-5.9,6-1.38-1.41L42,31H28Z"/></g></g></svg>