<svg id="Layer_1" data-name="Layer 1" xmlns="http://www.w3.org/2000/svg" viewBox="0 0 64 60"><defs><style>.cls-1{fill:#008985;}.cls-1,.cls-2{fill-rule:evenodd;}.cls-2,.cls-3{fill:#fff;}</style></defs><path class="cls-1" d="M33.18.73l26,18.86a2,2,0,0,1,.73,2.23L49.94,52.33A2,2,0,0,1,48,53.71H16a2,2,0,0,1-1.9-1.38L4.14,21.82a2,2,0,0,1,.73-2.23L30.82.73A2,2,0,0,1,33.18.73Z"/><path class="cls-2" d="M39.53,17.38l-4.62,9.24h9.24Zm0,4.47,1.38,2.77H38.15Z"/><path class="cls-2" d="M17.53,22.62v2a18,18,0,0,1,18,18h2A20,20,0,0,0,17.53,22.62Z"/><circle class="cls-3" cx="20.53" cy="30.62" r="2"/><circle class="cls-3" cx="27.53" cy="32.62" r="2"/><circle class="cls-3" cx="24.53" cy="38.62" r="2"/></svg>