<svg id="Layer_1" data-name="Layer 1" xmlns="http://www.w3.org/2000/svg" viewBox="0 0 64 60"><defs><style>.cls-1{fill:#008985;fill-rule:evenodd;}.cls-2{fill:none;stroke:#fff;stroke-miterlimit:10;stroke-width:2px;}.cls-3{fill:#fff;}</style></defs><path class="cls-1" d="M33.18.73l26,18.86a2,2,0,0,1,.73,2.23L49.94,52.33A2,2,0,0,1,48,53.71H16a2,2,0,0,1-1.9-1.38L4.14,21.82a2,2,0,0,1,.73-2.23L30.82.73A2,2,0,0,1,33.18.73Z"/><circle class="cls-2" cx="36.16" cy="33" r="10.5"/><path class="cls-3" d="M22,20V18H19V16H17v2H15v2h2v6a2,2,0,0,0,2,2h3V26H19V20Z"/><polyline class="cls-2" points="36.16 27.71 36.16 33.78 39.85 38.29"/></svg>