<svg id="Layer_1" data-name="Layer 1" xmlns="http://www.w3.org/2000/svg" viewBox="0 0 64 60"><defs><style>.cls-1{fill:#198038;}.cls-2{fill:#fff;}</style></defs><rect class="cls-1" x="8" y="5.7" width="48" height="48" rx="2"/><path class="cls-2" d="M20,42V16H18V42a2,2,0,0,0,2,2H46V42Z"/><path class="cls-2" d="M23,24H37a1,1,0,0,0,1-1V19a1,1,0,0,0-1-1H23a1,1,0,0,0-1,1v4A1,1,0,0,0,23,24Zm1-4H36v2H24Z"/><path class="cls-2" d="M23,40H36a1,1,0,0,0,1-1V35a1,1,0,0,0-1-1H23a1,1,0,0,0-1,1v4A1,1,0,0,0,23,40Zm1-4H35v2H24Z"/><path class="cls-2" d="M23,32H43a1,1,0,0,0,1-1V27a1,1,0,0,0-1-1H23a1,1,0,0,0-1,1v4A1,1,0,0,0,23,32Zm1-4H42v2H24Z"/></svg>