<svg id="Layer_1" data-name="Layer 1" xmlns="http://www.w3.org/2000/svg" viewBox="0 0 64 60"><defs><style>.cls-1{fill:#008985;fill-rule:evenodd;}.cls-2{fill:#fff;}</style></defs><path class="cls-1" d="M33.18.73l26,18.86a2,2,0,0,1,.73,2.23L49.94,52.33A2,2,0,0,1,48,53.71H16a2,2,0,0,1-1.9-1.38L4.14,21.82a2,2,0,0,1,.73-2.23L30.82.73A2,2,0,0,1,33.18.73Z"/><path class="cls-2" d="M31.89,28V26a4,4,0,0,1,0-8,2,2,0,0,1,0,4v2a4,4,0,0,0,0-8,6,6,0,0,0,0,12Z"/><path class="cls-2" d="M31.89,32v2a4,4,0,0,1,0,8,2,2,0,0,1,0-4V36a4,4,0,0,0,0,8,6,6,0,0,0,0-12Z"/><path class="cls-2" d="M39.89,24a6,6,0,0,0-6,6h2a4,4,0,0,1,8,0,2,2,0,0,1-4,0h-2a4,4,0,0,0,8,0A6,6,0,0,0,39.89,24Z"/><path class="cls-2" d="M29.89,30h-2a4,4,0,0,1-8,0,2,2,0,0,1,4,0h2a4,4,0,0,0-8,0,6,6,0,0,0,12,0Z"/></svg>