<svg id="Layer_1" data-name="Layer 1" xmlns="http://www.w3.org/2000/svg" viewBox="0 0 64 60"><defs><style>.cls-1{fill:#198038;}.cls-2{fill:#fff;}</style></defs><rect class="cls-1" x="8" y="5.7" width="48" height="48" rx="2"/><path class="cls-2" d="M21.67,39h2.66A1.84,1.84,0,0,0,26,37V19a1.84,1.84,0,0,0-1.67-2H21.67A1.84,1.84,0,0,0,20,19V37A1.84,1.84,0,0,0,21.67,39ZM22,19h2V37H22Z"/><path class="cls-2" d="M39.67,39h2.66A1.84,1.84,0,0,0,44,37V22a1.84,1.84,0,0,0-1.67-2H39.67A1.84,1.84,0,0,0,38,22V37A1.84,1.84,0,0,0,39.67,39ZM40,22h2V37H40Z"/><path class="cls-2" d="M30.67,39h2.66A1.84,1.84,0,0,0,35,37V28a1.84,1.84,0,0,0-1.67-2H30.67A1.84,1.84,0,0,0,29,28v9A1.84,1.84,0,0,0,30.67,39ZM31,28h2v9H31Z"/><rect class="cls-2" x="18" y="41" width="28" height="2"/></svg>