<svg id="Layer_1" data-name="Layer 1" xmlns="http://www.w3.org/2000/svg" viewBox="0 0 64 60"><defs><style>.cls-1{fill:#008985;fill-rule:evenodd;}.cls-2{fill:#fff;}</style></defs><path class="cls-1" d="M33.18.73l26,18.86a2,2,0,0,1,.73,2.23L49.94,52.33A2,2,0,0,1,48,53.71H16a2,2,0,0,1-1.9-1.38L4.14,21.82a2,2,0,0,1,.73-2.23L30.82.73A2,2,0,0,1,33.18.73Z"/><path class="cls-2" d="M23.69,38.5v-19h-2v19a2,2,0,0,0,2,2h19v-2Z"/><rect class="cls-2" x="24.21" y="28.5" width="16.97" height="2" transform="translate(-11.28 31.76) rotate(-45)"/></svg>