<svg id="Layer_1" data-name="Layer 1" xmlns="http://www.w3.org/2000/svg" viewBox="0 0 64 60"><defs><style>.cls-1{fill:#198038;}.cls-2{fill:#fff;}</style></defs><rect class="cls-1" x="8" y="5.7" width="48" height="48" rx="2"/><path class="cls-2" d="M44,19H38a2,2,0,0,0-2,2V39a2,2,0,0,0,2,2h6a2,2,0,0,0,2-2V21A2,2,0,0,0,44,19Zm0,20H38V21h6Z"/><path class="cls-2" d="M26,19H20a2,2,0,0,0-2,2V39a2,2,0,0,0,2,2h6a2,2,0,0,0,2-2V21A2,2,0,0,0,26,19Zm0,20H20V21h6Z"/><rect class="cls-2" x="31" y="18" width="2" height="24"/></svg>