<svg id="Layer_1" data-name="Layer 1" xmlns="http://www.w3.org/2000/svg" viewBox="0 0 64 60"><defs><style>.cls-1{fill:#198038;}.cls-2{fill:#fff;}</style></defs><rect class="cls-1" x="8" y="5.7" width="48" height="48" rx="2"/><path class="cls-2" d="M44,20.71a4,4,0,1,0-5.9,3.5l-.89,3.53-.21,0a4,4,0,0,0-2.66,1L30,26.12c0-.13,0-.27,0-.41A4,4,0,1,0,24,29.13l-.41,3.63a4,4,0,1,0,2,.26l.37-3.32H26A4,4,0,0,0,29.25,28l4,2.39a4,4,0,1,0,5.89-2.08L40,24.71A4,4,0,0,0,44,20.71Zm-20,18a2,2,0,1,1,2-2A2,2,0,0,1,24,38.71Zm2-11a2,2,0,1,1,2-2A2,2,0,0,1,26,27.71Zm11,6a2,2,0,1,1,2-2A2,2,0,0,1,37,33.71Zm3-15a2,2,0,1,1-2,2A2,2,0,0,1,40,18.71Z"/></svg>