<?xml version="1.0" encoding="utf-8"?>
<!-- Generator: Adobe Illustrator 19.1.0, SVG Export Plug-In . SVG Version: 6.00 Build 0)  -->
<svg version="1.1" id="Layer_1" xmlns="http://www.w3.org/2000/svg" xmlns:xlink="http://www.w3.org/1999/xlink" x="0px" y="0px"
	 viewBox="0 0 32 32" style="enable-background:new 0 0 32 32;" xml:space="preserve">
<g id="help__icon">
	<polygon points="17.3,14.7 13.4,14.7 13.4,16 14.7,16 14.7,19.9 13.4,19.9 13.4,21.1 18.6,21.1 18.6,19.9 17.3,19.9 	"/>
	<circle cx="16" cy="12.1" r="1.3"/>
	<path d="M16,7c-5,0-9,4-9,9s4,9,9,9s9-4,9-9S21,7,16,7z M16,23.7c-4.3,0-7.7-3.5-7.7-7.7s3.5-7.7,7.7-7.7s7.7,3.5,7.7,7.7
		S20.3,23.7,16,23.7z"/>
</g>
</svg>
