<?xml version="1.0" encoding="utf-8"?>
<!-- Generator: Adobe Illustrator 23.1.1, SVG Export Plug-In . SVG Version: 6.00 Build 0)  -->
<svg version="1.1" id="Layer_1" xmlns="http://www.w3.org/2000/svg" xmlns:xlink="http://www.w3.org/1999/xlink" x="0px" y="0px"
	 width="64px" height="60px" viewBox="0 0 64 60" style="enable-background:new 0 0 64 60;" xml:space="preserve">
<style type="text/css">
	.st0{fill-rule:evenodd;clip-rule:evenodd;fill:#054ADA;}
	.st1{fill-rule:evenodd;clip-rule:evenodd;fill:#FFFFFF;}
	.st2{fill:#412356;}
	.st3{fill-rule:evenodd;clip-rule:evenodd;fill:#8C7300;}
	.st4{fill-rule:evenodd;clip-rule:evenodd;fill:#198038;}
	.st5{fill:#FFFFFF;}
	.st6{fill:#012E0E;}
	.st7{clip-path:url(#SVGID_2_);}
	.st8{clip-path:url(#SVGID_4_);fill:#FFFFFF;}
	.st9{fill:none;stroke:#FFFFFF;stroke-width:2;stroke-miterlimit:10;}
	.st10{clip-path:url(#SVGID_6_);}
	.st11{clip-path:url(#SVGID_8_);fill:#FFFFFF;}
	.st12{fill-rule:evenodd;clip-rule:evenodd;fill:#F1F1F2;}
	.st13{fill:none;stroke:#F1F1F2;stroke-width:2;}
	.st14{fill:#F1F1F2;}
	.st15{fill:none;stroke:#F1F1F2;stroke-width:2;stroke-linecap:square;}
	.st16{fill:none;stroke:#FFFFFF;stroke-width:2;stroke-linecap:square;}
</style>
<path class="st3" d="M33.2,58.3l26-18.9c0.7-0.5,1-1.4,0.7-2.2L49.9,6.7c-0.3-0.8-1-1.4-1.9-1.4H16c-0.9,0-1.6,0.6-1.9,1.4L4.1,37.2
	c-0.3,0.8,0,1.7,0.7,2.2l26,18.9C31.5,58.8,32.5,58.8,33.2,58.3z"/>
<g>
	<defs>
		<path id="SVGID_5_" d="M44.3,31.9c-1,0-1.9-0.8-1.9-1.9s0.8-1.9,1.9-1.9c1,0,1.9,0.8,1.9,1.9C46.2,31,45.3,31.9,44.3,31.9z
			 M33.1,31.9c-1,0-1.9-0.8-1.9-1.9s0.8-1.9,1.9-1.9S35,29,35,30C35,31,34.1,31.9,33.1,31.9z M25.6,41.2c-1,0-1.9-0.8-1.9-1.9
			c0-1,0.8-1.9,1.9-1.9s1.9,0.8,1.9,1.9C27.5,40.4,26.7,41.2,25.6,41.2z M23.8,20.7c0-1,0.8-1.9,1.9-1.9s1.9,0.8,1.9,1.9
			s-0.8,1.9-1.9,1.9C24.6,22.5,23.8,21.7,23.8,20.7z M44.3,26.3c-1.7,0-3.2,1.2-3.6,2.8h-4c-0.3-1.1-1-2-2-2.4c-1-0.5-2.1-0.5-3.1,0
			l-3-3.7c0.5-0.6,0.8-1.4,0.8-2.2c0-2.1-1.7-3.7-3.7-3.7s-3.7,1.7-3.7,3.7s1.7,3.7,3.7,3.7c0.5,0,1-0.1,1.5-0.3l3,3.7
			c-1,1.3-1,3.1,0,4.5l-3,3.7c-0.5-0.2-1-0.3-1.5-0.3c-2.1,0-3.7,1.7-3.7,3.7c0,2.1,1.7,3.7,3.7,3.7s3.7-1.7,3.7-3.7
			c0-0.8-0.3-1.6-0.8-2.2l3-3.7c1,0.5,2.2,0.4,3.1,0s1.7-1.4,2-2.4h4c0.5,1.9,2.3,3.1,4.2,2.7c1.9-0.3,3.2-2.1,3.1-4
			C47.8,27.7,46.2,26.3,44.3,26.3z M21.9,31.9c1,0,1.9-0.8,1.9-1.9s-0.8-1.9-1.9-1.9S20,29,20,30S20.9,31.9,21.9,31.9z M37.8,22.5
			c1,0,1.9-0.8,1.9-1.9s-0.8-1.9-1.9-1.9c-1,0-1.9,0.8-1.9,1.9S36.7,22.5,37.8,22.5z M37.8,41.2c1,0,1.9-0.8,1.9-1.9
			c0-1-0.8-1.9-1.9-1.9c-1,0-1.9,0.8-1.9,1.9C35.9,40.4,36.7,41.2,37.8,41.2z"/>
	</defs>
	<use xlink:href="#SVGID_5_"  style="overflow:visible;fill-rule:evenodd;clip-rule:evenodd;fill:#FFFFFF;"/>
	<clipPath id="SVGID_2_">
		<use xlink:href="#SVGID_5_"  style="overflow:visible;"/>
	</clipPath>
	<g class="st7">
		<defs>
			<rect id="SVGID_7_" x="18.2" y="15.1" width="29.9" height="29.9"/>
		</defs>
		<use xlink:href="#SVGID_7_"  style="overflow:visible;fill:#FFFFFF;"/>
		<clipPath id="SVGID_4_">
			<use xlink:href="#SVGID_7_"  style="overflow:visible;"/>
		</clipPath>
		<rect x="10.7" y="7.6" class="st8" width="46.7" height="44.8"/>
	</g>
</g>
</svg>
