<?xml version="1.0" encoding="utf-8"?>
<!-- Generator: Adobe Illustrator 23.1.1, SVG Export Plug-In . SVG Version: 6.00 Build 0)  -->
<svg version="1.1" id="Layer_1" xmlns="http://www.w3.org/2000/svg" xmlns:xlink="http://www.w3.org/1999/xlink" x="0px" y="0px"
	 width="64px" height="60px" viewBox="0 0 64 60" style="enable-background:new 0 0 64 60;" xml:space="preserve">
<style type="text/css">
	.st0{fill-rule:evenodd;clip-rule:evenodd;fill:#054ADA;}
	.st1{fill-rule:evenodd;clip-rule:evenodd;fill:#FFFFFF;}
	.st2{fill:#412356;}
	.st3{fill-rule:evenodd;clip-rule:evenodd;fill:#8C7300;}
	.st4{fill-rule:evenodd;clip-rule:evenodd;fill:#198038;}
	.st5{fill:#FFFFFF;}
	.st6{fill:#012E0E;}
	.st7{clip-path:url(#SVGID_2_);}
	.st8{clip-path:url(#SVGID_4_);fill:#FFFFFF;}
	.st9{fill:none;stroke:#FFFFFF;stroke-width:2;stroke-miterlimit:10;}
	.st10{clip-path:url(#SVGID_6_);}
	.st11{clip-path:url(#SVGID_8_);fill:#FFFFFF;}
	.st12{fill-rule:evenodd;clip-rule:evenodd;fill:#F1F1F2;}
	.st13{fill:none;stroke:#F1F1F2;stroke-width:2;}
	.st14{fill:#F1F1F2;}
	.st15{fill:none;stroke:#F1F1F2;stroke-width:2;stroke-linecap:square;}
	.st16{fill:none;stroke:#FFFFFF;stroke-width:2;stroke-linecap:square;}
</style>
<path class="st3" d="M33.2,58.3l26-18.9c0.7-0.5,1-1.4,0.7-2.2L49.9,6.7c-0.3-0.8-1-1.4-1.9-1.4H16c-0.9,0-1.6,0.6-1.9,1.4L4.1,37.2
	c-0.3,0.8,0,1.7,0.7,2.2l26,18.9C31.5,58.8,32.5,58.8,33.2,58.3z"/>
<g>
	<path class="st5" d="M38.5,38.2c-0.3,0-0.6,0.1-0.8,0.2l-3.8-3.8C34,34.3,34,34,34,33.7c0-1.4-1.1-2.5-2.5-2.5
		c-1.4,0-2.5,1.1-2.5,2.5c0,0.3,0.1,0.6,0.2,0.9l-3.7,3.7l0,0c-0.3-0.1-0.6-0.2-1-0.2c-1.4,0-2.5,1.1-2.5,2.5c0,1.4,1.1,2.5,2.5,2.5
		s2.5-1.1,2.5-2.5c0-0.3-0.1-0.7-0.2-1l0.1,0.1l3.7-3.7c0.3,0.1,0.6,0.2,0.9,0.2c0.3,0,0.7-0.1,1-0.2l3.7,3.7
		c-0.1,0.3-0.2,0.6-0.2,1c0,1.4,1.1,2.5,2.5,2.5s2.5-1.1,2.5-2.5C41,39.3,39.9,38.2,38.5,38.2z"/>
	<g>
		<path class="st5" d="M41.6,20.4v-2.9c0-0.8-0.6-1.4-1.4-1.4h-4.3v10h1.4v-4.3h1.1l1.7,4.3h1.5l-1.7-4.3h0.3
			C41,21.8,41.6,21.1,41.6,20.4z M37.4,20.4v-2.9h2.9v2.9H37.4z"/>
		<path class="st5" d="M23.1,17.5h4.3v-1.4h-4.3c-0.8,0-1.4,0.6-1.4,1.4v7.1c0,0.8,0.6,1.4,1.4,1.4h4.3v-1.4h-4.3V17.5z"/>
		<polygon class="st5" points="31.6,17.5 30.2,17.5 30.2,20.4 27.4,20.4 27.4,21.8 30.2,21.8 30.2,24.6 31.6,24.6 31.6,21.8 
			34.5,21.8 34.5,20.4 31.6,20.4 		"/>
	</g>
</g>
</svg>
