<?xml version="1.0" encoding="utf-8"?>
<!-- Generator: Adobe Illustrator 19.2.0, SVG Export Plug-In . SVG Version: 6.00 Build 0)  -->
<svg version="1.1" id="info" xmlns="http://www.w3.org/2000/svg" xmlns:xlink="http://www.w3.org/1999/xlink" x="0px" y="0px"
	 viewBox="0 0 24 24" style="enable-background:new 0 0 24 24;" xml:space="preserve">
<style type="text/css">
	.st0{fill:#010101;}
</style>
<path class="st0" d="M12,1C5.9,1,1,5.9,1,12s4.9,11,11,11s11-4.9,11-11S18.1,1,12,1z M11.3,7.3C11.5,7.1,11.7,7,12,7
	s0.5,0.1,0.7,0.3S13,7.7,13,8s-0.1,0.5-0.3,0.7S12.3,9,12,9s-0.5-0.1-0.7-0.3S11,8.3,11,8S11.1,7.5,11.3,7.3z M14,17h-1h-2h-1v-1h1
	v-4h-1v-1h1h1h1v5h1V17z"/>
</svg>
