<svg id="Layer_1" data-name="Layer 1" xmlns="http://www.w3.org/2000/svg" viewBox="0 0 22 22"><defs><style>.cls-1{fill:#949394;}</style></defs><title>models_open</title><path class="cls-1" d="M17.11,13.29a3.85,3.85,0,0,0-3.77,3.08H8.58A3.82,3.82,0,0,0,8,15l7-7a3.84,3.84,0,1,0-1.65-4H8.58a3.85,3.85,0,1,0,0,1.54h4.77a3.82,3.82,0,0,0,.56,1.35l-7,7a3.84,3.84,0,1,0,1.65,4h4.77a3.85,3.85,0,1,0,3.77-4.62Zm0-10.77a2.31,2.31,0,1,1-2.31,2.31A2.31,2.31,0,0,1,17.11,2.52ZM4.81,7.14A2.31,2.31,0,1,1,7.11,4.83,2.31,2.31,0,0,1,4.81,7.14Zm0,12.31a2.31,2.31,0,1,1,2.31-2.31A2.31,2.31,0,0,1,4.81,19.45Z"/></svg>