<svg id="Layer_1" data-name="Layer 1" xmlns="http://www.w3.org/2000/svg" viewBox="0 0 22 22"><defs><style>.cls-1{fill:#949394;}</style></defs><title>operations_open</title><path class="cls-1" d="M18.7,11a7.65,7.65,0,0,0-.1-1.2L21,7.69,19,4.3l-2.91.95a7.65,7.65,0,0,0-2.38-1.41L13,1H9L8.39,3.84A7.65,7.65,0,0,0,6,5.25L3.1,4.3,1,7.69,3.47,9.83a7.68,7.68,0,0,0-.1,1.2,7.68,7.68,0,0,0,.1,1.2L1,14.36l2.07,3.4L6,16.81a7.65,7.65,0,0,0,2.38,1.41L9,21h4l.64-2.81a7.65,7.65,0,0,0,2.38-1.41l2.91.95L21,14.36,18.6,12.23A7.66,7.66,0,0,0,18.7,11Zm.06,3.36-.88,1.44-1.78-.58L15.44,15l-.53.46a5.88,5.88,0,0,1-1.83,1.08l-.63.23-.15.66-.38,1.66H10.16l-.38-1.66-.15-.66L9,16.57a5.88,5.88,0,0,1-1.83-1.08L6.63,15,6,15.24l-1.78.58-.87-1.44,1.49-1.3.52-.45L5.2,12a5.34,5.34,0,0,1,0-1.85l.11-.68L4.79,9,3.31,7.67l.87-1.44L6,6.81,6.63,7l.53-.46A5.87,5.87,0,0,1,9,5.48l.63-.23.15-.66.38-1.66h1.75l.38,1.66.15.66.63.23a5.88,5.88,0,0,1,1.83,1.08l.53.46.67-.22,1.78-.58.87,1.44L17.27,9l-.52.45.11.68a5.31,5.31,0,0,1,0,1.85l-.11.68.52.45Z"/><path class="cls-1" d="M11,7.39A3.64,3.64,0,1,0,14.67,11,3.64,3.64,0,0,0,11,7.39Zm0,5.45A1.82,1.82,0,1,1,12.85,11,1.82,1.82,0,0,1,11,12.85Z"/></svg>