<svg width="128" height="128" xmlns="http://www.w3.org/2000/svg" viewBox="0 0 128 128"><title>Data Set</title><path d="M51 34V22H4v86h120V34H51zm69 70H8V45h112v59zM30 92h-7V57h7v35zm44 0h-7V57h7v35zm-25.8-.1c6.7 0 12.3-4.2 12.3-17.5 0-13.1-5.6-17.3-12.3-17.3-6.6 0-12.2 4.2-12.2 17.3 0 13.3 5.6 17.5 12.2 17.5zm0-29.2c5.5 0 5.5 8.2 5.5 11.7 0 3.8 0 12-5.5 12-5.4 0-5.4-8.2-5.4-12 0-3.5-.1-11.7 5.4-11.7zm44.5 29.2c6.7 0 12.3-4.2 12.3-17.5 0-13.1-5.6-17.3-12.3-17.3-6.6 0-12.2 4.2-12.2 17.3 0 13.3 5.6 17.5 12.2 17.5zm0-29.2c5.5 0 5.5 8.2 5.5 11.7 0 3.8 0 12-5.5 12-5.4 0-5.4-8.2-5.4-12 0-3.5-.1-11.7 5.4-11.7z"/></svg>