<svg width="64" height="64" xmlns="http://www.w3.org/2000/svg" viewBox="0 0 64 64"><title>Data</title><path d="M2 19h5v27H2V19zm18.6.1c5.1 0 9.3 3.3 9.3 13.4 0 10.3-4.3 13.6-9.3 13.6-5 0-9.2-3.3-9.2-13.6 0-10.2 4.2-13.4 9.2-13.4zm0 22.6c4.2 0 4.2-6.3 4.2-9.3 0-2.7 0-9-4.2-9-4.1 0-4.1 6.3-4.1 9 0 2.9 0 9.3 4.1 9.3zm32.1-22.6c5.1 0 9.3 3.3 9.3 13.4C62 42.8 57.7 46 52.7 46c-5 0-9.2-3.3-9.2-13.6 0-10.1 4.2-13.3 9.2-13.3zm0 22.6c4.2 0 4.2-6.3 4.2-9.3 0-2.7 0-9-4.2-9-4.1 0-4.1 6.3-4.1 9 0 2.9 0 9.3 4.1 9.3zM34 19h5v27h-5V19z"/></svg>