<svg width="32" height="32" xmlns="http://www.w3.org/2000/svg" viewBox="0 0 32 32"><title>Data Set</title><path d="M13 8V5H1v21h30V8H13zm16 16H3V11h26v13zM8.8 21H7.5v-7.5h1.3V21zm9.7 0h-1.3v-7.5h1.3V21zM13 21c1.4 0 2.7-.9 2.7-3.8 0-2.8-1.2-3.7-2.7-3.7-1.4 0-2.6.9-2.6 3.7-.1 2.9 1.2 3.8 2.6 3.8zm0-6.3c1.2 0 1.2 1.8 1.2 2.5 0 .8 0 2.6-1.2 2.6s-1.2-1.8-1.2-2.6c0-.7 0-2.5 1.2-2.5zm9.7 6.3c1.4 0 2.7-.9 2.7-3.8 0-2.8-1.2-3.7-2.7-3.7-1.4 0-2.6.9-2.6 3.7-.1 2.9 1.1 3.8 2.6 3.8zm0-6.3c1.2 0 1.2 1.8 1.2 2.5 0 .8 0 2.6-1.2 2.6s-1.2-1.8-1.2-2.6c0-.7 0-2.5 1.2-2.5z"/></svg>