<svg width="128" height="128" xmlns="http://www.w3.org/2000/svg" viewBox="0 0 128 128"><title>Data</title><path d="M4 37h10v54H4V37zm65 0h10v54H69V37zm-27.6.1c10.1 0 18.6 6.5 18.6 26.7C60 84.5 51.5 91 41.4 91c-10 0-18.5-6.5-18.5-27.2 0-20.2 8.5-26.7 18.5-26.7zm0 45.3c8.4 0 8.4-12.7 8.4-18.5 0-5.4 0-18.1-8.4-18.1-8.3 0-8.2 12.7-8.2 18.1 0 5.8 0 18.5 8.2 18.5zm64-45.3c10.1 0 18.6 6.5 18.6 26.7 0 20.7-8.5 27.2-18.6 27.2-10 0-18.5-6.5-18.5-27.2 0-20.2 8.5-26.7 18.5-26.7zm0 45.3c8.4 0 8.4-12.7 8.4-18.5 0-5.4 0-18.1-8.4-18.1-8.3 0-8.2 12.7-8.2 18.1 0 5.8 0 18.5 8.2 18.5z"/></svg>