<svg width="64" height="64" xmlns="http://www.w3.org/2000/svg" viewBox="0 0 64 64"><title>Data Set</title><path d="M25 17v-6H2v42h60V17H25zm34 33H5V23h54v27zm-43-5h-3V28h3v17zm21 0h-3V28h3v17zm-12 0c3.3 0 6-2.1 6-8.6 0-6.4-2.8-8.5-6-8.5s-6 2.1-6 8.5c0 6.6 2.7 8.6 6 8.6zm0-14.3c2.7 0 2.7 4 2.7 5.7 0 1.8 0 5.9-2.7 5.9s-2.7-4-2.7-5.9c0-1.7 0-5.7 2.7-5.7zM46 45c3.3 0 6-2.1 6-8.6 0-6.4-2.8-8.4-6-8.4s-6 2.1-6 8.4c0 6.5 2.8 8.6 6 8.6zm0-14.3c2.7 0 2.7 4 2.7 5.7 0 1.8 0 5.8-2.7 5.8s-2.7-4-2.7-5.8c.1-1.7 0-5.7 2.7-5.7z"/></svg>