<svg width="128" height="128" xmlns="http://www.w3.org/2000/svg" viewBox="0 0 128 128"><title>Structured Data</title><path d="M101 84.1V43.9c8.1-.8 14.5-7.6 14.5-15.9 0-8.8-7.2-16-16-16-8.2 0-14.9 6.1-15.9 14H43.9c-1-7.9-7.7-14-15.9-14-8.8 0-16 7.2-16 16 0 8.2 6.1 14.9 14 15.9v40.3c-7.9 1-14 7.7-14 15.9 0 8.8 7.2 16 16 16 8.2 0 14.9-6.1 15.9-14h39.8c1 7.9 7.7 14 15.9 14 8.8 0 16-7.2 16-16-.1-8.4-6.5-15.3-14.6-16zm-60.6 5.8l13.7-13.3c2.7 2.2 6.2 3.4 9.9 3.4s7.1-1.3 9.8-3.4l13.3 13.3C85.2 92.2 84 95 83.6 98H43.9c-.4-3-1.6-5.8-3.5-8.1zm-2.6-49.3l13.6 13.6C49.3 56.9 48 60.3 48 64c0 3.7 1.2 7 3.3 9.7L37.5 87.1c-2.2-1.6-4.7-2.7-7.5-3V43.9c2.9-.4 5.6-1.6 7.8-3.3zm49.6-2.1L74 51.5c-2.7-2.2-6.2-3.5-10-3.5-3.7 0-7.1 1.3-9.8 3.3L40.7 37.8c1.7-2.2 2.8-4.9 3.2-7.8h39.8c.3 3.2 1.7 6.2 3.7 8.5zM90 87.1L76.7 73.8c2.1-2.7 3.3-6.1 3.3-9.8 0-3.6-1.2-6.9-3.2-9.6l13.6-13.3c1.9 1.3 4.2 2.2 6.6 2.6v40.4c-2.6.5-5 1.5-7 3zM99.5 16c6.6 0 12 5.4 12 12s-5.4 12-12 12-12-5.4-12-12 5.4-12 12-12zM16 28c0-6.6 5.4-12 12-12s12 5.4 12 12-5.4 12-12 12-12-5.4-12-12zm12 84c-6.6 0-12-5.4-12-12s5.4-12 12-12 12 5.4 12 12-5.4 12-12 12zm71.5 0c-6.6 0-12-5.4-12-12s5.4-12 12-12 12 5.4 12 12-5.4 12-12 12z"/></svg>