<svg width="16" height="16" xmlns="http://www.w3.org/2000/svg" viewBox="0 0 16 16"><title>Structured Data</title><path d="M14 11.3V4.7c.6-.3 1-1 1-1.7 0-1.1-.9-2-2-2-.7 0-1.4.4-1.7 1H4.7c-.3-.6-1-1-1.7-1-1.1 0-2 .9-2 2 0 .7.4 1.4 1 1.7v6.6c-.6.3-1 1-1 1.7 0 1.1.9 2 2 2 .7 0 1.4-.4 1.7-1h6.6c.3.6 1 1 1.7 1 1.1 0 2-.9 2-2 0-.7-.4-1.4-1-1.7zm-1-.3c-.4 0-.7.1-1 .3L9.7 9c.2-.3.3-.6.3-1s-.1-.7-.3-1L12 4.7c.3.2.6.3 1 .3v6zm0-9c.6 0 1 .4 1 1s-.4 1-1 1-1-.4-1-1 .4-1 1-1zm-2 1c0 .4.1.7.3 1L9 6.3c-.3-.2-.6-.3-1-.3s-.7.1-1 .3L4.7 4c.2-.3.3-.6.3-1h6zM3 2c.6 0 1 .4 1 1s-.4 1-1 1-1-.4-1-1 .4-1 1-1zm0 3c.4 0 .7-.1 1-.3L6.3 7c-.2.3-.3.6-.3 1s.1.7.3 1L4 11.3c-.3-.2-.6-.3-1-.3V5zm0 9c-.6 0-1-.4-1-1s.4-1 1-1 1 .4 1 1-.4 1-1 1zm2-1c0-.4-.1-.7-.3-1L7 9.7c.3.2.6.3 1 .3s.7-.1 1-.3l2.3 2.3c-.2.3-.3.6-.3 1H5zm8 1c-.6 0-1-.4-1-1s.4-1 1-1 1 .4 1 1-.4 1-1 1z"/></svg>