<svg width="24" height="24" xmlns="http://www.w3.org/2000/svg" viewBox="0 0 24 24"><title>Structured Data</title><path d="M20 17V7c1.4-.2 3-1.5 3-3 0-1.7-1.3-3-3-3-1.5 0-2.7 1.6-2.9 3H7c-.2-1.4-1.5-3-3-3-1.7 0-3 1.3-3 3 0 1.5 1.6 2.8 3 3v10.1c-1.4.2-3 1.4-3 2.9 0 1.7 1.3 3 3 3 1.5 0 2.7-1.6 2.9-3H17c.2 1.4 1.5 3 3 3 1.7 0 3-1.3 3-3 0-1.5-1.6-2.7-3-3zm0-15c1.1 0 2 .9 2 2s-.9 2-2 2-2-.9-2-2 .9-2 2-2zm-5.5 8.3l3.8-3.8c.3.2.3.4.7.5v10c-.5.1-.4.3-.8.5l-3.8-3.8c.3-.5.6-1.1.6-1.7 0-.6-.2-1.2-.5-1.7zM7 5h10.1c.1.5.2.4.5.8l-3.8 3.8c-.5-.4-1.1-.6-1.8-.6-.6 0-1.2.2-1.7.6L6.5 5.8c.2-.4.4-.3.5-.8zm2.6 8.8l-3.8 3.8c-.4-.3-.3-.4-.8-.5V7c.5-.1.4-.3.8-.5l3.8 3.8c-.4.4-.6 1-.6 1.7s.2 1.3.6 1.8zM2 4c0-1.1.9-2 2-2s2 .9 2 2-.9 2-2 2-2-.9-2-2zm2 18c-1.1 0-2-.9-2-2s.9-2 2-2 2 .9 2 2-.9 2-2 2zm13-3H6.9c-.1-.4-.2-.4-.4-.7l3.8-3.8c.5.3 1.1.5 1.7.5.7 0 1.3-.2 1.7-.6l3.8 3.8c-.2.4-.4.3-.5.8zm3 3c-1.1 0-2-.9-2-2s.9-2 2-2 2 .9 2 2-.9 2-2 2z"/></svg>