<svg width="16" height="16" xmlns="http://www.w3.org/2000/svg" viewBox="0 0 16 16"><title>Unstructured Data</title><path d="M3 1c-1.1 0-2 .9-2 2s.9 2 2 2 2-.9 2-2-.9-2-2-2zm0 3c-.6 0-1-.4-1-1s.4-1 1-1 1 .4 1 1-.4 1-1 1zm7 4c0 1.1-.9 2-2 2s-2-.9-2-2 .9-2 2-2 2 .9 2 2zm3-3c1.1 0 2-.9 2-2s-.9-2-2-2-2 .9-2 2 .9 2 2 2zm0-3c.6 0 1 .4 1 1s-.4 1-1 1-1-.4-1-1 .4-1 1-1zM3 11c-1.1 0-2 .9-2 2s.9 2 2 2 2-.9 2-2-.9-2-2-2zm0 3c-.6 0-1-.4-1-1s.4-1 1-1 1 .4 1 1-.4 1-1 1zm10-3c-1.1 0-2 .9-2 2s.9 2 2 2 2-.9 2-2-.9-2-2-2zm0 3c-.6 0-1-.4-1-1s.4-1 1-1 1 .4 1 1-.4 1-1 1z"/></svg>