<svg width="64" height="64" xmlns="http://www.w3.org/2000/svg" viewBox="0 0 64 64"><title>Unstructured Data</title><path d="M14 6c-4.4 0-8 3.6-8 8s3.6 8 8 8 8-3.6 8-8-3.6-8-8-8zm0 13c-2.6 0-5-2.4-5-5s2.4-5 5-5 5 2.4 5 5-2.4 5-5 5zm26 13c0 4.4-3.6 8-8 8s-8-3.6-8-8 3.6-8 8-8 8 3.6 8 8zM14 42c-4.4 0-8 3.6-8 8s3.6 8 8 8 8-3.6 8-8-3.6-8-8-8zm0 13c-2.6 0-5-2.4-5-5s2.4-5 5-5 5 2.4 5 5-2.4 5-5 5zm36-33c4.4 0 8-3.6 8-8s-3.6-8-8-8-8 3.6-8 8 3.6 8 8 8zm0-13c2.6 0 5 2.4 5 5s-2.4 5-5 5-5-2.4-5-5 2.4-5 5-5zm0 33c-4.4 0-8 3.6-8 8s3.6 8 8 8 8-3.6 8-8-3.6-8-8-8zm0 13c-2.6 0-5-2.4-5-5s2.4-5 5-5 5 2.4 5 5-2.4 5-5 5z"/></svg>