<?xml version="1.0" encoding="utf-8"?>
<!-- Generator: Adobe Illustrator 19.1.0, SVG Export Plug-In . SVG Version: 6.00 Build 0)  -->
<svg version="1.1" id="Layer_1" xmlns="http://www.w3.org/2000/svg" xmlns:xlink="http://www.w3.org/1999/xlink" x="0px" y="0px"
	 viewBox="0 0 32 32" style="enable-background:new 0 0 32 32;" xml:space="preserve">
<g id="bell__icon">
	<g>
		<path d="M26.7,22.5V12.3c0-4.9-3.4-9.2-8.3-10.2V2c0-1.1-0.9-2-2-2c-1.1-0.1-2,0.9-2,2c0,0.1,0,0.1,0,0.3c-4.7,1-8.2,5.2-8.2,10
			v10.2L2.5,29h9.8c0.6,1.7,2.3,3,4.2,3c2,0,3.6-1.3,4.2-3h9.9L26.7,22.5z M8.2,22.5v-10c0-3.9,2.7-7.3,6.6-8c1-0.1,2.2-0.1,3.2,0
			c3.9,0.7,6.6,4.2,6.6,8v10l2.4,4.2H5.9L8.2,22.5z"/>
	</g>
</g>
</svg>
