<svg id="Layer_1" data-name="Layer 1" xmlns="http://www.w3.org/2000/svg" viewBox="0 0 64 60"><defs><style>.cls-1{fill:#878d96;}</style></defs><path class="cls-1" d="M61.05,25.81a2.09,2.09,0,0,0-1.16-3.56L43.24,19.83a2.08,2.08,0,0,1-1.57-1.15L34.22,3.6a2.09,2.09,0,0,0-3.75,0L23,18.68a2.11,2.11,0,0,1-1.58,1.15L4.81,22.25a2.09,2.09,0,0,0-1.16,3.56l12,11.74a2.11,2.11,0,0,1,.61,1.86L13.45,56a2.1,2.1,0,0,0,3,2.21l14.88-7.83a2.1,2.1,0,0,1,1.95,0l14.89,7.83a2.09,2.09,0,0,0,3-2.21L48.4,39.41a2.1,2.1,0,0,1,.6-1.86ZM44,33.6H20v-6H44Z"/></svg>