<svg id="Layer_1" data-name="Layer 1" xmlns="http://www.w3.org/2000/svg" viewBox="0 0 64 60"><defs><style>.cls-1{fill:#8c7300;fill-rule:evenodd;}.cls-2{fill:#fff;}</style></defs><path class="cls-1" d="M33.18,58.33l26-18.85a2,2,0,0,0,.73-2.24L49.94,6.73A2,2,0,0,0,48,5.35H16a2,2,0,0,0-1.9,1.38L4.14,37.24a2,2,0,0,0,.73,2.24l26,18.85A2,2,0,0,0,33.18,58.33Z"/><polygon class="cls-2" points="39.17 33.83 44.16 28.84 42.75 27.42 34.23 35.94 34.23 22.53 32.23 22.53 32.23 43.53 34.23 43.53 34.23 38.77 37.7 35.3 42.75 44.04 44.48 43.04 39.17 33.83"/><path class="cls-2" d="M28.21,23.72H24.78V22.58h3.43V20.29H25.93a1.14,1.14,0,0,1-1.15-1.14V16.86a1.14,1.14,0,0,1,1.15-1.14h3.42v1.14H25.93v2.29h2.28a1.14,1.14,0,0,1,1.14,1.14v2.29A1.14,1.14,0,0,1,28.21,23.72Z"/><path class="cls-2" d="M22.53,15.72H20.24a1.14,1.14,0,0,0-1.14,1.14v6.86h1.14V20.86h2.29v2.86h1.14V16.86A1.14,1.14,0,0,0,22.53,15.72Zm-2.29,4V16.86h2.29v2.86Z"/></svg>