<svg id="Layer_1" data-name="Layer 1" xmlns="http://www.w3.org/2000/svg" xmlns:xlink="http://www.w3.org/1999/xlink" viewBox="0 0 64 60">
	<defs><style>.cls-1{fill:#8c7300;}.cls-2{fill:#fff;}</style></defs>
	<path class="cls-1" d="M33.18,58.33l26-18.85a2,2,0,0,0,.73-2.24L49.94,6.73A2,2,0,0,0,48,5.35H16a2,2,0,0,0-1.9,1.38L4.14,37.24a2,2,0,0,0,.73,2.24l26,18.85A2,2,0,0,0,33.18,58.33Z"/>
	<path class="cls-2" d="M44.29,31.87A1.87,1.87,0,1,1,46.16,30,1.87,1.87,0,0,1,44.29,31.87Zm-11.2,0A1.87,1.87,0,1,1,35,30,1.87,1.87,0,0,1,33.09,31.87ZM25.63,41.2a1.87,1.87,0,1,1,1.86-1.87A1.87,1.87,0,0,1,25.63,41.2ZM23.76,20.67a1.87,1.87,0,1,1,1.87,1.86A1.87,1.87,0,0,1,23.76,20.67Zm20.53,5.6a3.73,3.73,0,0,0-3.6,2.8h-4a3.69,3.69,0,0,0-5.12-2.47l-3-3.71a3.66,3.66,0,0,0,.76-2.22,3.74,3.74,0,1,0-3.73,3.73,3.65,3.65,0,0,0,1.52-.33l3,3.7a3.66,3.66,0,0,0,0,4.46l-3,3.7a3.65,3.65,0,0,0-1.52-.33,3.74,3.74,0,1,0,3.73,3.73,3.66,3.66,0,0,0-.76-2.22l3-3.71a3.69,3.69,0,0,0,5.12-2.47h4a3.73,3.73,0,1,0,3.6-4.66Zm-22.4,5.6A1.87,1.87,0,1,0,20,30,1.87,1.87,0,0,0,21.89,31.87Zm15.87-9.34a1.87,1.87,0,1,0-1.87-1.86A1.87,1.87,0,0,0,37.76,22.53Zm0,18.67a1.87,1.87,0,1,0-1.87-1.87A1.87,1.87,0,0,0,37.76,41.2Z"/>
</svg>
