<svg id="Layer_1" data-name="Layer 1" xmlns="http://www.w3.org/2000/svg" viewBox="0 0 64 60"><defs><style>.cls-1{fill:#8c7300;fill-rule:evenodd;}.cls-2{fill:#fff;}</style></defs><path class="cls-1" d="M33.18,58.33l26-18.85a2,2,0,0,0,.73-2.24L49.94,6.73A2,2,0,0,0,48,5.35H16a2,2,0,0,0-1.9,1.38L4.14,37.24a2,2,0,0,0,.73,2.24l26,18.85A2,2,0,0,0,33.18,58.33Z"/><path class="cls-2" d="M25,38.5v-19H23v19a2,2,0,0,0,2,2H44v-2Z"/><rect class="cls-2" x="25.55" y="28.5" width="16.97" height="2" transform="translate(-10.89 32.71) rotate(-45)"/></svg>