<?xml version="1.0" encoding="utf-8"?>
<!-- Generator: Adobe Illustrator 19.1.0, SVG Export Plug-In . SVG Version: 6.00 Build 0)  -->
<svg version="1.1" id="Layer_1" xmlns="http://www.w3.org/2000/svg" xmlns:xlink="http://www.w3.org/1999/xlink" x="0px" y="0px"
	 viewBox="-263.8 372.8 20 20" style="enable-background:new -263.8 372.8 20 20;" xml:space="preserve">
<style type="text/css">
	.st0{fill:#5AAAFA;}
</style>
<g>
	<path class="st0" d="M-253.8,374.1c4.8,0,8.6,3.9,8.6,8.6s-3.9,8.6-8.6,8.6s-8.6-3.9-8.6-8.6S-258.5,374.1-253.8,374.1
		 M-253.8,372.8c-5.5,0-10,4.5-10,10s4.5,10,10,10s10-4.5,10-10S-248.2,372.8-253.8,372.8L-253.8,372.8z"/>
	<g>
		<path class="st0" d="M-254.6,377.1c0.2-0.2,0.5-0.4,0.9-0.4s0.6,0.1,0.9,0.4c0.2,0.2,0.4,0.5,0.4,0.9c0,0.3-0.1,0.6-0.4,0.9
			c-0.2,0.2-0.5,0.4-0.9,0.4c-0.3,0-0.6-0.1-0.9-0.4c-0.2-0.2-0.4-0.5-0.4-0.9C-255,377.6-254.9,377.3-254.6,377.1z"/>
		<path class="st0" d="M-252.1,388.8h-3.4v-0.4c0.2,0,0.4-0.1,0.5-0.2c0.1-0.2,0.2-0.4,0.2-0.8v-5.2c0-0.4-0.1-0.6-0.1-0.7
			s-0.3-0.2-0.6-0.3v-0.4h2.7v6.7c0,0.4,0.1,0.6,0.1,0.7c0.1,0.1,0.3,0.2,0.5,0.3L-252.1,388.8L-252.1,388.8z"/>
	</g>
</g>
</svg>
