<svg id="Layer_1" data-name="Layer 1" xmlns="http://www.w3.org/2000/svg" xmlns:xlink="http://www.w3.org/1999/xlink" viewBox="0 0 4.63 17.31"><defs><style>.cls-1,.cls-7,.cls-8{fill:none;}.cls-1,.cls-2{clip-rule:evenodd;}.cls-2,.cls-4,.cls-6{fill:#a91560;}.cls-2,.cls-7,.cls-8{stroke:#a91560;stroke-miterlimit:10;stroke-width:0.5px;}.cls-3{clip-path:url(#clip-path);}.cls-4,.cls-8{fill-rule:evenodd;}.cls-5{clip-path:url(#clip-path-2);}.cls-9{clip-path:url(#clip-path-3);}.cls-10{clip-path:url(#clip-path-4);}.cls-11{clip-path:url(#clip-path-5);}.cls-12{clip-path:url(#clip-path-6);}</style><clipPath id="clip-path"><path class="cls-1" d="M-1480.49-630h9v-13.09h-9Zm-8.22-14.55v16h19.27v-16Z"/></clipPath><clipPath id="clip-path-2"><path class="cls-2" d="M-1215.17-643.55a6.38,6.38,0,0,0-6.46,6.28v3.45l-2.31-2.25-.76.74,3.61,3.51,3.61-3.51-.76-.74-2.31,2.25v-3.45a5.32,5.32,0,0,1,5.39-5.23,5.32,5.32,0,0,1,5.39,5.23,5.13,5.13,0,0,1-1.58,3.7l.76.74a6.15,6.15,0,0,0,1.89-4.44A6.38,6.38,0,0,0-1215.17-643.55Z"/></clipPath><clipPath id="clip-path-3"><path class="cls-2" d="M-1153.25-643.55a6.38,6.38,0,0,1,6.46,6.28v3.45l2.31-2.25.76.74-3.61,3.51-3.61-3.51.76-.74,2.31,2.25v-3.45a5.32,5.32,0,0,0-5.39-5.23,5.32,5.32,0,0,0-5.39,5.23,5.13,5.13,0,0,0,1.58,3.7l-.76.74a6.15,6.15,0,0,1-1.89-4.44A6.38,6.38,0,0,1-1153.25-643.55Z"/></clipPath><clipPath id="clip-path-4"><path class="cls-2" d="M-961.78-477.85a6.38,6.38,0,0,0-6.46,6.28v3.45l-2.31-2.25-.76.74,3.61,3.51,3.61-3.51-.76-.74-2.31,2.25v-3.45a5.32,5.32,0,0,1,5.39-5.23,5.32,5.32,0,0,1,5.39,5.23,5.13,5.13,0,0,1-1.58,3.7l.76.74a6.15,6.15,0,0,0,1.89-4.44A6.38,6.38,0,0,0-961.78-477.85Z"/></clipPath><clipPath id="clip-path-5"><path class="cls-2" d="M-899.85-477.85a6.38,6.38,0,0,1,6.46,6.28v3.45l2.31-2.25.76.74-3.61,3.51-3.61-3.51.76-.74,2.31,2.25v-3.45a5.32,5.32,0,0,0-5.39-5.23,5.32,5.32,0,0,0-5.39,5.23,5.13,5.13,0,0,0,1.58,3.7l-.76.74a6.15,6.15,0,0,1-1.89-4.44A6.38,6.38,0,0,1-899.85-477.85Z"/></clipPath><clipPath id="clip-path-6"><path class="cls-1" d="M96.34-885.05l-1-1L92.22-883l3.07,3.1,1-1L95-882.27l5.66,0v-1.46l-5.66,0Zm-2,2v0l0,0Z"/></clipPath></defs><title>vertical_ellipsis</title><path class="cls-4" d="M-1215.17-643.55a6.38,6.38,0,0,0-6.46,6.28v3.45l-2.31-2.25-.76.74,3.61,3.51,3.61-3.51-.76-.74-2.31,2.25v-3.45a5.32,5.32,0,0,1,5.39-5.23,5.32,5.32,0,0,1,5.39,5.23,5.13,5.13,0,0,1-1.58,3.7l.76.74a6.15,6.15,0,0,0,1.89-4.44A6.38,6.38,0,0,0-1215.17-643.55Z"/><g class="cls-5"><rect class="cls-6" x="-1319.71" y="-762.55" width="1460" height="814"/><rect class="cls-7" x="-1319.71" y="-762.55" width="1460" height="814"/></g><path class="cls-8" d="M-1215.17-643.55a6.38,6.38,0,0,0-6.46,6.28v3.45l-2.31-2.25-.76.74,3.61,3.51,3.61-3.51-.76-.74-2.31,2.25v-3.45a5.32,5.32,0,0,1,5.39-5.23,5.32,5.32,0,0,1,5.39,5.23,5.13,5.13,0,0,1-1.58,3.7l.76.74a6.15,6.15,0,0,0,1.89-4.44A6.38,6.38,0,0,0-1215.17-643.55Z"/><path class="cls-4" d="M-1153.25-643.55a6.38,6.38,0,0,1,6.46,6.28v3.45l2.31-2.25.76.74-3.61,3.51-3.61-3.51.76-.74,2.31,2.25v-3.45a5.32,5.32,0,0,0-5.39-5.23,5.32,5.32,0,0,0-5.39,5.23,5.13,5.13,0,0,0,1.58,3.7l-.76.74a6.15,6.15,0,0,1-1.89-4.44A6.38,6.38,0,0,1-1153.25-643.55Z"/><g class="cls-9"><rect class="cls-6" x="-1319.71" y="-762.55" width="1460" height="814"/><rect class="cls-7" x="-1319.71" y="-762.55" width="1460" height="814"/></g><path class="cls-8" d="M-1153.25-643.55a6.38,6.38,0,0,1,6.46,6.28v3.45l2.31-2.25.76.74-3.61,3.51-3.61-3.51.76-.74,2.31,2.25v-3.45a5.32,5.32,0,0,0-5.39-5.23,5.32,5.32,0,0,0-5.39,5.23,5.13,5.13,0,0,0,1.58,3.7l-.76.74a6.15,6.15,0,0,1-1.89-4.44A6.38,6.38,0,0,1-1153.25-643.55Z"/><path class="cls-4" d="M-961.78-477.85a6.38,6.38,0,0,0-6.46,6.28v3.45l-2.31-2.25-.76.74,3.61,3.51,3.61-3.51-.76-.74-2.31,2.25v-3.45a5.32,5.32,0,0,1,5.39-5.23,5.32,5.32,0,0,1,5.39,5.23,5.13,5.13,0,0,1-1.58,3.7l.76.74a6.15,6.15,0,0,0,1.89-4.44A6.38,6.38,0,0,0-961.78-477.85Z"/><g class="cls-10"><rect class="cls-6" x="-1066.32" y="-596.85" width="1460" height="814"/><rect class="cls-7" x="-1066.32" y="-596.85" width="1460" height="814"/></g><path class="cls-8" d="M-961.78-477.85a6.38,6.38,0,0,0-6.46,6.28v3.45l-2.31-2.25-.76.74,3.61,3.51,3.61-3.51-.76-.74-2.31,2.25v-3.45a5.32,5.32,0,0,1,5.39-5.23,5.32,5.32,0,0,1,5.39,5.23,5.13,5.13,0,0,1-1.58,3.7l.76.74a6.15,6.15,0,0,0,1.89-4.44A6.38,6.38,0,0,0-961.78-477.85Z"/><path class="cls-4" d="M-899.85-477.85a6.38,6.38,0,0,1,6.46,6.28v3.45l2.31-2.25.76.74-3.61,3.51-3.61-3.51.76-.74,2.31,2.25v-3.45a5.32,5.32,0,0,0-5.39-5.23,5.32,5.32,0,0,0-5.39,5.23,5.13,5.13,0,0,0,1.58,3.7l-.76.74a6.15,6.15,0,0,1-1.89-4.44A6.38,6.38,0,0,1-899.85-477.85Z"/><g class="cls-11"><rect class="cls-6" x="-1066.32" y="-596.85" width="1460" height="814"/><rect class="cls-7" x="-1066.32" y="-596.85" width="1460" height="814"/></g><path class="cls-8" d="M-899.85-477.85a6.38,6.38,0,0,1,6.46,6.28v3.45l2.31-2.25.76.74-3.61,3.51-3.61-3.51.76-.74,2.31,2.25v-3.45a5.32,5.32,0,0,0-5.39-5.23,5.32,5.32,0,0,0-5.39,5.23,5.13,5.13,0,0,0,1.58,3.7l-.76.74a6.15,6.15,0,0,1-1.89-4.44A6.38,6.38,0,0,1-899.85-477.85Z"/><circle class="cls-6" cx="2.32" cy="2.6" r="1.93"/><circle class="cls-6" cx="2.32" cy="8.63" r="1.93"/><circle class="cls-6" cx="2.32" cy="14.74" r="1.93"/></svg>