<svg xmlns="http://www.w3.org/2000/svg" viewBox="0 0 32.8 32.8" x="0" y="0" height="50" width="50"><defs><style>.a{fill:#1b5664;}.b{fill:#f0f0f0;}.c{fill:none;stroke:#f0f0f0;stroke-miterlimit:10;stroke-width:1.8px;}</style></defs><title>Annotation_2</title><rect class="a" x="0.3" y="0.3" width="32.2" height="32.23" transform="translate(-0.3 32.5) rotate(-89.1)"/><rect class="b" x="5" y="12.6" width="20.6" height="1.57" transform="translate(-5 14.4) rotate(-44.1)"/><rect class="b" x="9.1" y="16.7" width="20.6" height="1.57" transform="translate(-6.7 18.4) rotate(-44.1)"/><rect class="b" x="23.4" y="5.1" width="1.6" height="7.38" transform="translate(0.7 19.3) rotate(-44.1)"/><rect class="b" x="19.8" y="8.6" width="1.6" height="7.38" transform="matrix(0.72, -0.7, 0.7, 0.72, -2.76, 17.78)"/><rect class="b" x="20.5" y="20.5" width="1.6" height="11.59" transform="matrix(0.02, -1, 1, 0.02, -5.39, 47.18)"/><rect class="b" x="9.5" y="18.5" width="1.6" height="7.38" transform="translate(-12.6 13.4) rotate(-44.1)"/><polyline class="c" points="8.1 20.3 6.6 25.8 12.1 24.5"/></svg>
