<svg data-name="Layer 1" xmlns="http://www.w3.org/2000/svg" viewBox="0 0 32 32"><path d="M12 19h3v-2h-3v-5h5v3h2v-3h5v3h2V5a2 2 0 00-2-2H5a2 2 0 00-2 2v19a2 2 0 002 2h7v-2zm7-14h5v5h-5zm-7 0h5v5h-5zm-2 19H5v-5h5zm0-7H5v-5h5zm0-7H5V5h5zm4.5-4A1.5 1.5 0 1016 7.5 1.5 1.5 0 0014.5 6zm7 0A1.5 1.5 0 1023 7.5 1.5 1.5 0 0021.5 6zm-14 3A1.5 1.5 0 106 7.5 1.5 1.5 0 007.5 9zm21.43 13.75l-3.25-5.5a.48.48 0 00-.43-.25h-6.5a.48.48 0 00-.43.25l-3.25 5.5a.5.5 0 000 .5l3.25 5.5a.48.48 0 00.43.25h6.5a.48.48 0 00.43-.25l3.25-5.5a.5.5 0 000-.5zM24.4 27h-4.8l-2.36-4 2.36-4h4.8l2.36 4z" fill="#9855d4"/></svg>