<svg id="Layer_1" data-name="Layer 1" xmlns="http://www.w3.org/2000/svg" viewBox="0 0 32 32"><defs><style>.cls-1{fill:#9855d4;}</style></defs><title>PxAzureBlobStorage</title><path class="cls-1" d="M25.56 9.56l-7-7A2 2 0 0017.18 2H8.49A2.5 2.5 0 006 4.49v23A2.5 2.5 0 008.49 30h15A2.5 2.5 0 0026 27.51V10.62a1.5 1.5 0 00-.44-1.06zM24 27.51a.49.49 0 01-.49.49h-15a.49.49 0 01-.51-.49v-23A.49.49 0 018.49 4H16v6a2 2 0 002 2h6zm-10.75-14H10.5V15h1.25v3H10v1.5h5V18h-1.75zm3.75 1v4a1 1 0 001 1h3a1 1 0 001-1v-4a1 1 0 00-1-1h-3a1 1 0 00-1 .99zm1.5.5h2v3h-2zm1.75 6H17.5v1.5h1.25v3H17V27h5v-1.5h-1.75zM14 21h-3a1 1 0 00-1 1v4a1 1 0 001 1h3a1 1 0 001-1v-4a1 1 0 00-1-1zm-.5 4.5h-2v-3h2z"/></svg>