<svg data-name="Layer 1" xmlns="http://www.w3.org/2000/svg" viewBox="0 0 32 32"><path d="M9.49 16H7.16a3.18 3.18 0 01-3.11-2.64A3.21 3.21 0 016.6 9.62L8 9.37 8.21 8A4.9 4.9 0 0113 4a4.53 4.53 0 01.91.09A4.89 4.89 0 0117.79 8l.26 1.35 1.35.25a3.16 3.16 0 011.08.42 1 1 0 00.53.17 1 1 0 001-1 1 1 0 00-.44-.8.61.61 0 00-.21-.11 4.86 4.86 0 00-1.59-.61 6.91 6.91 0 00-5.47-5.52A6.11 6.11 0 0013 2a6.9 6.9 0 00-6.76 5.65A5.22 5.22 0 007.15 18h2.34a1 1 0 100-2zm9.21 7.42a4.05 4.05 0 001.5 0V17h-1.5zM16 21.53A4.09 4.09 0 0017.45 23v-4H16zM21.45 23A4.09 4.09 0 0023 21.53v-2h-1.5zm3.66.73a7 7 0 001.47-4.29 7.13 7.13 0 10-7.13 7.09 7 7 0 004.23-1.4L28.62 30 30 28.58zm-2.31-.47a4.7 4.7 0 01-.95.65 5 5 0 01-4.8 0 4.7 4.7 0 01-.95-.65 5 5 0 01-1.78-3.82 5.13 5.13 0 0110.26 0 5 5 0 01-1.78 3.77z" fill="#9855d4"/></svg>