<?xml version="1.0" encoding="UTF-8" standalone="no"?>
<svg
   xmlns:dc="http://purl.org/dc/elements/1.1/"
   xmlns:cc="http://creativecommons.org/ns#"
   xmlns:rdf="http://www.w3.org/1999/02/22-rdf-syntax-ns#"
   xmlns:svg="http://www.w3.org/2000/svg"
   xmlns="http://www.w3.org/2000/svg"
   id="svg3080"
   version="1.1"
   width="50"
   height="50"
   y="0"
   x="0"
   viewBox="0 0 30.8 30.8">
  <metadata
     id="metadata3084">
    <rdf:RDF>
      <cc:Work
         rdf:about="">
        <dc:format>image/svg+xml</dc:format>
        <dc:type
           rdf:resource="http://purl.org/dc/dcmitype/StillImage" />
        <dc:title>NestedCondition</dc:title>
      </cc:Work>
    </rdf:RDF>
  </metadata>
  <defs
     id="defs3060">
    <style
       id="style3058">.a{fill:#1b5664;}.b{fill:#f0f0f0;}</style>
  </defs>
  <title
     id="title3062">NestedCondition</title>
  <rect
     id="rect3064"
     height="30.82"
     width="30.8"
     class="a" />
  <rect
     y="5.1149349"
     x="4.562963"
     height="21.1957"
     width="16.779928"
     id="rect3276"
     style="fill:#f0f0f0;fill-opacity:1;stroke-width:0.77918518" />
  <path
     transform="matrix(0.28989563,0,0,0.74381831,16.435572,11.778954)"
     d="m 10.663471,23.283693 0,-18.2423555 0,-18.2423545 15.798343,9.1211778 15.798343,9.1211771 -15.798343,9.1211781 z"
     id="path3280"
     style="fill:#f0f0f0;fill-opacity:1;stroke-width:0.616" />
  <rect
     y="7.7107892"
     x="6.7975802"
     height="16.106838"
     width="13.24044"
     id="rect3276-1"
     style="fill:#1b5664;fill-opacity:1;stroke-width:0.60336232" />
  <path
     transform="matrix(0.19056099,0,0,0.49590524,17.71212,13.160198)"
     d="m 10.663471,23.283693 0,-18.2423555 0,-18.2423545 15.798343,9.1211778 15.798343,9.1211771 -15.798343,9.1211781 z"
     id="path3280-4"
     style="fill:#1b5664;fill-opacity:1;stroke-width:0.616" />
  <g
     style="display:inline"
     id="layer8">
    <path
       id="path3660"
       d="m 14.572893,10.07674 a 3.6155391,3.6155391 0 0 0 -3.615539,3.615538 3.6155391,3.6155391 0 0 0 0.0011,0.01747 h 1.940951 a 1.7291709,1.7291709 0 0 1 1.725897,-1.659305 1.7291709,1.7291709 0 0 1 1.729171,1.72917 1.7291709,1.7291709 0 0 1 -1.502109,1.711705 v 1.802312 a 3.6155391,3.6155391 0 0 0 3.336078,-3.601348 3.6155391,3.6155391 0 0 0 -3.615539,-3.615539 z"
       style="fill:#f0f0f0;fill-opacity:1;stroke-width:0.55892384" />
    <path
       id="path3660-1"
       d="m 15.954191,15.073792 a 3.6155391,3.6155391 0 0 0 -2.565374,3.577331 h 1.824145 a 1.7291709,1.7291709 0 0 1 1.127672,-1.817594 z m 4.572915,2.664713 -1.896195,0.415918 a 1.7291709,1.7291709 0 0 1 0.01419,0.4967 h 1.964967 a 3.6155391,3.6155391 0 0 0 -0.07861,-0.896242 3.6155391,3.6155391 0 0 0 -0.0044,-0.01638 z"
       style="display:inline;fill:#f0f0f0;fill-opacity:1;stroke-width:0.55892384" />
    <circle
       r="1.502108"
       cy="20.478991"
       cx="14.384377"
       id="path847"
       style="fill:#ffffff;fill-opacity:1;stroke-width:0.64956021" />
  </g>
  <rect
     y="17.508682"
     x="18.013767"
     height="1.5370408"
     width="2.8470185"
     id="rect3699"
     style="fill:#1b5664;fill-opacity:1;stroke-width:0.55892384" />
  <rect
     transform="matrix(0.82764983,-0.56124483,0.58156722,0.81349835,0,0)"
     y="21.157701"
     x="2.8036282"
     height="0.11638524"
     width="1.42303"
     id="rect3701"
     style="fill:#1b5664;fill-opacity:1;stroke-width:0.81402743" />
</svg>
