<?xml version="1.0" encoding="UTF-8" standalone="no"?>
<svg
   xmlns:dc="http://purl.org/dc/elements/1.1/"
   xmlns:cc="http://creativecommons.org/ns#"
   xmlns:rdf="http://www.w3.org/1999/02/22-rdf-syntax-ns#"
   xmlns:svg="http://www.w3.org/2000/svg"
   xmlns="http://www.w3.org/2000/svg"
   id="svg3080"
   version="1.1"
   width="50"
   height="50"
   y="0"
   x="0"
   viewBox="0 0 30.8 30.8">
  <metadata
     id="metadata3084">
    <rdf:RDF>
      <cc:Work
         rdf:about="">
        <dc:format>image/svg+xml</dc:format>
        <dc:type
           rdf:resource="http://purl.org/dc/dcmitype/StillImage" />
        <dc:title>EndLoopActivity</dc:title>
      </cc:Work>
    </rdf:RDF>
  </metadata>
  <defs
     id="defs3060">
    <style
       id="style3058">.a{fill:#1b5664;}.b{fill:#f0f0f0;}</style>
  </defs>
  <title
     id="title3062">EndLoopActivity</title>
  <rect
     id="rect3064"
     height="30.82"
     width="30.8"
     class="a" />
  <rect
     y="2.5008705"
     x="4.3712759"
     height="25.308418"
     width="20.804493"
     id="rect3276-1"
     style="fill:#1b5664;fill-opacity:1;stroke-width:0.9480536" />
  <g
     style="display:inline"
     id="layer8">
    <path
       id="rect3367"
       d="m 9.0220042,7.6537418 -0.01607,1.9259464 v 0.021432 l -0.008,1.5857608 9.6083188,0.04285 -0.05358,6.485009 -9.5842098,0.0053 v 1.703622 l -0.0134,1.652725 9.6136758,0.08036 a 6.7123102,6.7123102 0 0 0 6.76627,-6.656447 6.7123102,6.7123102 0 0 0 -6.653767,-6.7689468 6.7123102,6.7123102 0 0 0 -0.04552,0.00267 z"
       style="fill:#f0f0f0;fill-opacity:1;stroke-width:0.91154873" />
    <path
       id="path3369-8"
       d="m 18.111255,17.742487 a 3.2662386,3.2662386 0 0 0 3.293008,-3.238778 3.2662386,3.2662386 0 0 0 -3.238773,-3.293939 3.2662386,3.2662386 0 0 0 -0.02138,7.51e-4 l -0.05422,6.530831 a 3.2662386,3.2662386 0 0 0 0.02138,0.0011 z"
       style="display:inline;fill:#1b5664;fill-opacity:1;stroke-width:0.47681639" />
    <path
       transform="matrix(1.1835827,0,0,2.2579703,-1.8765232,-24.864133)"
       d="m 11.544335,22.292544 -2.3015022,-1.328773 -2.3015024,-1.328773 2.3015024,-1.328773 2.3015022,-1.328773 0,2.657546 z"
       id="path3428"
       style="fill:#f0f0f0;fill-opacity:1;stroke-width:0.616" />
  </g>
</svg>
