<?xml version="1.0" encoding="UTF-8" standalone="no"?>
<svg
   xmlns:dc="http://purl.org/dc/elements/1.1/"
   xmlns:cc="http://creativecommons.org/ns#"
   xmlns:rdf="http://www.w3.org/1999/02/22-rdf-syntax-ns#"
   xmlns:svg="http://www.w3.org/2000/svg"
   xmlns="http://www.w3.org/2000/svg"
   id="svg3080"
   version="1.1"
   width="50"
   height="50"
   y="0"
   x="0"
   viewBox="0 0 30.8 30.8">
  <metadata
     id="metadata3084">
    <rdf:RDF>
      <cc:Work
         rdf:about="">
        <dc:format>image/svg+xml</dc:format>
        <dc:type
           rdf:resource="http://purl.org/dc/dcmitype/StillImage" />
        <dc:title>ExeceptionHandler</dc:title>
      </cc:Work>
    </rdf:RDF>
  </metadata>
  <defs
     id="defs3060">
    <style
       id="style3058">.a{fill:#1b5664;}.b{fill:#f0f0f0;}</style>
  </defs>
  <title
     id="title3062">ExeceptionHandler</title>
  <rect
     id="rect3064"
     height="30.82"
     width="30.8"
     class="a" />
  <rect
     y="5.1149349"
     x="4.562963"
     height="21.1957"
     width="16.779928"
     id="rect3276"
     style="fill:#f0f0f0;fill-opacity:1;stroke-width:0.77918518" />
  <path
     transform="matrix(0.28989563,0,0,0.74381831,16.435572,11.778954)"
     d="m 10.663471,23.283693 0,-18.2423555 0,-18.2423545 15.798343,9.1211778 15.798343,9.1211771 -15.798343,9.1211781 z"
     id="path3280"
     style="fill:#f0f0f0;fill-opacity:1;stroke-width:0.616" />
  <rect
     y="7.6733565"
     x="6.7669535"
     height="16.106838"
     width="13.24044"
     id="rect3276-1"
     style="fill:#1b5664;fill-opacity:1;stroke-width:0.60336232" />
  <path
     transform="matrix(0.19056099,0,0,0.49590524,17.71212,13.160198)"
     d="m 10.663471,23.283693 0,-18.2423555 0,-18.2423545 15.798343,9.1211778 15.798343,9.1211771 -15.798343,9.1211781 z"
     id="path3280-4"
     style="fill:#1b5664;fill-opacity:1;stroke-width:0.616" />
  <g
     style="display:inline"
     id="layer8">
    <rect
       transform="rotate(-30)"
       y="15.035918"
       x="3.0000174"
       height="11.457896"
       width="2.1879401"
       id="rect3432"
       style="fill:#f0f0f0;fill-opacity:1;stroke-width:0.65141356" />
    <rect
       transform="matrix(-0.8660254,-0.5,-0.5,0.8660254,0,0)"
       y="1.1053327"
       x="-21.019569"
       height="11.457896"
       width="2.1879401"
       id="rect3432-7"
       style="display:inline;fill:#f0f0f0;fill-opacity:1;stroke-width:0.65141356" />
    <rect
       y="9.4056082"
       x="9.8708143"
       height="2.1175001"
       width="8.4315004"
       id="rect3449"
       style="fill:#1b5664;fill-opacity:1;stroke-width:0.616" />
    <rect
       y="20.301107"
       x="9.6975641"
       height="2.1175001"
       width="8.4315004"
       id="rect3449-7"
       style="display:inline;fill:#1b5664;fill-opacity:1;stroke-width:0.616" />
  </g>
</svg>
