<svg id="Layer_1" data-name="Layer 1" xmlns="http://www.w3.org/2000/svg" viewBox="0 0 32 32"><defs><clipPath id="clip-path"><path d="M29 8.6v-.1a1.4 1.4 0 000-.2.8.8 0 000-.2l-.2-.1-.1-.1a.3.3 0 00-.1 0v-.2h-.2l-12-5.6a1 1 0 00-1 0L3.6 7.7H3.3V8h-.1a1.1 1.1 0 00-.1.2l-.1.1a.8.8 0 000 .2v14.6a1 1 0 00.6 1l12 5.8a1 1 0 00.9 0l12-5.8a1 1 0 00.6-1V8.6zM15.9 4.2l9.6 4.4-9.5 4.7-9.6-4.7zM5 10.2L15 15v12.3L5 22.5zm12 17.2V15.1l10-5v12.4z" clip-rule="evenodd" fill="#008985"/></clipPath><clipPath id="clip-path-2"><path class="cls-2" d="M3 2h26v28H3z"/></clipPath><style>.cls-2{fill:#008985}</style></defs><path d="M29 8.6v-.1a1.4 1.4 0 000-.2.8.8 0 000-.2l-.2-.1-.1-.1a.3.3 0 00-.1 0v-.2h-.2l-12-5.6a1 1 0 00-1 0L3.6 7.7H3.3V8h-.1a1.1 1.1 0 00-.1.2l-.1.1a.8.8 0 000 .2v14.6a1 1 0 00.6 1l12 5.8a1 1 0 00.9 0l12-5.8a1 1 0 00.6-1V8.6zM15.9 4.2l9.6 4.4-9.5 4.7-9.6-4.7zM5 10.2L15 15v12.3L5 22.5zm12 17.2V15.1l10-5v12.4z" fill-rule="evenodd" fill="#008985"/><g clip-path="url(#clip-path)"><path class="cls-2" d="M3 2h26v28H3z"/><g clip-path="url(#clip-path-2)"><path class="cls-2" d="M-2-3h36v38H-2z"/></g></g></svg>