<?xml version="1.0" encoding="UTF-8" standalone="no"?>
<svg
   xmlns:dc="http://purl.org/dc/elements/1.1/"
   xmlns:cc="http://creativecommons.org/ns#"
   xmlns:rdf="http://www.w3.org/1999/02/22-rdf-syntax-ns#"
   xmlns:svg="http://www.w3.org/2000/svg"
   xmlns="http://www.w3.org/2000/svg"
   id="svg3080"
   version="1.1"
   width="50"
   height="50"
   y="0"
   x="0"
   viewBox="0 0 30.8 30.8">
  <metadata
     id="metadata3084">
    <rdf:RDF>
      <cc:Work
         rdf:about="">
        <dc:format>image/svg+xml</dc:format>
        <dc:type
           rdf:resource="http://purl.org/dc/dcmitype/StillImage" />
        <dc:title>RountineActivity</dc:title>
      </cc:Work>
    </rdf:RDF>
  </metadata>
  <defs
     id="defs3060">
    <style
       id="style3058">.a{fill:#1b5664;}.b{fill:#f0f0f0;}</style>
  </defs>
  <title
     id="title3062">RountineActivity</title>
  <rect
     id="rect3064"
     height="30.82"
     width="30.8"
     class="a" />
  <rect
     y="5.1149349"
     x="4.562963"
     height="21.1957"
     width="16.779928"
     id="rect3276"
     style="fill:#f0f0f0;fill-opacity:1;stroke-width:0.77918518" />
  <path
     transform="matrix(0.28989563,0,0,0.74381831,16.435572,11.778954)"
     d="m 10.663471,23.283693 0,-18.2423555 0,-18.2423545 15.798343,9.1211778 15.798343,9.1211771 -15.798343,9.1211781 z"
     id="path3280"
     style="fill:#f0f0f0;fill-opacity:1;stroke-width:0.616" />
  <rect
     y="7.6733565"
     x="6.7669535"
     height="16.106838"
     width="13.24044"
     id="rect3276-1"
     style="fill:#1b5664;fill-opacity:1;stroke-width:0.60336232" />
  <path
     transform="matrix(0.19056099,0,0,0.49590524,17.71212,13.160198)"
     d="m 10.663471,23.283693 0,-18.2423555 0,-18.2423545 15.798343,9.1211778 15.798343,9.1211771 -15.798343,9.1211781 z"
     id="path3280-4"
     style="fill:#1b5664;fill-opacity:1;stroke-width:0.616" />
  <g
     style="display:inline"
     id="layer8">
    <path
       id="rect3367"
       d="m 13.078719,13.721513 -0.566174,0.78107 -0.0062,0.0088 -0.463995,0.644655 3.907656,2.809141 -1.906049,2.630259 -3.911835,-2.782457 -0.4949809,0.695062 -0.4855691,0.670468 3.898943,2.826004 a 3.362013,3.362013 0 0 0 4.694579,-0.749854 3.362013,3.362013 0 0 0 -0.747983,-4.694894 3.362013,3.362013 0 0 0 -0.01933,-0.01217 z"
       style="fill:#f0f0f0;fill-opacity:1;stroke-width:0.45656985" />
    <path
       id="path3369-8"
       d="m 13.855802,20.478474 a 1.6359697,1.6359697 0 0 0 2.284531,-0.364621 1.6359697,1.6359697 0 0 0 -0.364348,-2.284909 1.6359697,1.6359697 0 0 0 -0.009,-0.0059 l -1.91964,2.648758 a 1.6359697,1.6359697 0 0 0 0.0085,0.0067 z"
       style="display:inline;fill:#1b5664;fill-opacity:1;stroke-width:0.23882432" />
    <path
       transform="matrix(0.4828907,0.34388544,-0.65604465,0.92123081,18.080165,-2.7120022)"
       d="m 11.544335,22.292544 -2.3015022,-1.328773 -2.3015024,-1.328773 2.3015024,-1.328773 2.3015022,-1.328773 0,2.657546 z"
       id="path3428"
       style="fill:#f0f0f0;fill-opacity:1;stroke-width:0.616" />
    <path
       id="rect3367-5"
       d="m 15.98692,17.94002 0.559246,-0.786044 0.0062,-0.0088 0.458377,-0.648662 -3.931994,-2.774973 1.883037,-2.646783 3.935914,2.748288 0.488935,-0.699329 0.479854,-0.674569 -3.923415,-2.7919312 a 3.362013,3.362013 0 0 0 -4.687866,0.7907452 3.362013,3.362013 0 0 0 0.788875,4.688195 3.362013,3.362013 0 0 0 0.01949,0.01192 z"
       style="display:inline;fill:#f0f0f0;fill-opacity:1;stroke-width:0.45656985" />
    <path
       id="path3369-8-9"
       d="m 15.150974,11.190089 a 1.6359697,1.6359697 0 0 0 -2.281267,0.38452 1.6359697,1.6359697 0 0 0 0.384248,2.281646 1.6359697,1.6359697 0 0 0 0.009,0.0059 l 1.896514,-2.665363 a 1.6359697,1.6359697 0 0 0 -0.0085,-0.0066 z"
       style="display:inline;fill:#1b5664;fill-opacity:1;stroke-width:0.23882432" />
    <path
       transform="matrix(-0.48586969,-0.33966347,0.64799018,-0.92691393,11.1289,34.416504)"
       d="m 11.544335,22.292544 -2.3015022,-1.328773 -2.3015024,-1.328773 2.3015024,-1.328773 2.3015022,-1.328773 0,2.657546 z"
       id="path3428-6"
       style="display:inline;fill:#f0f0f0;fill-opacity:1;stroke-width:0.616" />
  </g>
</svg>
