<?xml version="1.0" encoding="UTF-8" standalone="no"?>
<svg
   xmlns:dc="http://purl.org/dc/elements/1.1/"
   xmlns:cc="http://creativecommons.org/ns#"
   xmlns:rdf="http://www.w3.org/1999/02/22-rdf-syntax-ns#"
   xmlns:svg="http://www.w3.org/2000/svg"
   xmlns="http://www.w3.org/2000/svg"
   id="svg3080"
   version="1.1"
   width="50"
   height="50"
   y="0"
   x="0"
   viewBox="0 0 30.8 30.8">
  <metadata
     id="metadata3084">
    <rdf:RDF>
      <cc:Work
         rdf:about="">
        <dc:format>image/svg+xml</dc:format>
        <dc:type
           rdf:resource="http://purl.org/dc/dcmitype/StillImage" />
        <dc:title>StartLoopActivity</dc:title>
      </cc:Work>
    </rdf:RDF>
  </metadata>
  <defs
     id="defs3060">
    <style
       id="style3058">.a{fill:#1b5664;}.b{fill:#f0f0f0;}</style>
  </defs>
  <title
     id="title3062">StartLoopActivity</title>
  <rect
     id="rect3064"
     height="30.82"
     width="30.8"
     class="a" />
  <rect
     y="-0.003701756"
     x="4.3168287"
     height="25.308418"
     width="20.804493"
     id="rect3276-1"
     style="fill:#1b5664;fill-opacity:1;stroke-width:0.9480536" />
  <g
     style="display:inline"
     id="layer8">
    <path
       id="rect3367"
       d="m 22.61593,22.953387 0.01217,-1.925975 -4.4e-5,-0.02143 0.0048,-1.585773 -9.608386,-0.02341 0.04046,-6.485104 9.584179,-0.0247 -0.0034,-1.703618 0.01006,-1.6527492 -9.613819,-0.0609 a 6.7123102,6.7123102 0 0 0 -6.7527853,6.6701272 6.7123102,6.7123102 0 0 0 6.6674523,6.755467 6.7123102,6.7123102 0 0 0 0.04551,-0.0028 z"
       style="fill:#f0f0f0;fill-opacity:1;stroke-width:0.91154873" />
    <path
       id="path3369-8"
       d="m 13.506281,12.883058 a 3.2662386,3.2662386 0 0 0 -3.286447,3.245435 3.2662386,3.2662386 0 0 0 3.245433,3.287378 3.2662386,3.2662386 0 0 0 0.02138,-7.94e-4 l 0.041,-6.530928 a 3.2662386,3.2662386 0 0 0 -0.02138,-0.0011 z"
       style="display:inline;fill:#1b5664;fill-opacity:1;stroke-width:0.47681639" />
    <path
       transform="matrix(-1.1835803,0.00239533,-0.00456967,-2.2579657,33.580245,55.449139)"
       d="m 11.544335,22.292544 -2.3015022,-1.328773 -2.3015024,-1.328773 2.3015024,-1.328773 2.3015022,-1.328773 0,2.657546 z"
       id="path3428"
       style="fill:#f0f0f0;fill-opacity:1;stroke-width:0.616" />
  </g>
</svg>
