<?xml version="1.0" encoding="UTF-8" standalone="no"?>
<svg
   xmlns:dc="http://purl.org/dc/elements/1.1/"
   xmlns:cc="http://creativecommons.org/ns#"
   xmlns:rdf="http://www.w3.org/1999/02/22-rdf-syntax-ns#"
   xmlns:svg="http://www.w3.org/2000/svg"
   xmlns="http://www.w3.org/2000/svg"
   id="svg3080"
   version="1.1"
   width="50"
   height="50"
   y="0"
   x="0"
   viewBox="0 0 30.8 30.8">
  <metadata
     id="metadata3084">
    <rdf:RDF>
      <cc:Work
         rdf:about="">
        <dc:format>image/svg+xml</dc:format>
        <dc:type
           rdf:resource="http://purl.org/dc/dcmitype/StillImage" />
        <dc:title>TerminatorActivity</dc:title>
      </cc:Work>
    </rdf:RDF>
  </metadata>
  <defs
     id="defs3060">
    <style
       id="style3058">.a{fill:#1b5664;}.b{fill:#f0f0f0;}</style>
  </defs>
  <title
     id="title3062">TerminatorActivity</title>
  <rect
     style="fill:#ffffff;fill-opacity:1"
     id="rect3064"
     height="30.82"
     width="30.8"
     class="a" />
  <g
     style="display:inline"
     id="layer8" />
  <g
     id="layer1">
    <rect
       id="rect3064-2"
       height="30.82"
       width="30.799997"
       class="a"
       x="1.9073486e-006"
       y="3.5527137e-015"
       style="fill:#1b5664;stroke-width:1" />
  </g>
  <path
     transform="rotate(7.8320608,15.518356,15.493477)"
     d="M 23.345065,28.764852 11.668396,30.412075 2.2469812,23.320186 0.59975787,11.643517 7.6916472,2.2221017 19.368317,0.57487841 28.789731,7.6667677 30.436955,19.343437 Z"
     id="path1605"
     style="fill:#f0f0f0;fill-opacity:1;stroke-width:1.36116683" />
  <path
     transform="scale(0.616)"
     id="path1607"
     d="m 8.9106364,41.479442 -6.7444497,-6.706869 0.00664,-9.574381 0.00664,-9.57438 6.6822183,-6.7439072 6.682218,-6.7439071 9.549356,-0.05308 9.549356,-0.05308 6.773579,6.7344872 6.773578,6.7344871 0.05868,9.5625 0.05869,9.5625 -6.756538,6.78125 -6.756537,6.78125 h -9.569495 -9.569496 z"
     style="fill:#ffffff;fill-opacity:1;stroke-width:0.125" />
  <path
     id="path1607-7"
     d="m 6.6018594,24.550313 -3.7168455,-3.696135 0.00364,-5.276412 0.00364,-5.276411 3.6825505,-3.7165463 3.6825496,-3.7165466 5.26262,-0.029252 5.262622,-0.029252 3.732898,3.7113553 3.732898,3.7113556 0.03234,5.269864 0.03235,5.269864 -3.723507,3.737126 -3.723507,3.737127 H 15.59238 10.31866 Z"
     style="fill:#1b5664;fill-opacity:1;stroke-width:0.06888712" />
  <g
     id="layer2">
    <rect
       y="6.1250143"
       x="9.8673"
       height="19.403999"
       width="11.627"
       id="rect1611-3"
       style="fill:#ffffff;fill-opacity:1;stroke-width:0.616" />
    <rect
       y="7.669095"
       x="10.7528"
       height="16.31992"
       width="9.7790003"
       id="rect1611-7-3"
       style="fill:#1b5664;fill-opacity:1;stroke-width:0.51809269" />
    <circle
       r="0.65450001"
       cy="15.480515"
       cx="19.453798"
       id="path1630-7"
       style="fill:#ffffff;fill-opacity:1;stroke-width:0.616" />
    <path
       id="path828-5"
       d="M 9.9282042,15.805211 V 6.1417107 h 5.7749998 5.775 v 9.6635003 9.6635 h -5.775 -5.7749998 z m 10.6259998,-5.7e-4 v -8.20107 l -4.90875,0.019823 -4.90875,0.019817 -0.0196,8.18125 -0.0196,8.18125 h 4.92835 4.92835 z"
       style="fill:#ffffff;fill-opacity:1;stroke-width:0.077" />
    <path
       id="path830-6"
       d="m 19.027626,15.896498 c -0.336557,-0.358249 -0.141839,-0.929211 0.349243,-1.024063 0.208212,-0.04022 0.285476,-0.0094 0.490258,0.195353 0.204782,0.204781 0.235569,0.282046 0.195353,0.490258 -0.09637,0.498929 -0.69895,0.696006 -1.034854,0.338452 z"
       style="fill:#ffffff;fill-opacity:1;stroke-width:0.077" />
  </g>
</svg>
