<svg version="1.1" id="Layer_1" xmlns="http://www.w3.org/2000/svg" x="0" y="0" viewBox="0 0 32 32" xml:space="preserve"><style></style><path d="M24 2v2h4v24h-4v2h6V2h-6zm.9 17.6c-.3-1.5-1.3-2.7-2.7-3.2-1.1-.5-2.4-.5-3.5 0-.2.1-.4.2-.6.4L15.3 14c1.3-2.1.7-4.9-1.4-6.2-2.1-1.5-4.9-.9-6.3 1.3-1.3 2.1-.7 4.9 1.4 6.2 1.5.9 3.4.9 4.8 0l2.8 2.8c-.6 1-.8 2.2-.6 3.3.3 1.5 1.3 2.7 2.7 3.2 1.1.5 2.4.5 3.5 0 1.4-.6 2.4-1.8 2.7-3.2.1-.6.1-1.2 0-1.8zM11.5 14C10.1 14 9 12.9 9 11.5S10.1 9 11.5 9s2.5 1.1 2.5 2.5-1.1 2.5-2.5 2.5zM4 4h4V2H2v28h6v-2H4V4z" fill="#9855d4"/></svg>