<svg xmlns="http://www.w3.org/2000/svg" viewBox="0 0 32.2 32.2" x="0" y="0" height="50" width="50"><defs><style>.a{fill:#07bca9;}.b{fill:#fff;}</style></defs><title>GreenplumConnector_1</title><rect class="a" width="32.2" height="32.23"/><circle class="b" cx="16.1" cy="16.1" r="9.6"/><path class="a" d="M7.9,16a8,8,0,0,1,4.8-7.5,7.9,7.9,0,0,1,9,1.4,4.7,4.7,0,0,1,1,1,2,2,0,0,1-.1,2.2A6.5,6.5,0,0,1,21,14.8a23.3,23.3,0,0,0-3.6,3.4c-.8,1-1.5,2.1-2.2,3.1a6.9,6.9,0,0,1-1.1,1.3,1.9,1.9,0,0,1-2.6.3,6.8,6.8,0,0,1-2.7-3.1A8.2,8.2,0,0,1,7.9,16Z"/><path class="b" d="M12.3,15.8a3.6,3.6,0,0,1,2.2-3.2,3.8,3.8,0,0,1,4.1.4c.5.4.5.7.1,1.1l-.8.7a10.1,10.1,0,0,0-2.7,3.1l-.8,1c-.3.2-.6.3-.9,0A4,4,0,0,1,12.3,15.8Z"/></svg>
