<?xml version="1.0" encoding="UTF-8" standalone="no"?>
<svg
   xmlns:dc="http://purl.org/dc/elements/1.1/"
   xmlns:cc="http://creativecommons.org/ns#"
   xmlns:rdf="http://www.w3.org/1999/02/22-rdf-syntax-ns#"
   xmlns:svg="http://www.w3.org/2000/svg"
   xmlns="http://www.w3.org/2000/svg"
   id="svg1201"
   version="1.1"
   width="50"
   height="50"
   y="0"
   x="0"
   viewBox="0 0 32.2 32.2">
  <metadata
     id="metadata1205">
    <rdf:RDF>
      <cc:Work
         rdf:about="">
        <dc:format>image/svg+xml</dc:format>
        <dc:type
           rdf:resource="http://purl.org/dc/dcmitype/StillImage" />
        <dc:title>HBaseConnector</dc:title>
      </cc:Work>
    </rdf:RDF>
  </metadata>
  <defs
     id="defs1175">
    <style
       id="style1173">.a{fill:#07bca9;}.b{fill:#fff;}</style>
  </defs>
  <title
     id="title1177">HBaseConnector</title>
  <rect
     style="fill:#07bca9"
     y="-5.9329338e-008"
     x="0.02710617"
     id="rect1179"
     height="32.23"
     width="32.200001"
     class="a" />
  <path
     id="path856"
     d="m 15.251553,7.8397711 v 2.5250649 h 7.37604 a 2.2348327,2.2348327 0 0 1 2.227058,2.23578 2.2348327,2.2348327 0 0 1 -1.748793,2.179087 h -7.854305 v 2.523611 h 8.220636 a 2.2348327,2.2348327 0 0 1 2.227058,2.235781 2.2348327,2.2348327 0 0 1 -2.227058,2.234326 v -0.0189 h -8.220636 v 2.468372 h 8.220636 a 4.7219851,4.7219851 0 0 0 4.712874,-4.721596 4.7219851,4.7219851 0 0 0 -1.995922,-3.852288 4.7219853,4.7219853 0 0 0 1.151325,-3.086191 4.7219853,4.7219853 0 0 0 -4.712873,-4.7215953 v -0.00145 z"
     style="fill:#ffffff;fill-opacity:1;stroke-width:0.81562078" />
  <path
     id="rect4750-1"
     d="M 15.251553,7.8397711 V 14.779703 H 6.3331451 v 2.523611 h 8.9184079 v 6.919581 h 2.525066 V 7.8397711 Z"
     style="fill:#ffffff;fill-opacity:1;stroke-width:0.62916267" />
  <rect
     transform="matrix(0,-1,-1,0,0,0)"
     y="-7.4107585"
     x="-24.242001"
     height="2.5249193"
     width="16.439528"
     id="rect4750-1-1"
     style="fill:#ffffff;fill-opacity:1;stroke-width:0.63023502" />
</svg>
