<?xml version="1.0" encoding="UTF-8" standalone="no"?>
<svg
   xmlns:dc="http://purl.org/dc/elements/1.1/"
   xmlns:cc="http://creativecommons.org/ns#"
   xmlns:rdf="http://www.w3.org/1999/02/22-rdf-syntax-ns#"
   xmlns:svg="http://www.w3.org/2000/svg"
   xmlns="http://www.w3.org/2000/svg"
   xmlns:sodipodi="http://sodipodi.sourceforge.net/DTD/sodipodi-0.dtd"
   xmlns:inkscape="http://www.inkscape.org/namespaces/inkscape"
   viewBox="0 0 32.2 32.2"
   x="0"
   y="0"
   height="50"
   width="50"
   version="1.1"
   id="svg590"
   sodipodi:docname="HiveMetastorePX.svg"
   inkscape:version="0.92.4 (5da689c313, 2019-01-14)">
  <metadata
     id="metadata594">
    <rdf:RDF>
      <cc:Work
         rdf:about="">
        <dc:format>image/svg+xml</dc:format>
        <dc:type
           rdf:resource="http://purl.org/dc/dcmitype/StillImage" />
        <dc:title>HiveMetastorePX</dc:title>
      </cc:Work>
    </rdf:RDF>
  </metadata>
  <sodipodi:namedview
     pagecolor="#ffffff"
     bordercolor="#666666"
     borderopacity="1"
     objecttolerance="10"
     gridtolerance="10"
     guidetolerance="10"
     inkscape:pageopacity="0"
     inkscape:pageshadow="2"
     inkscape:window-width="1440"
     inkscape:window-height="837"
     id="namedview592"
     showgrid="false"
     inkscape:zoom="4.72"
     inkscape:cx="25"
     inkscape:cy="25"
     inkscape:window-x="2552"
     inkscape:window-y="-8"
     inkscape:window-maximized="1"
     inkscape:current-layer="svg590" />
  <defs
     id="defs578">
    <style
       id="style576">.a{fill:#07bca9;}.b{fill:#fff;}</style>
  </defs>
  <title
     id="title580">HiveMetastorePX</title>
  <rect
     class="a"
     width="32.2"
     height="32.23"
     id="rect582" />
  <path
     class="b"
     d="M16.1,16.6l3.8,2.2v4.4l-3.8,2.2-3.8-2.2V18.8l3.8-2.2m0-1.3-5,2.8v5.8l5,2.9,5-2.9V18.1l-5-2.8Z"
     id="path584" />
  <path
     class="b"
     d="M10.4,6.8,14.3,9v4.4l-3.9,2.2L6.6,13.4V9l3.8-2.2m0-1.4-5,2.9v5.8l5,2.9,5.1-2.9V8.3L10.4,5.4Z"
     id="path586" />
  <circle
     style="fill:#ffffff;fill-opacity:1;stroke-width:0.45222515"
     id="path254"
     cx="22.339718"
     cy="10.869974"
     r="4.978478" />
  <rect
     style="fill:#ffffff;fill-opacity:1;stroke-width:0.31670988"
     id="rect258"
     width="1.5421548"
     height="0.93870288"
     x="21.652451"
     y="5.1036572" />
  <rect
     style="fill:#ffffff;fill-opacity:1;stroke-width:0.31670985"
     id="rect258-9"
     width="1.5421548"
     height="0.93870288"
     x="10.03216"
     y="-28.163914"
     transform="rotate(90.264108)" />
  <rect
     style="fill:#ffffff;fill-opacity:1;stroke-width:0.31670988"
     id="rect258-6"
     width="1.5421548"
     height="0.93870288"
     x="21.635689"
     y="15.647302" />
  <rect
     style="fill:#ffffff;fill-opacity:1;stroke-width:0.31670985"
     id="rect258-9-7"
     width="1.5421548"
     height="0.93870288"
     x="10.13789"
     y="-17.491451"
     transform="rotate(90.264108)" />
  <rect
     style="fill:#ffffff;fill-opacity:1;stroke-width:0.31670985"
     id="rect258-9-7-4"
     width="1.5421548"
     height="0.93870288"
     x="-2.813715"
     y="-20.014095"
     transform="rotate(120.59059)" />
  <rect
     style="fill:#ffffff;fill-opacity:1;stroke-width:0.31670985"
     id="rect258-9-7-4-3"
     width="1.5421548"
     height="0.93870288"
     x="-2.912219"
     y="-30.490562"
     transform="rotate(120.59059)" />
  <rect
     style="fill:#ffffff;fill-opacity:1;stroke-width:0.31670985"
     id="rect258-9-7-4-3-6"
     width="1.5421547"
     height="0.93870288"
     x="19.998301"
     y="7.8682714"
     transform="matrix(0.50890005,0.86082561,0.86082561,-0.50890005,0,0)" />
  <rect
     style="fill:#ffffff;fill-opacity:1;stroke-width:0.31670985"
     id="rect258-9-7-4-3-6-9"
     width="1.5421546"
     height="0.93870288"
     x="19.963037"
     y="18.579601"
     transform="matrix(0.50890006,0.86082561,0.86082561,-0.50890006,0,0)" />
  <rect
     style="fill:#ffffff;fill-opacity:1;stroke-width:0.31670985"
     id="rect258-9-7-4-4"
     width="1.5421548"
     height="0.93870288"
     x="-14.715292"
     y="-15.795747"
     transform="rotate(149.97927)" />
  <rect
     style="fill:#ffffff;fill-opacity:1;stroke-width:0.31670985"
     id="rect258-9-7-4-4-6"
     width="1.5421548"
     height="0.93870288"
     x="-14.786501"
     y="-26.379951"
     transform="rotate(149.97927)" />
  <rect
     style="fill:#ffffff;fill-opacity:1;stroke-width:0.31670985"
     id="rect258-9-7-4-4-6-5"
     width="1.5421548"
     height="0.93870288"
     x="24.023155"
     y="-4.0205579"
     transform="matrix(0.86584443,0.50031332,0.50031332,-0.86584443,0,0)" />
  <rect
     style="fill:#ffffff;fill-opacity:1;stroke-width:0.31670985"
     id="rect258-9-7-4-4-6-5-6"
     width="1.5421548"
     height="0.93870288"
     x="23.999172"
     y="6.5747404"
     transform="matrix(0.86584443,0.50031333,0.50031333,-0.86584443,0,0)" />
  <circle
     style="fill:#07bca9;fill-opacity:1;stroke-width:0.4016808"
     id="path455"
     cx="22.381939"
     cy="10.943898"
     r="1.8490546" />
</svg>
