<?xml version="1.0" encoding="UTF-8" standalone="no"?>
<svg
   xmlns:dc="http://purl.org/dc/elements/1.1/"
   xmlns:cc="http://creativecommons.org/ns#"
   xmlns:rdf="http://www.w3.org/1999/02/22-rdf-syntax-ns#"
   xmlns:svg="http://www.w3.org/2000/svg"
   xmlns="http://www.w3.org/2000/svg"
   xmlns:sodipodi="http://sodipodi.sourceforge.net/DTD/sodipodi-0.dtd"
   xmlns:inkscape="http://www.inkscape.org/namespaces/inkscape"
   viewBox="0 0 32.2 32.2"
   x="0"
   y="0"
   height="50"
   width="50"
   version="1.1"
   id="svg563"
   sodipodi:docname="INFBLK10PX.svg"
   inkscape:version="0.92.4 (5da689c313, 2019-01-14)">
  <metadata
     id="metadata567">
    <rdf:RDF>
      <cc:Work
         rdf:about="">
        <dc:format>image/svg+xml</dc:format>
        <dc:type
           rdf:resource="http://purl.org/dc/dcmitype/StillImage" />
        <dc:title>INFBLK10PX</dc:title>
      </cc:Work>
    </rdf:RDF>
  </metadata>
  <sodipodi:namedview
     pagecolor="#ffffff"
     bordercolor="#666666"
     borderopacity="1"
     objecttolerance="10"
     gridtolerance="10"
     guidetolerance="10"
     inkscape:pageopacity="0"
     inkscape:pageshadow="2"
     inkscape:window-width="1440"
     inkscape:window-height="837"
     id="namedview565"
     showgrid="false"
     inkscape:zoom="9.44"
     inkscape:cx="25"
     inkscape:cy="25"
     inkscape:window-x="-8"
     inkscape:window-y="-8"
     inkscape:window-maximized="1"
     inkscape:current-layer="svg563" />
  <defs
     id="defs537">
    <style
       id="style535">.a{fill:#07bca9;}.b{fill:#fff;}</style>
  </defs>
  <title
     id="title539">INFBLK10PX</title>
  <rect
     class="a"
     width="32.2"
     height="32.23"
     id="rect541" />
  <path
     class="b"
     d="M16.2,5.1c3.4,0,6.1,1.1,6.1,2.3s-2.7,2.4-6.1,2.4S10,8.7,10,7.4s2.8-2.3,6.2-2.3m0-1.3C12.6,3.8,8.7,5,8.7,7.4s3.9,3.7,7.5,3.7,7.4-1.2,7.4-3.7-3.8-3.6-7.4-3.6Z"
     id="path543" />
  <path
     class="a"
     d="M16.1,27.1c-6.7,0-6.9-2.4-6.9-2.4V22.9c1.1.8,3.2,1.5,7,1.5s5.8-.7,7-1.5v1.9s-.3,2.3-7.1,2.3Z"
     id="path545" />
  <path
     class="b"
     d="M22.5,24v.7c-.1.5-1.5,1.8-6.4,1.8S10,25.2,9.8,24.6V24a16.3,16.3,0,0,0,6.4,1,15.4,15.4,0,0,0,6.3-1m1.3-3.1s0,2.8-7.6,2.8-7.7-2.8-7.7-2.8v3.8s0,3.1,7.6,3.1,7.7-3,7.7-3V20.9Z"
     id="path547" />
  <path
     class="a"
     d="M16.1,21.5c-6.7,0-6.9-2.4-6.9-2.5V17.2c1.1.8,3.2,1.5,7,1.5s5.6-.5,7-1.5v1.9S22.9,21.5,16.1,21.5Z"
     id="path549" />
  <path
     class="b"
     d="M22.5,18.3v.8s-.7,1.7-6.4,1.7S10,19.5,9.8,19v-.6a18.5,18.5,0,0,0,6.4,1,15.2,15.2,0,0,0,6.3-1.1m-14-3.1v3.9s0,3,7.6,3,7.7-3,7.7-3V16.8s0-.6-.3-.6l-.4.2c-.8.8-2.7,1.7-6.9,1.7-7.6,0-7.7-2.9-7.7-2.9Z"
     id="path551" />
  <path
     class="a"
     d="M16.1,15.9c-6.7,0-6.9-2.5-6.9-2.5V11.6c1.1.8,3.2,1.5,7,1.5s5.8-.7,7-1.5v1.9s-.3,2.4-7.1,2.4Z"
     id="path553" />
  <path
     class="b"
     d="M22.5,12.7v.7c-.1.5-1.5,1.8-6.4,1.8S10,13.9,9.8,13.4v-.7a16.3,16.3,0,0,0,6.4,1,15.4,15.4,0,0,0,6.3-1m1.3-3.1s0,2.8-7.6,2.8S8.5,9.6,8.5,9.6v3.8s0,3.1,7.6,3.1,7.7-3,7.7-3V9.6Z"
     id="path555" />
  <ellipse
     class="b"
     cx="18.273809"
     cy="23.245102"
     id="circle557"
     rx="9.215456"
     ry="5.8975472"
     style="fill:#ffffff;stroke-width:1.11699235" />
  <path
     class="b"
     d="m 18.231755,17.794339 a 8.3924352,5.4507634 0 1 1 0,10.81217 8.3924352,5.4507634 0 1 1 0,-10.81217 m 0,-0.893568 v 0 a 9.6306633,6.2549743 0 0 0 -6.879044,1.787136 9.7682443,6.3443311 0 0 0 6.879044,10.812169 9.6306633,6.2549743 0 0 0 6.879046,-1.787135 A 10.043406,6.5230447 0 0 0 28,23.245102 9.7682443,6.3443311 0 0 0 18.231755,16.900771 Z"
     id="path559"
     inkscape:connector-curvature="0"
     style="fill:#ffffff;stroke-width:1.10877347" />
  <rect
     style="fill:#07bca9;fill-opacity:1;stroke-width:0.41494739"
     id="rect569"
     width="3.0016949"
     height="0.86511678"
     x="10.574152"
     y="21.195938" />
  <rect
     style="fill:#07bca9;fill-opacity:1;stroke-width:0.40107363"
     id="rect571"
     width="1.0318326"
     height="3.8872187"
     x="11.605986"
     y="21.731485" />
  <rect
     style="fill:#07bca9;fill-opacity:1;stroke-width:0.41494739"
     id="rect569-6"
     width="3.0016949"
     height="0.86511678"
     x="10.574152"
     y="25.005682" />
  <rect
     style="fill:#07bca9;fill-opacity:1;stroke-width:0.39068332"
     id="rect569-4"
     width="2.1830506"
     height="1.0544868"
     x="13.780509"
     y="23.008774" />
  <text
     xml:space="preserve"
     style="font-style:normal;font-variant:normal;font-weight:bold;font-stretch:normal;font-size:5.27659798px;line-height:1.25;font-family:sans-serif;-inkscape-font-specification:'sans-serif Bold';letter-spacing:0px;word-spacing:0px;fill:#07bca9;fill-opacity:1;stroke:none;stroke-width:0.28267494"
     x="18.183308"
     y="22.85425"
     id="text1579"
     transform="scale(0.89097433,1.1223668)"><tspan
       sodipodi:role="line"
       id="tspan1577"
       x="18.183308"
       y="22.85425"
       style="font-style:normal;font-variant:normal;font-weight:bold;font-stretch:normal;font-family:sans-serif;-inkscape-font-specification:'sans-serif Bold';fill:#07bca9;fill-opacity:1;stroke-width:0.28267494">BLK</tspan></text>
</svg>
