<?xml version="1.0" encoding="UTF-8" standalone="no"?>
<svg
   xmlns:osb="http://www.openswatchbook.org/uri/2009/osb"
   xmlns:dc="http://purl.org/dc/elements/1.1/"
   xmlns:cc="http://creativecommons.org/ns#"
   xmlns:rdf="http://www.w3.org/1999/02/22-rdf-syntax-ns#"
   xmlns:svg="http://www.w3.org/2000/svg"
   xmlns="http://www.w3.org/2000/svg"
   xmlns:sodipodi="http://sodipodi.sourceforge.net/DTD/sodipodi-0.dtd"
   xmlns:inkscape="http://www.inkscape.org/namespaces/inkscape"
   viewBox="0 0 32.2 32.2"
   x="0"
   y="0"
   height="50"
   width="50"
   version="1.1"
   id="svg4126"
   sodipodi:docname="JAQLConnectorPX.svg"
   inkscape:version="0.92.4 (5da689c313, 2019-01-14)">
  <metadata
     id="metadata4130">
    <rdf:RDF>
      <cc:Work
         rdf:about="">
        <dc:format>image/svg+xml</dc:format>
        <dc:type
           rdf:resource="http://purl.org/dc/dcmitype/StillImage" />
        <dc:title>JAQLConnectorPX</dc:title>
      </cc:Work>
    </rdf:RDF>
  </metadata>
  <sodipodi:namedview
     pagecolor="#ffffff"
     bordercolor="#666666"
     borderopacity="1"
     objecttolerance="10"
     gridtolerance="10"
     guidetolerance="10"
     inkscape:pageopacity="0"
     inkscape:pageshadow="2"
     inkscape:window-width="1440"
     inkscape:window-height="837"
     id="namedview4128"
     showgrid="false"
     inkscape:zoom="9.4469466"
     inkscape:cx="18.88882"
     inkscape:cy="24.924942"
     inkscape:window-x="-8"
     inkscape:window-y="-8"
     inkscape:window-maximized="1"
     inkscape:current-layer="svg4126"
     showguides="true"
     inkscape:guide-bbox="true" />
  <defs
     id="defs4118">
    <linearGradient
       id="linearGradient4952"
       osb:paint="solid">
      <stop
         style="stop-color:#07bca9;stop-opacity:1;"
         offset="0"
         id="stop4950" />
    </linearGradient>
    <style
       id="style4116">.a{fill:#07bca9;}.b{fill:#fff;}</style>
  </defs>
  <title
     id="title4120">JAQLConnectorPX</title>
  <rect
     class="a"
     width="32.2"
     height="32.23"
     id="rect4122"
     style="stroke:none;fill:#07bca9;fill-opacity:1" />
  <g
     inkscape:groupmode="layer"
     id="layer1"
     inkscape:label="Layer 1" />
  <path
     style="fill:#ffffff;fill-opacity:1;stroke-width:0.53228211"
     d="m 4.5059481,10.852902 v 2.059357 h 2.5620965 v 4.234217 a 0.73600182,0.96033131 0 0 1 -0.3681699,0.832143 0.73600182,0.96033131 0 0 1 -0.7363386,0 0.73600182,0.96033131 0 0 1 -0.3681688,-0.832143 H 3.90541 a 2.4260799,3.1655362 0 0 0 1.2131486,2.741872 2.4260799,3.1655362 0 0 0 2.426296,0 2.4260799,3.1655362 0 0 0 1.2131473,-2.741872 h -0.00604 v -4.234217 h 0.9324942 v -2.059357 z"
     id="rect1070"
     inkscape:connector-curvature="0" />
  <rect
     style="fill:#ffffff;fill-opacity:1;stroke-width:0.66911203"
     id="rect1093"
     width="9.8601141"
     height="1.8133036"
     x="4.3705487"
     y="-16.824917"
     transform="matrix(-0.2654812,0.96411604,-0.90544106,-0.424472,0,0)" />
  <rect
     style="fill:#ffffff;fill-opacity:1;stroke-width:0.66935182"
     id="rect1093-3"
     width="9.8458815"
     height="1.8172268"
     x="15.911803"
     y="8.9982729"
     transform="matrix(0.27350078,0.96187178,0.90008207,-0.4357204,0,0)" />
  <rect
     style="fill:#ffffff;fill-opacity:1;stroke-width:0.31970528"
     id="rect1093-3-7"
     width="2.7911379"
     height="1.4624237"
     x="-14.636364"
     y="16.06118"
     transform="matrix(-0.99976645,-0.02161135,-0.0039969,0.99999201,0,0)" />
  <rect
     style="fill:#07bca9;fill-opacity:1;stroke-width:0.58831185"
     id="rect1125"
     width="3.6527495"
     height="2.2763405"
     x="11.562284"
     y="8.6812897" />
  <rect
     style="fill:#07bca9;fill-opacity:1;stroke-width:0.38813862"
     id="rect1125-5-7"
     width="3.6527495"
     height="0.99082202"
     x="16.447849"
     y="-22.58186"
     transform="matrix(1,0,0.38281188,-0.92382632,0,0)" />
  <rect
     style="fill:#07bca9;fill-opacity:1;stroke-width:0.58831185"
     id="rect1125-5-7-4"
     width="3.6527495"
     height="2.2763405"
     x="14.097403"
     y="19.778448" />
  <ellipse
     style="fill:#ffffff;fill-opacity:1;stroke-width:0.82923496"
     id="path1172"
     cx="20.018686"
     cy="15.330363"
     rx="3.0411873"
     ry="4.6211915" />
  <ellipse
     style="fill:#07bca9;fill-opacity:1;stroke-width:0.42763224"
     id="path1172-8"
     cx="20.015978"
     cy="15.219535"
     rx="1.4119909"
     ry="2.6469817" />
  <rect
     style="fill:#ffffff;fill-opacity:1;stroke-width:0.54198903"
     id="rect1191"
     width="3.8923066"
     height="1.6067367"
     x="26.477047"
     y="-8.8054571"
     transform="matrix(0.5484117,0.83620847,-0.70722031,0.70699323,0,0)" />
  <path
     style="fill:#ffffff;fill-opacity:1;stroke-width:0.92432839"
     d="M 38.476562 16.851562 L 38.476562 30.960938 L 41.011719 30.960938 L 46.683594 30.960938 L 46.683594 27.496094 L 41.011719 27.496094 L 41.011719 16.851562 L 38.476562 16.851562 z "
     transform="scale(0.644)"
     id="rect1193" />
</svg>
