<svg data-name="Layer 1" xmlns="http://www.w3.org/2000/svg" viewBox="0 0 32 32"><path d="M14 24v-1H4v-5h10.18A3 3 0 0117 16h1V3.5A1.5 1.5 0 0016.5 2h-13A1.5 1.5 0 002 3.5v20A1.5 1.5 0 003.5 25h10.6a5.47 5.47 0 01-.1-1zM4 4h12v5H4zm0 7h12v5H4zm10 19h16v-2H14zm2-11v5a3 3 0 003 3h5a3 3 0 003-3 3 3 0 000-6H17a1 1 0 00-1 1zm11 1a1 1 0 010 2zm-9 0h7v4a1 1 0 01-1 1h-5a1 1 0 01-1-1zm3.05-4.61c.67.34.95.48.95 1.61h2a3.24 3.24 0 00-2-3.39c-.67-.34-.95-.48-.95-1.61H19a3.24 3.24 0 002.05 3.39z" fill="#9855d4"/></svg>