<svg data-name="Layer 1" xmlns="http://www.w3.org/2000/svg" viewBox="0 0 32 32"><path d="M22.85 18.23a3.48 3.48 0 00-1.75-.47 3.5 3.5 0 00-2.39.95l-2.87-1.65a3.59 3.59 0 000-2.12l2.86-1.65a3.5 3.5 0 102.41-6 3.46 3.46 0 00-3.39 4.29l-2.87 1.62a3.94 3.94 0 00-1.84-1V8.83a3.49 3.49 0 10-2 0v3.3a4 4 0 000 7.72v3.3a3.51 3.51 0 102 0v-3.3a3.94 3.94 0 001.84-1.05l2.86 1.65a3.34 3.34 0 000 1.72 3.5 3.5 0 003.38 2.59 3.5 3.5 0 001.75-6.53zm-2.49-8.77a1.46 1.46 0 01.75-.2 1.5 1.5 0 01.75 2.8 1.46 1.46 0 01-.75.2 1.5 1.5 0 01-.75-2.8zm-9.86-4A1.5 1.5 0 1112 7a1.5 1.5 0 01-1.5-1.5zm3 21A1.5 1.5 0 1112 25a1.5 1.5 0 011.5 1.5zM12 18a2 2 0 112-2 2 2 0 01-2 2zm10.4 4a1.5 1.5 0 01-1.3.75 1.46 1.46 0 01-.75-.2 1.5 1.5 0 01.75-2.8 1.48 1.48 0 01.75.2A1.5 1.5 0 0122.4 22z" fill="#9855d4"/></svg>