<svg data-name="Layer 1" xmlns="http://www.w3.org/2000/svg" viewBox="0 0 32 32"><path d="M13.4 18a9.6 9.6 0 011.2-2H4v-5h12v3.6a9.6 9.6 0 012-1.2V3.5A1.5 1.5 0 0016.5 2h-13A1.5 1.5 0 002 3.5v20A1.5 1.5 0 003.5 25H13a10.2 10.2 0 01-.4-2H4v-5zM4 4h12v5H4zm18 10a8 8 0 108 8 8 8 0 00-8-8zm-3 13.2a6.5 6.5 0 01-.6-.4 5.7 5.7 0 01-1.1-1 4.9 4.9 0 01-.4-.6 6 6 0 01-.9-3l.7.2.8 1.2v.7a.5.5 0 00.1.3L19 26zm5.8-4.5l1.7.8.3 2a5.2 5.2 0 01-.4.5 5.2 5.2 0 01-.5.5 6 6 0 01-1.1.8h-.1a4 4 0 01-.5.2H24a4.1 4.1 0 01-.5.2h-1.4a6.3 6.3 0 01-1.3 0l.2-.7.9-2.3a.5.5 0 000-.4l-.7-1a.5.5 0 00-.4-.3h-2.5l-.7-1 1.1-1h.8v1h1v-1.4l2-3.4-1-.4-.4.7h-1.3l-.6-.8a4.3 4.3 0 01.6-.3h.1a4 4 0 01.4-.1l.2-.1h.4l.3-.1h2.2a5.5 5.5 0 01.6.2V18a.5.5 0 00.5.5h.7a.5.5 0 00.4-.2l.5-.7a6 6 0 011.3 1.9h-2a.5.5 0 00-.4.4l-.4 2.2a.5.5 0 00.2.6z" fill="#9855d4"/></svg>