<svg data-name="Layer 1" xmlns="http://www.w3.org/2000/svg" viewBox="0 0 32 32"><path d="M4 23V4h5.8v4.4a1.81 1.81 0 001.8 1.8H16V14a10 10 0 012-1.17V8.9a1.21 1.21 0 00-.35-.85l-5.58-5.58A1.61 1.61 0 0010.94 2H4a2 2 0 00-2 2v19a2 2 0 002 2h8.47a10.14 10.14 0 01-.41-2zm7.8-18L15 8.2h-3.2zM22 14a8 8 0 108 8 8 8 0 00-8-8zm-3 13.19a6.49 6.49 0 01-.61-.41h-.05a5.74 5.74 0 01-1.05-1 4.89 4.89 0 01-.41-.6A6 6 0 0116 22.2l.67.22.82 1.23v.64a.49.49 0 00.15.36L19 26zm5.83-4.53l1.67.84.34 2a5.15 5.15 0 01-.43.52v.05a5.22 5.22 0 01-.48.46 6 6 0 01-1.13.76h-.1a4 4 0 01-.51.23h-.14a4.13 4.13 0 01-.5.15h-.15l-.52.1H22.05a6.29 6.29 0 01-1.29-.14L21 27l.9-2.26a.48.48 0 000-.46l-.7-1.06a.5.5 0 00-.42-.22h-2.51l-.63-.94L18.71 21h.79v1h1v-1.37l1.93-3.38-.86-.5-.43.75h-1.37l-.55-.81a4.34 4.34 0 01.54-.25l.14-.05a4 4 0 01.41-.14l.23-.06.35-.08.28-.05h1.75l.45.08h.09a5.52 5.52 0 01.54.16V18a.5.5 0 00.5.5h.73a.5.5 0 00.42-.22l.44-.66a6 6 0 011.36 1.88h-2a.5.5 0 00-.49.4l-.36 2.24a.48.48 0 00.23.52z" fill="#9855d4"/></svg>