<svg data-name="Layer 1" xmlns="http://www.w3.org/2000/svg" viewBox="0 0 32 32"><path d="M4 4h15v5h2V3.9A1.9 1.9 0 0019.1 2H3.9A1.9 1.9 0 002 3.9v15.2A1.9 1.9 0 003.9 21h5.37v-2H4zm24.08 7h-15.2A1.91 1.91 0 0011 12.9v15.2a1.91 1.91 0 001.9 1.9h15.2a1.9 1.9 0 001.9-1.9V12.9a1.9 1.9 0 00-1.92-1.9zM28 28H13V13h15zM17 9V6h-3v3zM5.74 7.63A1.76 1.76 0 107.5 5.87a1.75 1.75 0 00-1.76 1.76zM5.5 17h4l-2-3zm11.18 8.71l3.8-3.81 3.81 3.81 1.42-1.42-3.81-3.81 3.81-3.8-1.42-1.42-3.81 3.81-3.8-3.81-1.42 1.42 3.81 3.8-3.81 3.81z" fill="#0072c3"/></svg>