<svg id="Layer_1" data-name="Layer 1" xmlns="http://www.w3.org/2000/svg" viewBox="0 0 32 32"><defs><style>.cls-1{fill:#0072c3}</style></defs><path class="cls-1" d="M26.1 28a1.88 1.88 0 001.9-1.89V7.92a1.89 1.89 0 00-.68-1.47 1.86 1.86 0 00-.49-.29 1.89 1.89 0 00-2.08.41L21.32 10l1.41 1.41L26 8.13V26H8.12l3.27-3.27L10 21.32l-3.44 3.42a1.91 1.91 0 00-.41 2.09 1.66 1.66 0 00.29.48A1.89 1.89 0 007.9 28z"/><path class="cls-1" d="M15 9.29l1.1 1.1a5.94 5.94 0 00-3.93 1.73 6 6 0 00-.64 7.72L13 18.39a4 4 0 01.61-4.85 3.89 3.89 0 012.55-1.14L15 13.54 16.4 15l3.53-3.54-3.53-3.58zm5.66 11.32a6 6 0 00.65-7.72l-1.46 1.45a4 4 0 01-.61 4.85 3.89 3.89 0 01-2.55 1.14l1.14-1.14-1.43-1.41-3.54 3.53 3.54 3.54 1.41-1.41-1.09-1.1a5.94 5.94 0 003.92-1.73z"/></svg>