<?xml version="1.0" encoding="UTF-8" standalone="no"?>
<svg
   xmlns:dc="http://purl.org/dc/elements/1.1/"
   xmlns:cc="http://creativecommons.org/ns#"
   xmlns:rdf="http://www.w3.org/1999/02/22-rdf-syntax-ns#"
   xmlns:svg="http://www.w3.org/2000/svg"
   xmlns="http://www.w3.org/2000/svg"
   xmlns:sodipodi="http://sodipodi.sourceforge.net/DTD/sodipodi-0.dtd"
   xmlns:inkscape="http://www.inkscape.org/namespaces/inkscape"
   viewBox="0 0 32.2 32.2"
   x="0"
   y="0"
   height="50"
   width="50"
   version="1.1"
   id="svg563"
   sodipodi:docname="PXClassicFederation.svg"
   inkscape:version="0.92.4 (5da689c313, 2019-01-14)">
  <metadata
     id="metadata567">
    <rdf:RDF>
      <cc:Work
         rdf:about="">
        <dc:format>image/svg+xml</dc:format>
        <dc:type
           rdf:resource="http://purl.org/dc/dcmitype/StillImage" />
        <dc:title>PXClassicFederation</dc:title>
      </cc:Work>
    </rdf:RDF>
  </metadata>
  <sodipodi:namedview
     pagecolor="#ffffff"
     bordercolor="#666666"
     borderopacity="1"
     objecttolerance="10"
     gridtolerance="10"
     guidetolerance="10"
     inkscape:pageopacity="0"
     inkscape:pageshadow="2"
     inkscape:window-width="1440"
     inkscape:window-height="837"
     id="namedview565"
     showgrid="false"
     inkscape:zoom="6.675088"
     inkscape:cx="25"
     inkscape:cy="25"
     inkscape:window-x="-8"
     inkscape:window-y="-8"
     inkscape:window-maximized="1"
     inkscape:current-layer="svg563"
     showguides="true"
     inkscape:guide-bbox="true">
    <sodipodi:guide
       position="16.1,38.749153"
       orientation="1,0"
       id="guide3645"
       inkscape:locked="false" />
    <sodipodi:guide
       position="-6.3444915,16.1"
       orientation="0,1"
       id="guide3647"
       inkscape:locked="false" />
  </sodipodi:namedview>
  <defs
     id="defs537">
    <style
       id="style535">.a{fill:#07bca9;}.b{fill:#fff;}</style>
  </defs>
  <title
     id="title539">PXClassicFederation</title>
  <rect
     class="a"
     width="32.2"
     height="32.23"
     id="rect541" />
  <path
     style="fill:#ffffff;fill-opacity:1;stroke:none;stroke-width:7.6776433;stroke-miterlimit:4;stroke-dasharray:none;stroke-opacity:1"
     d="M 16.1,3.9609478 A 12.484303,12.484303 0 0 0 3.6148322,16.444616 12.484303,12.484303 0 0 0 16.1,28.929784 12.484303,12.484303 0 0 0 28.583668,16.444616 12.484303,12.484303 0 0 0 16.1,3.9609478 Z m 0.08098,1.4230629 A 11.061012,11.061012 0 0 1 27.24158,16.444616 11.061012,11.061012 0 0 1 16.180975,27.506721 11.061012,11.061012 0 0 1 5.1203697,16.444616 11.061012,11.061012 0 0 1 16.180975,5.3840107 Z"
     id="path3627"
     inkscape:connector-curvature="0" />
  <path
     style="fill:#ffffff;fill-opacity:1;stroke-width:0.82615793"
     d="m 14.014545,5.1090803 -0.02767,2.9671798 -2.831335,0.00252 2.471601,2.4514769 2.472859,2.451476 2.367203,-2.457765 2.365946,-2.4565088 -3.164656,0.00377 0.02767,-2.9269297 z"
     id="rect5358"
     inkscape:connector-curvature="0" />
  <path
     style="fill:#ffffff;fill-opacity:1;stroke-width:0.82615787"
     d="m 14.014545,27.520987 -0.02767,-2.967179 -2.831335,-0.0025 2.471601,-2.451477 2.472859,-2.451476 2.367203,2.457765 2.365946,2.456508 -3.164656,-0.0038 0.02767,2.92693 z"
     id="rect5358-7"
     inkscape:connector-curvature="0" />
  <path
     style="fill:#ffffff;fill-opacity:1;stroke-width:0.82615787"
     d="m 4.9396722,14.014545 2.967179,-0.02767 0.0025,-2.831334 2.4514778,2.4716 2.451476,2.472859 -2.457765,2.367203 -2.4565088,2.365946 0.0038,-3.164656 -2.92693,0.02767 z"
     id="rect5358-7-8"
     inkscape:connector-curvature="0" />
  <path
     style="fill:#ffffff;fill-opacity:1;stroke-width:0.82615787"
     d="m 27.284023,14.014545 -2.967179,-0.02767 -0.0025,-2.831334 -2.451477,2.4716 -2.451476,2.472859 2.457765,2.367203 2.456508,2.365946 -0.0038,-3.164656 2.92693,0.02767 z"
     id="rect5358-7-8-9"
     inkscape:connector-curvature="0" />
</svg>
