<?xml version="1.0" encoding="UTF-8" standalone="no"?>
<svg
   xmlns:dc="http://purl.org/dc/elements/1.1/"
   xmlns:cc="http://creativecommons.org/ns#"
   xmlns:rdf="http://www.w3.org/1999/02/22-rdf-syntax-ns#"
   xmlns:svg="http://www.w3.org/2000/svg"
   xmlns="http://www.w3.org/2000/svg"
   id="svg4771"
   version="1.1"
   width="50"
   height="50"
   y="0"
   x="0"
   viewBox="0 0 32.2 32.2">
  <metadata
     id="metadata4775">
    <rdf:RDF>
      <cc:Work
         rdf:about="">
        <dc:format>image/svg+xml</dc:format>
        <dc:type
           rdf:resource="http://purl.org/dc/dcmitype/StillImage" />
        <dc:title>ColumnImport</dc:title>
      </cc:Work>
    </rdf:RDF>
  </metadata>
  <defs
     id="defs4759">
    <style
       id="style4757">.a{fill:#07bca9;}.b{fill:none;stroke:#fff;stroke-miterlimit:10;stroke-width:1.6px;}</style>
  </defs>
  <title
     id="title4761">ColumnImport</title>
  <rect
     y="-0.10062502"
     x="0"
     style="fill:#07bca9;fill-opacity:1"
     id="rect4763"
     height="32.23"
     width="32.200001"
     class="a" />
  <polyline
     transform="matrix(-0.53414707,0.58550259,-0.53521614,-0.58433308,24.809374,18.219717)"
     style="fill:none;stroke:#ffffff;stroke-width:1.60000002px;stroke-miterlimit:10"
     id="polyline4765"
     points="17 20.6 11.6 26 6.2 20.6 11.6 15.3"
     class="b" />
  <polyline
     transform="matrix(-0.53414707,0.58550259,-0.53521614,-0.58433308,24.809374,18.219717)"
     style="fill:none;stroke:#ffffff;stroke-width:1.60000002px;stroke-miterlimit:10"
     id="polyline4767"
     points="20.6 17 26 11.6 20.6 6.2 15.3 11.6"
     class="b" />
  <polyline
     transform="matrix(-0.53414707,0.58550259,-0.53521614,-0.58433308,42.257828,18.232383)"
     style="fill:none;stroke:#ffffff;stroke-width:1.60000002px;stroke-miterlimit:10"
     id="polyline4765-5"
     points="17 20.6 11.6 26 6.2 20.6 11.6 15.3"
     class="b" />
  <polyline
     transform="matrix(-0.53414707,0.58550259,-0.53521614,-0.58433308,42.257828,18.232383)"
     style="fill:none;stroke:#ffffff;stroke-width:1.60000002px;stroke-miterlimit:10"
     id="polyline4767-4"
     points="20.6 17 26 11.6 20.6 6.2 15.3 11.6"
     class="b" />
  <rect
     ry="0"
     y="15.950466"
     x="4.0983906"
     height="4.5805025"
     width="1.2137622"
     id="rect836"
     style="fill:#ffffff;fill-opacity:1;stroke-width:0.64399999" />
  <rect
     ry="0"
     y="16.020758"
     x="9.8190632"
     height="4.5805016"
     width="1.2087311"
     id="rect836-9"
     style="fill:#ffffff;fill-opacity:1;stroke-width:0.64399999" />
  <rect
     ry="0"
     y="15.878883"
     x="21.546329"
     height="4.5805025"
     width="1.2137622"
     id="rect836-6"
     style="fill:#ffffff;fill-opacity:1;stroke-width:0.64399999" />
  <rect
     ry="0"
     y="15.942059"
     x="27.270561"
     height="4.5805016"
     width="1.2087311"
     id="rect836-9-4"
     style="fill:#ffffff;fill-opacity:1;stroke-width:0.64399999" />
  <polygon
     style="fill:#ffffff;fill-opacity:1;stroke:#ffffff;stroke-width:1.60000002px;stroke-miterlimit:10"
     id="polygon10742-2"
     points="21.9,20.6 21.2,19.8 24.5,16.5 16.8,16.5 13.3,19.8 12.5,18.8 16.3,15.5 24.5,15.5 21.2,12.1 21.9,11.5 26.6,16 "
     class="b"
     transform="matrix(-0.00348395,0.54838086,-0.52106313,-0.00331582,24.89444,-7.0512425)" />
  <polyline
     transform="matrix(-0.53414707,0.58550259,-0.53521614,-0.58433308,33.618992,18.141984)"
     style="fill:none;stroke:#ffffff;stroke-width:1.60000002px;stroke-miterlimit:10"
     id="polyline4765-4-8"
     points="17 20.6 11.6 26 6.2 20.6 11.6 15.3"
     class="b" />
  <polyline
     transform="matrix(-0.53414707,0.58550259,-0.53521614,-0.58433308,33.618992,18.141984)"
     style="fill:none;stroke:#ffffff;stroke-width:1.60000002px;stroke-miterlimit:10"
     id="polyline4767-3"
     points="20.6 17 26 11.6 20.6 6.2 15.3 11.6"
     class="b" />
  <rect
     ry="0"
     y="15.872734"
     x="12.90801"
     height="4.5805025"
     width="1.2137622"
     id="rect836-66"
     style="fill:#ffffff;fill-opacity:1;stroke-width:0.64399999" />
  <rect
     y="12.570282"
     x="12.18057"
     height="1.288"
     width="8.533"
     id="rect1005"
     style="fill:#07bca9;fill-opacity:1;stroke-width:0.64399999" />
  <rect
     y="17.239283"
     x="11.858569"
     height="1.288"
     width="8.533"
     id="rect1005-2"
     style="fill:#07bca9;fill-opacity:1;stroke-width:0.64399999" />
  <rect
     y="21.908281"
     x="12.18057"
     height="1.288"
     width="8.533"
     id="rect1005-2-1"
     style="fill:#07bca9;fill-opacity:1;stroke-width:0.64399999" />
  <rect
     ry="0"
     y="15.800184"
     x="18.622862"
     height="4.5805025"
     width="1.2137622"
     id="rect836-66-7"
     style="fill:#ffffff;fill-opacity:1;stroke-width:0.64399999" />
  <rect
     y="17.239283"
     x="11.858568"
     height="1.288"
     width="8.533"
     id="rect1005-21"
     style="fill:#07bca9;fill-opacity:1;stroke-width:0.64399999" />
  <rect
     transform="matrix(-0.99999513,0.00311959,-0.00585497,-0.99998286,0,0)"
     y="-2.6999478"
     x="-20.362257"
     height="2.7579563"
     width="8.5329647"
     id="rect1005-8"
     style="fill:#07bca9;fill-opacity:1;stroke-width:0.94236833" />
  <polyline
     transform="matrix(-0.53414707,0.58550259,-0.53521614,-0.58433308,33.626107,18.220252)"
     style="fill:none;stroke:#ffffff;stroke-width:1.60000002px;stroke-miterlimit:10"
     id="polyline4765-4-8-6-4"
     points="17 20.6 11.6 26 6.2 20.6 11.6 15.3"
     class="b" />
  <rect
     y="12.615173"
     x="11.996179"
     height="1.288"
     width="8.533"
     id="rect1005-4"
     style="fill:#07bca9;fill-opacity:1;stroke-width:0.64399999" />
  <path
     transform="scale(0.644)"
     id="path2509"
     d="M 0.08200126,24.885153 V -0.11484565 H 25.0195 49.956999 V 24.885153 49.885152 H 25.0195 0.08200126 Z M 17.266028,41.478902 c -0.0019,-0.532812 -0.01597,-6.903124 -0.03125,-14.156249 L 17.207,14.135154 h -5.437499 -5.4375 V 28.323967 42.51278 L 11.800751,42.48022 17.2695,42.44766 17.266,41.47891 Z M 44.331999,28.322653 V 14.135154 H 38.8945 33.457 v 14.187499 14.187499 h 5.4375 5.437499 z M 30.957,39.197653 v -3.1875 h -0.996978 -0.996977 l -0.03427,2.09375 -0.03427,2.09375 -3.46875,0.03323 -3.46875,0.03323 V 38.13713 36.010153 h -1 -1 v 3.104166 c 0,1.707292 0.0375,3.141667 0.08333,3.1875 0.04583,0.04583 2.520833,0.08333 5.5,0.08333 H 30.957 Z m -9,-7.8125 v -2.625 h -1 -1 v 2.625 2.625 h 1 1 z m 8.875,0 v -2.625 h -1 -1 l 0.0011,1.96875 c 6.25e-4,1.082812 0.03656,2.264062 0.07991,2.625 l 0.07882,0.65625 h 0.920089 0.920089 v -2.625 z m -8.875,-7.25 v -2.625 h -1 -1 v 2.625 2.625 h 1 1 z m 8.875,0.125 c 0,-1.375 0.01406,-2.542187 0.03125,-2.59375 0.01719,-0.05156 -0.396966,-0.11004 -0.920341,-0.129948 l -0.951593,-0.0362 -0.07828,0.4737 c -0.04305,0.260533 -0.0789,1.444011 -0.07966,2.629948 l -0.0014,2.15625 h 1 1 z m -8.875,-6.232192 v -1.607194 l 0.768336,-0.08031 c 0.422585,-0.04417 1.997585,-0.08031 3.5,-0.08031 H 28.957 v 1.6875 1.687499 h 1 1 v -2.812499 -2.8125 h -5.5 -5.5 v 2.8125 2.812499 h 1 1 z m 5.883003,-7.813384 C 29.038726,8.9176341 30.036455,7.7849677 30.057179,7.6975404 30.077901,7.610113 29.803755,7.1887875 29.447964,6.7612614 L 28.801071,5.9839413 27.754036,7.0255379 26.707,8.0671345 V 6.0337777 4.0004209 l -1.09375,0.036117 -1.09375,0.036117 -0.03434,1.951225 -0.03433,1.951225 L 23.500535,6.9985865 22.55024,6.022068 21.74944,6.7295011 c -0.44044,0.3890883 -0.784856,0.773192 -0.76537,0.8535639 0.04637,0.1912423 4.51396,5.061044 4.605933,5.020596 0.03878,-0.01705 1.051276,-1.092141 2.25,-2.389084 z"
     style="fill:#1b5664;fill-opacity:1;stroke-width:0.12499999" />
  <path
     transform="scale(0.644)"
     id="path2511"
     d="m 8.362624,28.366896 0.031877,-12.044242 3.400393,-0.03325 3.400393,-0.03325 0.03711,11.970748 c 0.02041,6.583912 0.03711,11.978091 0.03711,11.987068 0,0.009 -1.56122,0.05701 -3.469377,0.106742 l -3.4693767,0.09042 z"
     style="fill:#1b5664;fill-opacity:1;stroke-width:0.12499999" />
  <path
     transform="scale(0.644)"
     id="path2513"
     d="m 35.457,34.593203 c 0,-3.185574 -0.03731,-8.585573 -0.08292,-12 l -0.08292,-6.208049 h 3.520418 3.520419 v 11.999999 12 H 38.8945 35.457 Z"
     style="fill:#1b5664;fill-opacity:1;stroke-width:0.12499999" />
</svg>
