<svg data-name="Layer 1" xmlns="http://www.w3.org/2000/svg" viewBox="0 0 32 32"><path d="M12 12h5v4h2v-4h5v2h2V5a2 2 0 00-2-2H5a2 2 0 00-2 2v19a2 2 0 002 2h7v-2zm7-7h5v5h-5zm-7 0h5v5h-5zm-2 19H5v-5h5zm0-7H5v-5h5zm0-7H5V5h5zm-2.5 6A1.5 1.5 0 106 14.5 1.5 1.5 0 007.5 16zm0 7A1.5 1.5 0 106 21.51 1.5 1.5 0 007.5 23zm0-14A1.5 1.5 0 106 7.51 1.5 1.5 0 007.5 9zm20.08 13.2L29 21l-1.22-2-1.8.56a4.72 4.72 0 00-1.39-.77L24.22 17h-2.44l-.37 1.8a5.24 5.24 0 00-1.41.78L18.22 19 17 21l1.42 1.24a4 4 0 000 1.55L17 25l1.22 2 1.78-.55a4.9 4.9 0 001.4.77l.38 1.78h2.44l.37-1.81a4.58 4.58 0 001.4-.78l1.79.58L29 25l-1.42-1.24a4 4 0 000-1.56zm-4.52 3.6h-.12a2.78 2.78 0 110-5.56h.12a2.78 2.78 0 110 5.56z" fill="#0072c3"/></svg>