<?xml version="1.0" encoding="UTF-8" standalone="no"?>
<svg
   xmlns:dc="http://purl.org/dc/elements/1.1/"
   xmlns:cc="http://creativecommons.org/ns#"
   xmlns:rdf="http://www.w3.org/1999/02/22-rdf-syntax-ns#"
   xmlns:svg="http://www.w3.org/2000/svg"
   xmlns="http://www.w3.org/2000/svg"
   id="svg4771"
   version="1.1"
   width="50"
   height="50"
   y="0"
   x="0"
   viewBox="0 0 32.2 32.2">
  <metadata
     id="metadata4775">
    <rdf:RDF>
      <cc:Work
         rdf:about="">
        <dc:format>image/svg+xml</dc:format>
        <dc:type
           rdf:resource="http://purl.org/dc/dcmitype/StillImage" />
        <dc:title>ColumnExport</dc:title>
      </cc:Work>
    </rdf:RDF>
  </metadata>
  <defs
     id="defs4759">
    <style
       id="style4757">.a{fill:#07bca9;}.b{fill:none;stroke:#fff;stroke-miterlimit:10;stroke-width:1.6px;}</style>
  </defs>
  <title
     id="title4761">ColumnExport</title>
  <rect
     y="-0.01524188"
     x="0.028461047"
     style="fill:#07bca9;fill-opacity:1"
     id="rect4763"
     height="32.23"
     width="32.200001"
     class="a" />
  <polyline
     transform="matrix(-0.53414707,0.58550259,-0.53521614,-0.58433308,24.776233,17.995583)"
     style="fill:none;stroke:#ffffff;stroke-width:1.60000002px;stroke-miterlimit:10"
     id="polyline4765"
     points="17 20.6 11.6 26 6.2 20.6 11.6 15.3"
     class="b" />
  <polyline
     transform="matrix(-0.53414707,0.58550259,-0.53521614,-0.58433308,24.776233,17.995583)"
     style="fill:none;stroke:#ffffff;stroke-width:1.60000002px;stroke-miterlimit:10"
     id="polyline4767"
     points="20.6 17 26 11.6 20.6 6.2 15.3 11.6"
     class="b" />
  <polyline
     transform="matrix(-0.53414707,0.58550259,-0.53521614,-0.58433308,42.224687,18.008249)"
     style="fill:none;stroke:#ffffff;stroke-width:1.60000002px;stroke-miterlimit:10"
     id="polyline4765-5"
     points="17 20.6 11.6 26 6.2 20.6 11.6 15.3"
     class="b" />
  <polyline
     transform="matrix(-0.53414707,0.58550259,-0.53521614,-0.58433308,42.224687,18.008249)"
     style="fill:none;stroke:#ffffff;stroke-width:1.60000002px;stroke-miterlimit:10"
     id="polyline4767-4"
     points="20.6 17 26 11.6 20.6 6.2 15.3 11.6"
     class="b" />
  <rect
     ry="0"
     y="15.726333"
     x="4.0652499"
     height="4.5805025"
     width="1.2137622"
     id="rect836"
     style="fill:#ffffff;fill-opacity:1;stroke-width:0.64399999" />
  <rect
     ry="0"
     y="15.796623"
     x="9.785923"
     height="4.5805016"
     width="1.2087311"
     id="rect836-9"
     style="fill:#ffffff;fill-opacity:1;stroke-width:0.64399999" />
  <rect
     ry="0"
     y="15.65475"
     x="21.513189"
     height="4.5805025"
     width="1.2137622"
     id="rect836-6"
     style="fill:#ffffff;fill-opacity:1;stroke-width:0.64399999" />
  <rect
     ry="0"
     y="15.717925"
     x="27.237421"
     height="4.5805016"
     width="1.2087311"
     id="rect836-9-4"
     style="fill:#ffffff;fill-opacity:1;stroke-width:0.64399999" />
  <polyline
     transform="matrix(-0.53414707,0.58550259,-0.53521614,-0.58433308,33.505934,18.008952)"
     style="fill:none;stroke:#ffffff;stroke-width:1.60000002px;stroke-miterlimit:10"
     id="polyline4767-1"
     points="20.6 17 26 11.6 20.6 6.2 15.3 11.6"
     class="b" />
  <rect
     y="20.036457"
     x="18.143545"
     height="2.6753387"
     width="0.39133942"
     id="rect958"
     style="fill:#07bca9;fill-opacity:1;stroke-width:0.64399999" />
  <polyline
     transform="matrix(-0.53414707,0.58550259,-0.53521614,-0.58433308,33.505934,18.008952)"
     style="fill:none;stroke:#ffffff;stroke-width:1.60000002px;stroke-miterlimit:10"
     id="polyline4765-4"
     points="17 20.6 11.6 26 6.2 20.6 11.6 15.3"
     class="b" />
  <polyline
     transform="matrix(-0.53414707,0.58550259,-0.53521614,-0.58433308,33.505934,18.008952)"
     style="fill:none;stroke:#ffffff;stroke-width:1.60000002px;stroke-miterlimit:10"
     id="polyline4767-3"
     points="20.6 17 26 11.6 20.6 6.2 15.3 11.6"
     class="b" />
  <rect
     ry="0"
     y="15.739701"
     x="12.794951"
     height="4.5805025"
     width="1.2137622"
     id="rect836-66"
     style="fill:#ffffff;fill-opacity:1;stroke-width:0.64399999" />
  <rect
     ry="0"
     y="15.809992"
     x="18.515625"
     height="4.5805016"
     width="1.2087311"
     id="rect836-9-48"
     style="fill:#ffffff;fill-opacity:1;stroke-width:0.64399999" />
  <rect
     y="12.437249"
     x="12.067512"
     height="1.288"
     width="8.533"
     id="rect1005"
     style="fill:#07bca9;fill-opacity:1;stroke-width:0.64399999" />
  <rect
     y="17.106251"
     x="11.745512"
     height="1.288"
     width="8.533"
     id="rect1005-2"
     style="fill:#07bca9;fill-opacity:1;stroke-width:0.64399999" />
  <rect
     y="21.775249"
     x="12.067513"
     height="1.288"
     width="8.533"
     id="rect1005-2-1"
     style="fill:#07bca9;fill-opacity:1;stroke-width:0.64399999" />
  <rect
     transform="rotate(-132.26764)"
     y="6.0939431"
     x="-17.491682"
     height="0.40556994"
     width="0.54787517"
     id="rect1723"
     style="fill:#07bca9;fill-opacity:1;stroke-width:0.64399999" />
  <polygon
     style="fill:#ffffff;fill-opacity:1;stroke:#ffffff;stroke-width:1.60000002px;stroke-miterlimit:10"
     id="polygon10742-2"
     points="26.6,16 21.9,20.6 21.2,19.8 24.5,16.5 16.8,16.5 13.3,19.8 12.5,18.8 16.3,15.5 24.5,15.5 21.2,12.1 21.9,11.5 "
     class="b"
     transform="matrix(0.0037453,-0.54837914,0.52106149,0.00356415,7.7683987,17.323187)" />
  <rect
     transform="matrix(0.99999542,-0.00302507,0.00395801,0.99999217,0,0)"
     y="7.5167031"
     x="12.139125"
     height="3.9201238"
     width="8.5329666"
     id="rect1005-8"
     style="fill:#07bca9;fill-opacity:1;stroke-width:1.12351012" />
  <polyline
     transform="matrix(-0.53414707,0.58550259,-0.53521614,-0.58433308,33.505934,18.008952)"
     style="fill:none;stroke:#ffffff;stroke-width:1.60000002px;stroke-miterlimit:10"
     id="polyline4765-4-0"
     points="17 20.6 11.6 26 6.2 20.6 11.6 15.3"
     class="b" />
  <rect
     y="12.576035"
     x="11.963039"
     height="1.288"
     width="8.533"
     id="rect1005-82"
     style="fill:#07bca9;fill-opacity:1;stroke-width:0.64399999" />
  <path
     transform="scale(0.644)"
     id="path2455"
     d="M 0.06410931,24.993398 V 0.00159314 H 25.055915 50.04772 V 24.993398 49.985204 H 25.055915 0.06410931 Z M 17.196692,42.05884 c 0.004,-0.0036 -0.02251,-2.850386 -0.05899,-6.326257 -0.06409,-6.10624 -0.06067,-10.464356 0.01467,-18.705184 l 0.02919,-3.193029 h -5.44304 -5.4430392 v 14.112672 c 0,7.761971 0.014915,14.128239 0.033146,14.147265 0.025725,0.02685 10.8374872,-0.0084 10.8680582,-0.03547 z M 30.738642,40.152 c -0.0019,-1.069499 -0.01647,-2.486475 -0.03246,-3.148835 l -0.02908,-1.204291 h -0.949115 -0.949115 l 0.01943,2.12132 0.01943,2.121321 h -3.527148 -3.527148 v -2.121321 -2.12132 h -0.950175 -0.950175 v 3.160057 3.160058 l 5.439462,-0.01122 5.439462,-0.01122 -0.0034,-1.944544 z M 44.28571,40.560796 C 44.1936,35.373982 44.160814,27.345546 44.20869,21.700932 44.23642,18.431668 44.25892,15.334209 44.2587,14.81769 l -4.11e-4,-0.939126 H 38.8224 33.386516 v 14.120038 14.120039 h 5.463429 5.463426 z M 21.763449,31.180583 v -2.629554 h -0.950175 -0.950175 v 2.629554 2.629553 h 0.950175 0.950175 z m 8.912153,1.69435 c -0.01602,-0.514362 -0.02912,-1.697661 -0.02912,-2.629554 v -1.69435 h -0.950175 -0.950175 v 2.629554 2.629553 h 0.9793 0.9793 z m -8.912153,-8.831709 v -2.519068 h -0.950175 -0.950175 v 2.519068 2.519068 h 0.950175 0.950175 z m 8.883208,0.563475 c 8.8e-5,-1.075575 0.01311,-2.209156 0.02892,-2.519068 l 0.02874,-0.563475 H 29.72522 28.746128 v 2.519068 2.519068 h 0.950175 0.950175 l 1.76e-4,-1.955593 z M 21.763449,17.745554 V 15.95569 h 3.513436 3.513437 v 1.789864 1.789864 h 0.950175 0.950175 v -1.031321 c 0,-0.567226 0.01318,-1.840018 0.02928,-2.828427 l 0.02928,-1.797106 H 25.30877 c -2.992254,0 -5.450754,0.01665 -5.463333,0.037 -0.01258,0.02035 -0.01053,1.293145 0.0046,2.828427 l 0.02742,2.791422 h 0.943015 0.943015 z m 4.424097,-7.612447 c 0.0026,-0.8203539 0.01749,-1.6668005 0.03314,-1.880992 l 0.02847,-0.389439 0.950175,1.0189581 c 0.522596,0.5604268 0.963306,1.0140976 0.979356,1.0081575 0.07303,-0.027032 1.630142,-1.4625456 1.618797,-1.492386 -0.02123,-0.055841 -4.602068,-5.0370553 -4.63219,-5.0370553 -0.01536,0 -1.046589,1.1040364 -2.291624,2.453414 -1.471631,1.5949646 -2.252185,2.4725199 -2.230791,2.5080193 0.08024,0.1331381 1.258957,1.5793045 1.287235,1.5793045 0.01734,0 0.504008,-0.4721697 1.08148,-1.0492665 l 1.049951,-1.049266 v 1.9110524 1.911053 h 1.06066 1.06066 z"
     style="fill:#07bca9;fill-opacity:1;stroke-width:0.04419417" />
  <path
     transform="scale(0.644)"
     id="path2457"
     d="M 0.06410931,24.993398 V 0.00159314 H 25.055915 50.04772 V 24.993398 49.985204 H 25.055915 0.06410931 Z M 17.194996,42.057312 c 0.0031,-0.0027 -0.02318,-2.759364 -0.0584,-6.125856 -0.06189,-5.914942 -0.05691,-11.932727 0.01589,-19.19132 L 17.18163,13.83437 H 11.738559 6.2954878 v 14.072229 c 0,7.739727 0.012304,14.104294 0.027342,14.143483 0.02503,0.06523 0.4856065,0.06876 5.4469322,0.04172 2.980774,-0.01624 5.422128,-0.03176 5.425234,-0.03449 z m 13.53987,-1.831831 c 0,-1.041238 -0.01315,-2.463185 -0.02921,-3.159883 l -0.02921,-1.266724 H 29.72712 28.777794 l 0.02187,2.12132 0.02187,2.121321 h -3.529043 -3.529042 v -2.121321 -2.12132 h -0.950175 -0.950175 v 3.159883 3.159884 h 5.435884 5.435883 z m 13.551768,0.622577 c -0.08689,-3.906487 -0.125786,-13.659944 -0.07777,-19.500679 0.02767,-3.366491 0.05011,-6.424176 0.04987,-6.794854 l -4.51e-4,-0.673961 H 38.8224 33.386516 v 14.120038 14.120039 h 5.464189 5.464191 z M 21.763449,31.180583 v -2.629554 h -0.950175 -0.950175 v 2.629554 2.629553 h 0.950175 0.950175 z m 8.912238,1.800912 c -0.01593,-0.455752 -0.02902,-1.639051 -0.02908,-2.629553 l -1.25e-4,-1.800913 h -0.950175 -0.950175 v 2.629554 2.629553 h 0.979259 0.97926 z m -8.912238,-8.938271 v -2.519068 h -0.950175 -0.950175 v 2.519068 2.519068 h 0.950175 0.950175 z m 8.883029,0.470913 c 0,-1.126484 0.01297,-2.260065 0.02881,-2.519068 l 0.02881,-0.470913 H 29.72511 28.746122 v 2.519068 2.519068 h 0.950175 0.950175 z M 21.763449,17.745554 V 15.95569 h 3.513436 3.513437 v 1.789864 1.789864 h 0.950175 0.950175 l 8.8e-5,-1.270583 c 3.7e-5,-0.69882 0.0132,-1.971612 0.02926,-2.828427 l 0.02917,-1.557844 h -5.443045 -5.443044 v 2.828427 2.828427 h 0.950175 0.950175 z m 4.424582,-7.722932 c 0.0028,-0.8811213 0.01776,-1.728747 0.03315,-1.8836127 l 0.02798,-0.2815743 0.758914,0.8119044 c 0.417403,0.4465472 0.854925,0.9049654 0.972272,1.0187071 l 0.213358,0.2068031 0.464039,-0.4251228 c 0.255221,-0.2338181 0.62039,-0.5681841 0.811487,-0.7430366 l 0.347448,-0.317913 -0.94407,-1.0317766 C 26.478708,4.7607011 25.198834,3.3824474 25.163184,3.3824474 c -0.02135,0 -0.709457,0.7258893 -1.529137,1.6130874 -2.248729,2.4339587 -2.975453,3.2413642 -2.975453,3.3057922 0,0.061244 1.226158,1.5997611 1.274967,1.5997611 0.01545,0 0.500562,-0.4721697 1.078034,-1.0492665 l 1.049951,-1.049266 v 1.9110524 1.911053 h 1.06066 1.06066 z"
     style="fill:#07bca9;fill-opacity:1;stroke-width:0.04419417" />
  <path
     transform="scale(0.644)"
     id="path2484"
     d="M 0.04838651,25.009682 V 0.00968234 h 24.99999949 25 v 24.99999966 25 h -25 H 0.04838651 Z M 30.735602,39.681557 c -1.25e-4,-1.349218 -0.01852,-2.769531 -0.0408,-3.15625 l -0.04051,-0.703125 H 29.726341 28.79839 v 2.09375 2.09375 h -3.5 -3.5 v -2.09375 -2.09375 h -0.96875 -0.96875 v 3.15625 3.15625 h 5.4375 5.4375 l -3.12e-4,-2.453125 z m 13.5221,-0.34375 c -0.02919,-1.538281 -0.04891,-7.894531 -0.04384,-14.125 l 0.0092,-11.328125 h -5.431104 -5.431105 l 2.7e-5,6.109375 c 1.5e-5,3.360157 0.01873,9.716407 0.04159,14.125 l 0.04156,8.015625 h 5.433355 5.433355 z M 17.142136,27.947187 V 13.822191 l -5.421875,-4e-6 -5.4218745,-5e-6 v 14.125 14.125 l 5.4218745,1e-6 5.421875,10e-7 z m 4.627947,5.807728 c 0.02286,-0.037 0.02082,-1.218247 -0.0045,-2.625 l -0.04612,-2.557733 h -0.929264 -0.929265 v 2.625 2.625 h 0.933812 c 0.599243,0 0.948707,-0.0241 0.975385,-0.06727 z m 8.903303,-2.557733 v -2.625 h -0.96875 -0.96875 v 2.625 2.625 h 0.96875 0.96875 z m -8.926274,-5.609375 c 0.01101,-0.541406 0.01121,-1.680468 4.38e-4,-2.53125 l -0.01959,-1.546875 h -0.933539 -0.933539 v 2.53125 2.53125 h 0.933101 0.9331 z m 8.911358,-1.5625 0.01633,-2.515625 h -0.96946 -0.969459 v 2.532878 2.532878 l 0.953125,-0.01725 0.953125,-0.01725 z m -8.922584,-6.296875 v -1.78125 h 3.53125 3.53125 v 1.78125 1.78125 h 0.927386 0.927386 l 0.04126,-2.109375 c 0.0227,-1.160156 0.04131,-2.425781 0.04137,-2.8125 l 10e-5,-0.703125 h -5.4375 -5.4375 v 2.8125 2.8125 h 0.9375 0.9375 z m 4.444284,-7.609375 c 0.0037,-0.8335934 0.02482,-1.6807309 0.04687,-1.8825278 l 0.04009,-0.3669031 0.341845,0.3669031 c 0.188015,0.2017969 0.616546,0.6589675 0.952292,1.0159344 l 0.610447,0.6490312 0.475921,-0.4302812 c 0.261757,-0.2366544 0.63262,-0.5723819 0.824141,-0.74606 L 29.820001,8.4093748 27.699819,6.1099508 C 26.533718,4.8452677 25.499565,3.7147119 25.4017,3.5976046 25.303834,3.4804973 25.201755,3.3846823 25.174857,3.3846823 c -0.0269,0 -0.962224,0.9914063 -2.078502,2.203125 -2.29926,2.4958419 -2.422969,2.6345269 -2.422969,2.7162882 0,0.048156 0.989525,1.3291862 1.195305,1.5474306 0.0358,0.037971 0.453367,-0.3351269 1.118414,-0.9993107 l 1.061281,-1.0599043 v 1.9211856 1.9211853 h 1.0625 1.0625 z"
     style="fill:#1b5664;fill-opacity:1;stroke-width:0.0625" />
  <path
     transform="scale(0.644)"
     id="path2486"
     d="m 8.2358865,27.978432 v -12.03125 l 3.4843745,4e-6 3.484375,4e-6 6.25e-4,12.031246 5.89e-4,12.031246 H 11.720868 8.2358865 Z"
     style="fill:#1b5664;fill-opacity:1;stroke-width:0.0625" />
  <path
     transform="scale(0.644)"
     id="path2488"
     d="m 35.298386,27.978432 v -12.03125 h 3.499082 3.499082 l -0.0011,10.140625 c -6.25e-4,5.577344 0.01822,10.991407 0.04188,12.03125 l 0.04301,1.890625 H 38.839381 35.29842 Z"
     style="fill:#1b5664;fill-opacity:1;stroke-width:0.0625" />
</svg>
