<svg xmlns="http://www.w3.org/2000/svg" viewBox="0 0 32 32"><path d="M9 12H6c-.6 0-1 .4-1 1v5c0 .6.4 1 1 1h3c.6 0 1-.4 1-1v-5c0-.6-.4-1-1-1zm-1 5H7v-3h1v3zm22-.8c0-.2-.1-.3-.2-.5l-.1-.1c-.1-.2-.2-.3-.3-.4l-4.6-4.6-.3-.3-.2-.1-.2-.1H18V8.6v-.4c0-.2-.1-.3-.2-.5l-.1-.1c-.1-.2-.2-.3-.3-.4l-4.6-4.6-.3-.3-.2-.1-.2-.1H4c-1.1 0-2 .8-2 1.9v16c0 1.1.9 2 2 2h10v6c0 1.1.9 2 2 2h12c1.1 0 2-.9 2-2V16.6v-.4zM14 17h-1v-3h1v3zm0-5h-2c-.6 0-1 .4-1 1v5c0 .6.4 1 1 1h2v1H4V4h5.4v4.6c0 1.1.9 2 2 2h3.2c-.4.3-.6.9-.6 1.4zm-2.6-3.4V4L16 8.6h-4.6zM28 28H16V12h5.4v4.6c0 1.1.9 2 2 2H28V28zm-4.6-11.4V12l4.6 4.6h-4.6zM21 21v5c0 .6.4 1 1 1h3c.6 0 1-.4 1-1v-5c0-.6-.4-1-1-1h-3c-.6 0-1 .4-1 1zm2 1h1v3h-1v-3zm-5 5h2v-7h-2v7z" fill="#0072c3"/></svg>