<svg data-name="Layer 1" xmlns="http://www.w3.org/2000/svg" viewBox="0 0 32 32"><path d="M26 21a1 1 0 10-1 1 1 1 0 001-1zm2.5-3.64a5 5 0 00-7.07.13l1.44 1.39A3 3 0 0125 18a3 3 0 012.14.84 3 3 0 11-4.16 4.32l-1.44 1.44A5 5 0 0025 26h.09a5 5 0 003.38-8.6zm-10.2 7.35L22 21l-3.7-3.71-1.41 1.42L18.18 20H10v2h8.18l-1.29 1.29zM18 3.86A1.88 1.88 0 0016.1 2H3.9A1.89 1.89 0 002 3.87v21.32a1.91 1.91 0 002 1.87l-.1-2a.12.12 0 01.1.13V4h14zM8 8h12v6h2V7.9A1.9 1.9 0 0020.08 6H7.88A1.9 1.9 0 006 7.9v20.2A1.9 1.9 0 007.88 30H20v-2H8z" fill="#9855d4"/></svg>