<svg xmlns="http://www.w3.org/2000/svg" viewBox="0 0 32.2 32.2"><defs><style>.a{fill:#07bca9;}.b{fill:#fff;}.c,.d,.e{fill:none;stroke:#fff;stroke-miterlimit:10;}.d,.e{stroke-width:2px;}.e{stroke-dasharray:3.02 2.01;}</style></defs><title>FTP</title><rect class="a" width="32.2" height="32.23"/><path class="b" d="M25.5,12.8l.9.9h0l.9.9v4H24.1V12.8h1.4m.6-1.5H22.6v8.8h6.2V13.9l-1.4-1.3-1.3-1.3Z"/><polyline class="c" points="26 11.8 26 14.1 28.2 14.1"/><line class="d" x1="3.7" y1="24.7" x2="5.2" y2="24.7"/><line class="e" x1="7.2" y1="24.7" x2="26.3" y2="24.7"/><line class="d" x1="27.3" y1="24.7" x2="28.8" y2="24.7"/><path class="b" d="M16,6.6l.9.9H17l.9.9v4.1H14.7V6.6H16m.7-1.5H13.2V14h6.2V7.8L18,6.5,16.7,5.1Z"/><polyline class="c" points="16.5 5.6 16.5 7.9 18.8 7.9"/><path class="b" d="M6.6,12.8l.9.9h0l.9.9v4.1H5.2V12.8H6.6m.6-1.5H3.7v8.9H9.9V14L8.5,12.7,7.2,11.3Z"/><polyline class="c" points="7.1 11.8 7.1 14.1 9.3 14.1"/></svg>
