<svg xmlns="http://www.w3.org/2000/svg" viewBox="0 0 32 32"><path d="M3 9h8c.6 0 1-.4 1-1V3c0-.6-.4-1-1-1H3c-.6 0-1 .4-1 1v5c0 .6.4 1 1 1zm1-5h6v3H4V4zM3 19.5h8c.6 0 1-.4 1-1v-5c0-.6-.4-1-1-1H3c-.6 0-1 .4-1 1v5c0 .6.4 1 1 1zm1-5h6v3H4v-3zM3 30h8c.6 0 1-.4 1-1v-5c0-.6-.4-1-1-1H3c-.6 0-1 .4-1 1v5c0 .6.4 1 1 1zm1-5h6v3H4v-3zM27 9h-9l3.4-3.6L20 4l-6 6 6 6 1.4-1.4L18 11h9c.6 0 1 .4 1 1v12c0 .6-.4 1-1 1H15v2h12c1.7 0 3-1.3 3-3V12c0-1.7-1.3-3-3-3z" fill-rule="evenodd" clip-rule="evenodd" fill="#0072c3"/></svg>