<svg data-name="Layer 1" xmlns="http://www.w3.org/2000/svg" viewBox="0 0 32 32"><path d="M29.7 7.13L25 2.4a1.35 1.35 0 00-1-.4h-5.88a1.69 1.69 0 00-1.69 1.69V4h6.27v3.6a1.7 1.7 0 001.7 1.7H28V19h-9v-4a2 2 0 00-2-2h-4.79l1.88-3.55h3.16l-.88.89 1.41 1.41L21 8.52l-3.22-3.23-1.41 1.41.74.75h-4.23L10 13H4a2 2 0 00-2 2v13a2 2 0 002 2h13a2 2 0 002-2v-7h9.31A1.69 1.69 0 0030 19.31V7.85a1 1 0 00-.3-.72zm-5 .17V5L27 7.3zM7 28H4v-3h3zm0-5H4v-3h3zm0-5H4v-3h3zm5 10H9v-3h3zm0-5H9v-3h3zm0-5H9v-3h3zm5 10h-3v-3h3zm0-5h-3v-3h3zm0-5h-3v-3h3zm-6.5-.5a1 1 0 10-1-1 1 1 0 001 1zm0 5a1 1 0 10-1-1 1 1 0 001 1zm0 5a1 1 0 10-1-1 1 1 0 001 1z" fill="#9855d4"/></svg>