<svg data-name="Layer 1" xmlns="http://www.w3.org/2000/svg" viewBox="0 0 32 32"><path d="M14.89 20.71l1.3 1.29H14.5a3.5 3.5 0 01-3.5-3.5V15H9v3.5a5.51 5.51 0 005.5 5.5h1.69l-1.3 1.29 1.42 1.42L20 23l-3.7-3.71zM10 8V5a2 2 0 00-2-2H5a2 2 0 00-2 2v3a2 2 0 002 2h3a2 2 0 002-2zm17 4h-3a2 2 0 00-2 2v13a2 2 0 002 2h3a2 2 0 002-2V14a2 2 0 00-2-2zm-3 7h3v3h-3zm0 8v-3h3v3zm0-10v-3h3v3zm3-14H14a2 2 0 00-2 2v3a2 2 0 002 2h13a2 2 0 002-2V5a2 2 0 00-2-2zM17 8h-3V5h3zm5 0h-3V5h3zm2 0V5h3v3z" fill="#0072c3"/></svg>