<svg data-name="Layer 1" xmlns="http://www.w3.org/2000/svg" viewBox="0 0 32 32"><path d="M8 12H5a2 2 0 00-2 2v13a2 2 0 002 2h3a2 2 0 002-2V14a2 2 0 00-2-2zm0 15H5v-3h3zm0-5H5v-3h3zm0-5H5v-3h3zM26 3h-3a2 2 0 00-2 2v3a2 2 0 002 2h3a2 2 0 002-2V5a2 2 0 00-2-2zm-12 7h3a2 2 0 002-2V5a2 2 0 00-2-2h-3a2 2 0 00-2 2v3a2 2 0 002 2zM8 3H5a2 2 0 00-2 2v3a2 2 0 002 2h3a2 2 0 002-2V5a2 2 0 00-2-2zm8.3 14.7l1.4 1.4 1.3-1.3v1.7a3.5 3.5 0 01-3.5 3.5H12v2h3.5a5.5 5.5 0 005.5-5.5v-1.7l1.3 1.3 1.4-1.4L20 14z" fill="#0072c3"/></svg>