<svg data-name="Layer 1" xmlns="http://www.w3.org/2000/svg" viewBox="0 0 32 32"><path d="M22.09 22H19.9a.9.9 0 00-.9.91v2.19a.9.9 0 00.9.9h2.19a.9.9 0 00.91-.9v-2.2a.91.91 0 00-.91-.9zm4-9H23.9a.9.9 0 00-.9.91v2.19a.9.9 0 00.9.9h2.19a.9.9 0 00.91-.9v-2.2a.91.91 0 00-.91-.9zm-15.7-4.12a5 5 0 017.07 0L18.58 10h-3.24v2H22V5.35h-2v3.24l-1.13-1.12a7 7 0 00-9.9 0L7.56 8.88 9 10.3zM11 20.74L13.22 23H12a5 5 0 01-5-5v-2H5v2a7 7 0 006.66 7h1.62L11 27.32l1.41 1.42L17.08 24l-4.71-4.71z" fill="#0072c3"/></svg>