<svg data-name="Layer 1" xmlns="http://www.w3.org/2000/svg" viewBox="0 0 32 32"><path d="M8 12H5a2 2 0 00-2 2v13a2 2 0 002 2h3a2 2 0 002-2V14a2 2 0 00-2-2zm-3 7h3v3H5zm0 8v-3h3v3zm0-10v-3h3v3zm11.3 1.7l1.4 1.4 1.3-1.3v1.7a3.5 3.5 0 01-3.5 3.5H12v2h3.5a5.5 5.5 0 005.5-5.5v-1.7l1.3 1.3 1.4-1.4L20 15zM8 3H5a2 2 0 00-2 2v3a2 2 0 002 2h3a2 2 0 002-2V5a2 2 0 00-2-2zm6 8h3a2 2 0 002-2V6a2 2 0 00-2-2h-3a2 2 0 00-2 2v3a2 2 0 002 2zm0-5h3v3h-3zm12 0h-3a2 2 0 00-2 2v3a2 2 0 002 2h3a2 2 0 002-2V8a2 2 0 00-2-2zm-3 5V8h3v3z" fill="#0072c3"/></svg>