<svg data-name="Layer 1" xmlns="http://www.w3.org/2000/svg" viewBox="0 0 32 32"><path d="M26 12h-3a2 2 0 00-2 2v13a2 2 0 002 2h3a2 2 0 002-2V14a2 2 0 00-2-2zm-3 7h3v3h-3zm0 8v-3h3v3zm0-10v-3h3v3zM10 8V5a2 2 0 00-2-2H5a2 2 0 00-2 2v3a2 2 0 002 2h3a2 2 0 002-2zm7-5h-3a2 2 0 00-2 2v3a2 2 0 002 2h3a2 2 0 002-2V5a2 2 0 00-2-2zm9 0h-3a2 2 0 00-2 2v3a2 2 0 002 2h3a2 2 0 002-2V5a2 2 0 00-2-2zM12 19.5v-1.7l1.3 1.3 1.4-1.4L11 14l-3.7 3.7 1.4 1.4 1.3-1.3v1.7a5.5 5.5 0 005.5 5.5H19v-2h-3.5a3.5 3.5 0 01-3.5-3.5z" fill="#0072c3"/></svg>