<svg xmlns="http://www.w3.org/2000/svg" viewBox="0 0 32.2 32.2" x="0" y="0" height="50" width="50"><defs><style>.a{fill:#07bba8;}.b{fill:#fff;}.c{fill:#07bca9;}</style></defs><title>Pxsqlsvr_1</title><rect class="a" width="32.2" height="32.23"/><path class="b" d="M16.1,5.1c3.4,0,6.2,1.1,6.2,2.3s-2.8,2.4-6.2,2.4S10,8.7,10,7.4s2.7-2.3,6.1-2.3m0-1.3C12.5,3.8,8.7,5,8.7,7.4s3.8,3.7,7.4,3.7,7.5-1.2,7.5-3.7-3.9-3.6-7.5-3.6Z"/><path class="c" d="M16.1,27.1c-6.7,0-7-2.4-7-2.4V22.9c1.1.8,3.2,1.5,7,1.5s5.9-.7,7-1.5v1.9s-.3,2.3-7,2.3Z"/><path class="b" d="M22.5,24v.7c-.2.5-1.6,1.8-6.4,1.8s-6.2-1.3-6.3-1.9V24a15.4,15.4,0,0,0,6.3,1,16.3,16.3,0,0,0,6.4-1m1.3-3.1s-.1,2.8-7.7,2.8-7.6-2.8-7.6-2.8v3.8s0,3.1,7.6,3.1,7.7-3,7.7-3V20.9Z"/><path class="c" d="M16.1,21.5c-6.7,0-7-2.4-7-2.5V17.2c1.1.8,3.2,1.5,7,1.5s5.6-.5,7-1.5v1.9S22.8,21.5,16.1,21.5Z"/><path class="b" d="M22.5,18.3V19c-.2.6-1.6,1.8-6.4,1.8S9.9,19.5,9.8,19v-.6a17.4,17.4,0,0,0,6.3,1,16,16,0,0,0,6.4-1.1m-14-3.1v3.9s0,3,7.6,3,7.7-3,7.7-3V16.8s-.1-.6-.3-.6l-.4.2c-.9.8-2.7,1.7-7,1.7-7.6,0-7.6-2.9-7.6-2.9Z"/><path class="c" d="M16.1,15.9c-6.7,0-7-2.5-7-2.5V11.6c1.1.8,3.2,1.5,7,1.5s5.9-.7,7-1.5v1.9s-.3,2.4-7,2.4Z"/><path class="b" d="M22.5,12.7v.7c-.2.5-1.6,1.8-6.4,1.8s-6.2-1.3-6.3-1.8v-.7a15.4,15.4,0,0,0,6.3,1,16.3,16.3,0,0,0,6.4-1m1.3-3.1s-.1,2.8-7.7,2.8S8.5,9.6,8.5,9.6v3.8s0,3.1,7.6,3.1,7.7-3,7.7-3V9.6Z"/><path class="b" d="M20.8,29a6.6,6.6,0,1,1,6.6-6.5A6.6,6.6,0,0,1,20.8,29Z"/><path class="b" d="M20.8,16.4a6.1,6.1,0,1,1-6.1,6.1,6.1,6.1,0,0,1,6.1-6.1m0-1v0a7.2,7.2,0,0,0-5,2,7.5,7.5,0,0,0-2.1,5.1,7.1,7.1,0,0,0,12.1,5,6.9,6.9,0,0,0,2.1-5,7.1,7.1,0,0,0-7.1-7.1Z"/><path class="c" d="M24.6,21.1a3.5,3.5,0,0,0-.7-1.2l.6-1.5a5.6,5.6,0,0,0-2-1.1l-1,1.2H20.1l-1-1.2a5.2,5.2,0,0,0-1.9,1.1l.6,1.5a2.4,2.4,0,0,0-.7,1.2l-1.6.2a4.9,4.9,0,0,0-.1,1.2,4.5,4.5,0,0,0,.1,1.1l1.6.2a2.4,2.4,0,0,0,.7,1.2l-.6,1.5a5.2,5.2,0,0,0,1.9,1.1l1-1.2h1.4l1,1.2a5.6,5.6,0,0,0,2-1.1L23.9,25a3.5,3.5,0,0,0,.7-1.2l1.6-.2c0-.4.1-.8.1-1.1s-.1-.8-.1-1.2Z"/><circle class="b" cx="20.8" cy="22.5" r="1.5"/></svg>
