<svg id="Layer_1" data-name="Layer 1" xmlns="http://www.w3.org/2000/svg" viewBox="0 0 32 32"><defs><style>.cls-1{fill:#9855d4}.cls-2{fill:none;stroke:#9855d4;stroke-miterlimit:10;stroke-width:1.5px}</style></defs><path class="cls-1" d="M16 21h-3a1 1 0 00-1 1v4a1 1 0 001 1h3a1 1 0 001-1v-4a1 1 0 00-1-1zm-.5 4.5h-2v-3h2z"/><path class="cls-1" d="M25.56 9.56l-7-7A2 2 0 0017.18 2H8.49A2.5 2.5 0 006 4.49v23A2.5 2.5 0 008.49 30h15A2.5 2.5 0 0026 27.51V10.62a1.5 1.5 0 00-.44-1.06zM18 4.83L23.17 10H18zm6 22.68a.49.49 0 01-.49.49h-15a.49.49 0 01-.51-.49v-23A.49.49 0 018.49 4H16v6a2 2 0 002 2h6z"/><path class="cls-2" d="M23 21.75h-3.75a.5.5 0 00-.5.5v1.25a.5.5 0 00.5.5h2.5a.5.5 0 01.5.5v1.25a.5.5 0 01-.5.5H18M9 10.75h4.25v.75l-3.5 3v.75H14"/><path stroke-linecap="round" stroke-width="2" fill="none" stroke="#9855d4" stroke-miterlimit="10" d="M10 20l12-6"/></svg>