<svg data-name="Layer 1" xmlns="http://www.w3.org/2000/svg" viewBox="0 0 32 32"><path d="M12.63 26a5.7 5.7 0 01-5-3h-.29A5.34 5.34 0 014 13.59 6.3 6.3 0 013.75 12a6 6 0 016-6A6.43 6.43 0 0114 7.61a5.54 5.54 0 017.58 1.12 6.11 6.11 0 011.86-.29 6.59 6.59 0 010 13.18h-.6a5.21 5.21 0 01-5.41 1.85 5.65 5.65 0 01-4.8 2.53zM8.9 20.84l.28.78A3.66 3.66 0 0012.63 24 3.62 3.62 0 0016 21.82l.4-.94.94.42a3.18 3.18 0 004.1-1.3l.33-.6.68.1a7.79 7.79 0 001 .09 4.59 4.59 0 000-9.18 4.53 4.53 0 00-1.85.42l-.82.35-.44-.78a3.57 3.57 0 00-5.71-.73l-.82.81-.69-.92A4.17 4.17 0 009.76 8a4 4 0 00-4 4 4.2 4.2 0 00.32 1.61l.34.82-.76.43A3.3 3.3 0 004 17.72a3.35 3.35 0 003.34 3.34 5.36 5.36 0 00.74-.06z" fill="#9855d4"/></svg>