<svg data-name="Layer 1" xmlns="http://www.w3.org/2000/svg" viewBox="0 0 32 32"><path d="M29.66 23.28l-.52-1.94-3.46.93L23.43 21l2.27-1.32 3.46.93.52-1.93-1.53-.41 1.6-.92-1-1.73-1.6.92.41-1.54-1.93-.52-.93 3.46-2.27 1.31v-2.6L25 14.12l-1.45-1.42-1.12 1.12V12h-2v1.82l-1.12-1.12-1.42 1.42 2.54 2.53v2.59l-2.27-1.31-.93-3.46-1.93.53.41 1.53-1.6-.92-1 1.73 1.6.92-1.53.41.52 1.93 3.46-.93L19.43 21l-2.25 1.29-3.46-.93-.52 1.94 1.53.41-1.57.91 1 1.73 1.58-.91-.41 1.56 1.93.52.92-3.52 2.25-1.29v2.62l-2.54 2.53 1.42 1.42 1.12-1.12V30h2v-1.84l1.12 1.12L25 27.86l-2.53-2.53v-2.62l2.2 1.29.93 3.47 1.93-.47-.41-1.53 1.58.91 1-1.73-1.58-.91zM17.79 8l.26 1.35 1.35.25a3.16 3.16 0 011.08.42 1 1 0 00.53.17 1 1 0 001-1 1 1 0 00-.44-.8.61.61 0 00-.21-.11 4.86 4.86 0 00-1.59-.61 6.91 6.91 0 00-5.47-5.52A6.11 6.11 0 0013 2a6.9 6.9 0 00-6.76 5.65A5.22 5.22 0 007.15 18h3.34a1 1 0 100-2H7.16a3.18 3.18 0 01-3.11-2.64A3.21 3.21 0 016.6 9.62L8 9.37 8.21 8A4.9 4.9 0 0113 4a4.53 4.53 0 01.91.09A4.89 4.89 0 0117.79 8z" fill="#9855d4"/></svg>