<svg xmlns="http://www.w3.org/2000/svg" viewBox="0 0 32.2 32.2" x="0" y="0" height="50" width="50"><defs><style>.a{fill:#07bca9;}.b{fill:#fff;}</style></defs><title>WebSphereMQConnectorPX_1</title><rect class="a" width="32.2" height="32.23"/><path class="b" d="M27.2,16.1h0a11.1,11.1,0,0,0-11.1-11h0a11,11,0,0,0-11,11h0a11.1,11.1,0,0,0,11,11.1h0A11.1,11.1,0,0,0,27.2,16.1ZM16.1,26h0c-.3,0-1-.7-1.7-2.5a16.4,16.4,0,0,1-.8-3.5h5.1C18.1,23.9,16.8,26,16.1,26Zm0-7.1H13.4a24.4,24.4,0,0,1-.1-2.7,23.5,23.5,0,0,1,.1-2.7h5.4a24.4,24.4,0,0,1,.1,2.7,22.6,22.6,0,0,1-.1,2.7ZM6.3,16.1c0-.3.6-1,2.4-1.7a16.4,16.4,0,0,1,3.5-.8,20.1,20.1,0,0,0-.1,2.5,22.6,22.6,0,0,0,.1,2.6c-3.9-.6-5.9-1.9-5.9-2.6Zm9.8-9.8h0c.3,0,1.1.6,1.7,2.4a16.2,16.2,0,0,1,.9,3.5H13.6C14.1,8.3,15.5,6.3,16.1,6.3ZM20,13.6c3.9.5,6,1.9,6,2.5h0c0,.3-.7,1.1-2.5,1.7a16.2,16.2,0,0,1-3.5.9,22.6,22.6,0,0,0,.1-2.6A20.1,20.1,0,0,0,20,13.6Zm5.8.6a15.1,15.1,0,0,0-5.9-1.9,14.2,14.2,0,0,0-1.8-5.8,9.7,9.7,0,0,1,5,2.6A10.1,10.1,0,0,1,25.8,14.2ZM14.2,6.5a14,14,0,0,0-1.9,5.8,14,14,0,0,0-5.8,1.9A9.6,9.6,0,0,1,14.2,6.5ZM6.5,18.1a14.2,14.2,0,0,0,5.8,1.8,15.1,15.1,0,0,0,1.9,5.9A9.8,9.8,0,0,1,6.5,18.1Zm11.6,7.7a15.2,15.2,0,0,0,1.8-5.9,15.2,15.2,0,0,0,5.9-1.8A10.1,10.1,0,0,1,18.1,25.8Z"/></svg>
