<svg data-name="Layer 1" xmlns="http://www.w3.org/2000/svg" viewBox="0 0 32 32"><path d="M16 20a6 6 0 10-6-6 6 6 0 006 6zm-2.47-6.75h.59V14h.76v-1l1.45-2.53-.66-.38-.32.57h-1l-.4-.6a1.39 1.39 0 01.21-.11l.18-.09a5.68 5.68 0 01.7-.22h.18A4.15 4.15 0 0116 9.5a4.36 4.36 0 01.81.08l.37.1.3.1V11a.38.38 0 00.38.38h.54a.4.4 0 00.32-.17l.32-.49a3.73 3.73 0 01.41.47 1.39 1.39 0 01.15.19 4.8 4.8 0 01.4.62c0 .06.07.11.1.18h-1.54a.37.37 0 00-.37.3l-.27 1.67a.36.36 0 00.2.4l1.26.63.25 1.51a4.31 4.31 0 01-.39.46 1.37 1.37 0 01-.17.17 3.31 3.31 0 01-.5.41l-.12.09a5 5 0 01-.6.32l-.17.08a5.83 5.83 0 01-.71.22h-.16a4.28 4.28 0 01-.81.08 4.58 4.58 0 01-.83-.08h-.11l.21-.64.68-1.69a.39.39 0 000-.35l-.53-.79a.37.37 0 00-.31-.17H13.2l-.47-.7zm-1.95 1.56a3.68 3.68 0 01-.06-.66l.49.17.61.92v.48a.4.4 0 00.11.27l1 1v.87l-.14-.07-.22-.15a3.75 3.75 0 01-.53-.44l-.14-.15a4.58 4.58 0 01-.35-.42c0-.08-.11-.15-.15-.22a4 4 0 01-.33-.61 1.57 1.57 0 01-.09-.23 6.13 6.13 0 01-.16-.51zM26 5H6a2 2 0 00-2 2v14a2 2 0 002 2h20a2 2 0 002-2V7a2 2 0 00-2-2zm0 16H6V7h20zm-16 6h12v-2H10z" fill="#0072c3"/></svg>