<svg data-name="Layer 1" xmlns="http://www.w3.org/2000/svg" viewBox="0 0 32 32"><path d="M7 13H2v2h5zm2 1a6 6 0 106-6 6 6 0 00-6 6zm3.75 3.87l-.14-.07-.22-.15a3.75 3.75 0 01-.53-.44l-.14-.15a4.58 4.58 0 01-.35-.42c0-.08-.11-.15-.15-.22a4 4 0 01-.33-.61 1.57 1.57 0 01-.09-.23 6.13 6.13 0 01-.16-.51l-.06-.26a3.68 3.68 0 01-.06-.66l.49.17.61.92v.48a.4.4 0 00.11.27l1 1zm3.08-8.29l.37.1.3.1V11a.38.38 0 00.38.38h.54a.4.4 0 00.32-.17l.32-.49a3.73 3.73 0 01.41.47 1.39 1.39 0 01.15.19A4.8 4.8 0 0119 12c0 .06.07.11.1.18h-1.54a.37.37 0 00-.37.3l-.27 1.67a.36.36 0 00.2.4l1.26.63.25 1.51a4.31 4.31 0 01-.39.46 1.37 1.37 0 01-.17.17 3.8 3.8 0 01-.49.41l-.14.09a4.83 4.83 0 01-.59.32l-.17.08a5.83 5.83 0 01-.71.22h-.16a4.28 4.28 0 01-.81.08 4.58 4.58 0 01-.83-.08h-.11l.21-.64.68-1.69a.39.39 0 000-.35l-.53-.79a.37.37 0 00-.31-.17H12.2l-.47-.7.8-.8h.59v.7h.76v-1l1.45-2.53-.66-.38-.32.57h-1l-.4-.6a1.39 1.39 0 01.21-.11l.18-.09a5.68 5.68 0 01.7-.22h.18A4.17 4.17 0 0115 9.5a4.45 4.45 0 01.83.08zM29 13l-2.71-2.71-1.41 1.42L26.17 13H23v2h3.17l-1.29 1.29 1.41 1.42L29 15l1-1zM9 27h12v-2H9zm16-6H5v-2.08H3V21a2 2 0 002 2h20a2 2 0 002-2v-2h-2zM5 7h20v2h2V7a2 2 0 00-2-2H5a2 2 0 00-2 2v2h2z" fill="#0072c3"/></svg>