<svg data-name="Layer 1" xmlns="http://www.w3.org/2000/svg" viewBox="0 0 32 32"><path d="M25 18a5 5 0 10-5 5 5 5 0 005-5zm-6.73 3a3.68 3.68 0 01-1-.81 3.63 3.63 0 01-.58-1.08V19a3.35 3.35 0 01-.13-.84l.38.13.48.71v.37a.32.32 0 00.08.21l.79.78zm1.65-1.68l-.41-.62a.3.3 0 00-.24-.12h-1.43l-.36-.58.62-.61h.45V18h.58v-.79l1.12-2-.5-.29-.25.44h-.79l-.31-.47h.05a3.51 3.51 0 01.64-.24h.1a3.1 3.1 0 01.81-.1 3.42 3.42 0 01.46 0h.14c.16 0 .31.08.45.12h.11v.95a.29.29 0 00.29.29h.42a.28.28 0 00.24-.13l.25-.38a3.54 3.54 0 01.79 1.09H22a.28.28 0 00-.28.23l-.21 1.3a.28.28 0 00.16.3l1 .48.13 1.2a3.71 3.71 0 01-.54.58 3.34 3.34 0 01-.63.43 3.39 3.39 0 01-1.58.39 3 3 0 01-.74-.09l.16-.49.52-1.31a.27.27 0 00-.07-.19zM14 26h11v-2H14zM28.7 9.3l-7-7A.91.91 0 0021 2H11a2 2 0 00-2 2v15h2V4h8v6a2 2 0 002 2h6v16H14v2h13a2 2 0 002-2V10a.91.91 0 00-.3-.7zM21 10V4.4l5.6 5.6zM8 21l-1.41 1.41L8.17 24H2v2h6.17l-1.58 1.59L8 29l4-4z" fill="#0072c3"/></svg>