<svg data-name="Layer 1" xmlns="http://www.w3.org/2000/svg" viewBox="0 0 32 32"><path d="M7 18a5 5 0 105-5 5 5 0 00-5 5zm3.27 3a3.49 3.49 0 01-1-.83 3.57 3.57 0 01-.58-1.09v-.09a3.43 3.43 0 01-.13-.85l.38.13.46.73v.37a.32.32 0 00.08.21l.79.78zm2.33-6.42a4.12 4.12 0 01.47.13h.09v.95a.29.29 0 00.29.29h.42a.26.26 0 00.24-.13l.25-.38a3.54 3.54 0 01.79 1.09H14a.29.29 0 00-.28.23l-.21 1.3a.28.28 0 00.16.3l1 .48.13 1.16a3.71 3.71 0 01-.54.58 3.12 3.12 0 01-.64.43 3.39 3.39 0 01-1.58.39 3 3 0 01-.74-.09l.16-.49.52-1.31a.27.27 0 000-.26l-.41-.62a.3.3 0 00-.24-.12H9.84L9.48 18l.62-.61h.45V18h.58v-.79l1.12-2-.5-.29-.25.44h-.79l-.31-.47a4.18 4.18 0 01.65-.25h.08a3.75 3.75 0 01.82-.1 4.38 4.38 0 01.52 0zM7 26h11v-2H7zm23-1l-4-4-1.41 1.41L26.17 24H20v2h6.17l-1.58 1.59L26 29l4-4zM5 4h8v6a2 2 0 002 2h6v7h2v-9a.91.91 0 00-.3-.7l-7-7A.91.91 0 0015 2H5a2 2 0 00-2 2v24a2 2 0 002 2h13v-2H5zm10 .4l5.6 5.6H15z" fill="#0072c3"/></svg>