<svg width="128" height="128" xmlns="http://www.w3.org/2000/svg" viewBox="0 0 128 128"><title>CSV File</title><path d="M72 4H24v120h80V36L72 4zm28 116H28V8h39v33h33v79zM49.5 94h5c-.7 5-4.1 7.7-9 7.7-5.7 0-9.5-4-9.5-9.6 0-5.8 3.5-10.2 9.6-10.2 4.4 0 8.5 2.1 8.8 7.1h-5c-.3-2-1.6-3.2-3.8-3.2-3.3 0-4.4 3.4-4.4 6.1 0 2.7 1.1 5.9 4.3 5.9 2.3 0 3.7-1.8 4-3.8zm15-12c4.1 0 7.9 1 8.3 6h-4.9c-.1-2-1.7-2.6-3.5-2.6-1.2 0-2.9.2-2.9 1.7 0 1.9 2.9 2.1 5.8 2.8 3 .7 6 1.8 6 5.3 0 4.9-4.3 6.5-8.6 6.5-4.4 0-8.6-1.7-8.8-6.7h4.9c0 2 2 3.2 4 3.2 1.5 0 3.4-.5 3.4-2.4 0-1.6-2.2-2.1-5.8-2.9-3-.7-6-1.7-6-5-.1-4.7 4-5.9 8.1-5.9zm15.3 19l-6.4-19h5.4l4 13h.1l4-13H92l-6.4 19h-5.8z"/></svg>