<svg width="64" height="64" xmlns="http://www.w3.org/2000/svg" viewBox="0 0 64 64"><title>CSV File</title><path d="M53 18L37 2H11v60h42V18zm-3 41H14V5h20v16h16v38zM25.5 45.3h2.4c-.3 2.4-2 3.7-4.4 3.7-2.7 0-4.6-1.9-4.6-4.6 0-2.8 1.7-4.9 4.6-4.9 2.1 0 4.1 1.1 4.3 3.4h-2.4c-.2-1-.8-1.6-1.8-1.6-1.6 0-2.1 1.6-2.1 2.9 0 1.3.5 2.9 2.1 2.9 1.1.1 1.7-.6 1.9-1.8zm7.2-5.8c2 0 3.8.7 4 2.9h-2.4c-.1-1-.8-1.2-1.7-1.2-.6 0-1.4.1-1.4.8 0 .9 1.4 1 2.8 1.3 1.5.3 2.9.9 2.9 2.5 0 2.4-2.1 3.1-4.1 3.1-2.1 0-4.2-.8-4.3-3.2h2.4c0 1.1.9 1.5 1.9 1.5.7 0 1.6-.3 1.6-1.2 0-.8-1-1-2.8-1.4-1.5-.3-2.9-.8-2.9-2.4.1-2.1 2.1-2.7 4-2.7zm7.4 9.3l-3.1-9h2.6l1.9 6.2 1.9-6.2h2.5l-3.1 9h-2.7z"/></svg>