<svg width="128" height="128" xmlns="http://www.w3.org/2000/svg" viewBox="0 0 128 128"><title>D3 Chart</title><path d="M107.8 55.8C107.8 31.6 88.2 12 64 12c-24.2 0-43.8 19.6-43.8 43.8 0 24.1 19.6 43.7 43.7 43.7V116l28.9-27.3c9.1-8 15-19.8 15-32.9zm-83.6 0C24.2 33.8 42.1 16 64 16s39.8 17.8 39.8 39.8S85.9 95.5 64 95.5 24.2 77.7 24.2 55.8zM53.7 43H43.1v24.5h10.6c7.5 0 11.1-5.3 11.1-12.4C64.8 47 60 43 53.7 43zm-.4 20h-4.8V47.5h3.8c5.3 0 7.1 3.2 7.1 8.1 0 5.5-3 7.4-6.1 7.4zm26.5-2.8c0-3.6-3.2-3.6-5.6-3.6v-3.4c2.1.2 5.1-.2 5.1-3 0-2.1-1.6-3.2-3.4-3.2-2.5 0-3.7 1.8-3.7 4.3h-4.6C67.8 46.4 71 43 76 43c3.8 0 8.1 2.4 8.1 6.7 0 2.3-1.1 4.3-3.4 4.9v.1c2.6.6 4.3 2.7 4.3 5.5 0 5-4.3 7.9-8.9 7.9-5.4 0-9-3.2-8.9-8.8h4.6c.1 2.6 1.4 4.7 4.2 4.7 2.1 0 3.8-1.5 3.8-3.8z"/></svg>