<svg width="64" height="64" xmlns="http://www.w3.org/2000/svg" viewBox="0 0 64 64"><title>D3 Chart</title><path d="M53 27c0-11.6-9.4-21-21-21s-21 9.4-21 21 9.4 21 21 21v10l14.4-15.8C50.4 38.4 53 33 53 27zm-39 0c0-9.9 8.1-18 18-18s18 8.1 18 18-8.1 18-18 18-18-8.1-18-18zm13.9-5h-4.2v9.8h4.2c3 0 4.5-2.1 4.5-5-.1-3.2-2-4.8-4.5-4.8zm-.2 8h-1.9v-6.2h1.5c2.1 0 2.8 1.3 2.8 3.2.1 2.2-1.1 3-2.4 3zm10.6-1.1c0-1.5-1.3-1.4-2.2-1.4v-1.4c.8.1 2.1-.1 2.1-1.2 0-.8-.6-1.3-1.4-1.3-1 0-1.5.7-1.5 1.7h-1.9c.1-2 1.3-3.3 3.3-3.3 1.5 0 3.2.9 3.2 2.7 0 .9-.5 1.7-1.3 2 1.1.2 1.7 1.1 1.7 2.2 0 2-1.7 3.2-3.6 3.2-2.2 0-3.6-1.3-3.6-3.5H35c0 1 .6 1.9 1.7 1.9 1-.1 1.6-.7 1.6-1.6z"/></svg>