<svg width="64" height="64" xmlns="http://www.w3.org/2000/svg" viewBox="0 0 64 64"><title>JSON File</title><path d="M53 18L37 2H11v60h42V18zm-3 41H14V5h20v16h16v38zM18.4 37.5h2.2v1.9h-2.2v-1.9zm0 3h2.2v8.3c0 1.7-.6 2.4-2.8 2.4-.2 0-.5 0-.7-.1v-1.8c.1 0 .3.1.5.1.5 0 .9-.1.9-.7v-8.2zm10.9 5.6c0 2.1-1.9 2.8-3.7 2.8-1.9 0-3.7-.7-3.8-2.8h2.1c0 1 .8 1.4 1.7 1.4.6 0 1.5-.2 1.5-1 0-.7-.9-.9-2.5-1.3-1.3-.3-2.6-.7-2.6-2.2 0-2.1 1.8-2.6 3.5-2.6 1.8 0 3.4.6 3.6 2.6H27c-.1-.9-.7-1.1-1.5-1.1-.5 0-1.2.1-1.2.8 0 .8 1.3.9 2.5 1.2 1.3.3 2.5.7 2.5 2.2zm.9-1.4c0 2.6 1.6 4.3 4.2 4.3 2.5 0 4.2-1.7 4.2-4.3 0-2.6-1.6-4.3-4.2-4.3-2.5 0-4.2 1.7-4.2 4.3zm4.2-2.6c1.5 0 2 1.3 2 2.6s-.5 2.6-2 2.6-2-1.3-2-2.6c.1-1.3.5-2.6 2-2.6zm7.3 6.8h-2.2v-8.3h2.1v1.1c.6-.9 1.5-1.3 2.5-1.3 2.4 0 3 1.3 3 3.3v5.2h-2.2v-4.8c0-1.3-.4-2-1.4-2-1.2 0-1.7.7-1.7 2.3v4.5z"/></svg>