<svg width="128" height="128" xmlns="http://www.w3.org/2000/svg" viewBox="0 0 128 128"><title>JSON File</title><path d="M43.7 83.2h-4.2v-3.5h4.2v3.5zm11.5 8.4c-2.3-.6-4.7-.8-4.7-2.3 0-1.3 1.4-1.4 2.3-1.4 1.5 0 2.7.4 2.8 2h3.9c-.3-3.7-3.4-4.8-6.7-4.8-3.2 0-6.6 1-6.6 4.9 0 2.7 2.4 3.5 4.8 4 3 .6 4.7 1.1 4.7 2.3 0 1.5-1.5 1.9-2.7 1.9-1.6 0-3.2-.8-3.2-2.5H46c.1 4 3.6 5.3 7.1 5.3 3.4 0 6.9-1.3 6.9-5.3 0-2.7-2.4-3.6-4.8-4.1zm-15.6 8.8c0 1.1-.8 1.3-1.6 1.3-.4 0-.7 0-.9-.1v3.4c.4.1.9.1 1.3.1 4.2 0 5.3-1.5 5.3-4.6V85.2h-4.2v15.2zm37.7-7.3c0 4.8-3.1 8-7.8 8-4.7 0-7.8-3.2-7.8-8s3.1-8 7.8-8c4.8 0 7.8 3.2 7.8 8zm-4.1 0c0-2.4-.8-4.9-3.7-4.9-2.8 0-3.7 2.4-3.7 4.9 0 2.4.8 4.8 3.7 4.8 2.8 0 3.7-2.4 3.7-4.8zm14.4-8c-1.8 0-3.6.8-4.6 2.5h-.1v-2.1H79V101h4.2v-8.3c0-3.1 1-4.3 3.2-4.3 2 0 2.7 1.2 2.7 3.7v8.9h4.2v-9.6c-.2-3.8-1.3-6.3-5.7-6.3zM104 124H24V4h48l32 32v88zm-4-4V41H67V8H28v112h72z"/></svg>