<svg width="128" height="128" xmlns="http://www.w3.org/2000/svg" viewBox="0 0 128 128"><title>R Data</title><path d="M107.8 55.8C107.8 31.6 88.2 12 64 12c-24.2 0-43.8 19.6-43.8 43.8 0 24.1 19.6 43.7 43.7 43.7V116l28.9-27.3c9.1-8 15-19.8 15-32.9zm-83.6 0C24.2 33.8 42.1 16 64 16s39.8 17.8 39.8 39.8S85.9 95.5 64 95.5 24.2 77.7 24.2 55.8zM68.3 62c.3 2 .2 4.4.9 6h5.5c-1-1.4-.9-4.3-1.1-5.9-.2-2.6-.9-5.1-3.6-5.8v-.1c2.8-1.1 4-3.3 4-6.3 0-3.8-2.8-6.9-7.3-6.9H53.2v25h5.5v-9.8h5.5c2.7 0 3.7 1.2 4.1 3.8zm-9.6-14.7h6c2.5 0 3.8 1 3.8 3.5s-1.3 3.6-3.8 3.6h-6v-7.1z"/></svg>