<svg width="64" height="64" xmlns="http://www.w3.org/2000/svg" viewBox="0 0 64 64"><title>Rave Data</title><path d="M53 27c0-11.6-9.4-21-21-21s-21 9.4-21 21 9.4 21 21 21v10l14.4-15.8C50.4 38.4 53 33 53 27zm-39 0c0-9.9 8.1-18 18-18s18 8.1 18 18-8.1 18-18 18-18-8.1-18-18zm8.1-4.4c.2 0 .3 0 .5.1v2.1c-.2 0-.5-.1-.8-.1-1.7 0-2.3 1.2-2.3 2.7v3.7h-2.3v-8.3h2.2v1.5c.5-1 1.6-1.7 2.7-1.7zm8.4 2.4c0-2-2-2.4-3.6-2.4-1.9 0-3.8.7-3.9 2.8h2.3c.1-.9.6-1.3 1.5-1.3.8 0 1.5.2 1.5 1.1.1 1.9-5.5-.2-5.5 3.6 0 1.7 1.2 2.5 2.8 2.5 1 0 2.1-.3 2.8-1 0 .3.1.5.2.8h2.3c-.2-.3-.3-1.1-.3-1.8V25zm-2.3 2.9c0 .5-.1 1.9-1.8 1.9-.7 0-1.4-.2-1.4-1.1 0-.8.6-1.1 1.4-1.2.7-.1 1.5-.1 1.9-.5v.9zm5.3 3.2l-2.8-8.3h2.4l1.8 5.7 1.8-5.7H39l-2.8 8.3h-2.7zm9.2.3c1.9 0 3.2-.8 3.9-2.8h-2c-.1.5-.9 1.1-1.8 1.1-1.3 0-2-.6-2-2.1h6c.2-2.6-1.2-4.9-4-4.9-2.5 0-4.2 1.9-4.2 4.4-.1 2.5 1.5 4.3 4.1 4.3zm0-7.1c1.1 0 1.6.6 1.8 1.8h-3.7c0-.6.4-1.8 1.9-1.8z"/></svg>