<svg width="128" height="128" xmlns="http://www.w3.org/2000/svg" viewBox="0 0 128 128"><title>Rave Data</title><path d="M108.8 55.8C108.8 31.6 89.2 12 65 12c-24.2 0-43.8 19.6-43.8 43.8C21.2 79.6 40.3 99 64 99.5h-.1V116l24.9-23.6c12-7.8 20-21.3 20-36.6zM65 95.5c-21.9 0-39.8-17.8-39.8-39.8S43.1 16 65 16s39.8 17.8 39.8 39.8S86.9 95.5 65 95.5zM46.6 47.9c.3 0 .6.1.9.1v3.8c-.4-.1-1-.1-1.5-.1-3 0-4 2.1-4 4.8v6.7h-4.1V48.3h3.9v2.8h.1c.7-1.9 2.6-3.2 4.7-3.2zM62 52.2c0-3.6-3.6-4.2-6.5-4.2-3.3 0-6.7 1.2-7 5h4.1c.1-1.6 1.1-2.2 2.7-2.2 1.4 0 2.6.3 2.6 2 .2 3.3-9.8-.3-9.9 6.5 0 3 2.2 4.4 5 4.4 1.8 0 3.7-.5 5-1.8 0 .5.1 1 .3 1.4h4.1c-.4-.6-.5-1.9-.5-3.3v-7.8zm-4.1 5.2c0 .9-.1 3.4-3.3 3.4-1.3 0-2.5-.4-2.5-1.9s1.1-1.9 2.4-2.2c1.3-.2 2.7-.3 3.4-.9v1.6zm19.5-9.1l-5 14.8h-4.5l-5.1-14.8h4.3l3.1 10.1h.1l3.1-10.1h4zm7.5-.4c-4.5 0-7.6 3.4-7.6 7.8 0 4.6 2.9 7.8 7.6 7.8 3.4 0 5.8-1.5 6.9-5h-3.6c-.3.9-1.6 1.9-3.2 1.9-2.3 0-3.5-1.1-3.6-3.8h10.7c.3-4.4-2.2-8.7-7.2-8.7zm-3.5 6.3c.1-1.1.7-3.2 3.4-3.2 2 0 2.9 1.1 3.2 3.2h-6.6z"/></svg>