<svg width="64" height="64" xmlns="http://www.w3.org/2000/svg" viewBox="0 0 64 64"><title>Sql Data</title><path d="M53 27c0-11.6-9.4-21-21-21s-21 9.4-21 21 9.4 21 21 21v10l14.4-15.8C50.4 38.4 53 33 53 27zm-39 0c0-9.9 8.1-18 18-18s18 8.1 18 18-8.1 18-18 18-18-8.1-18-18zm11.5 0c.6.5.9 1.2.9 2.1 0 .9-.4 1.7-1.1 2.3-.7.6-1.7.9-3 .9s-2.4-.3-3.1-.9c-.8-.6-1.1-1.4-1.1-2.5h2c.1.5.2.8.4 1 .3.4.9.6 1.8.6.5 0 .9-.1 1.2-.2.6-.2.9-.6.9-1.2 0-.3-.1-.6-.4-.8-.3-.2-.8-.3-1.4-.5l-1.1-.2c-1.1-.2-1.8-.5-2.2-.8-.7-.5-1-1.2-1-2.2 0-.9.3-1.7 1-2.2.7-.6 1.6-.9 2.9-.9 1.1 0 2 .3 2.8.8.8.6 1.2 1.4 1.2 2.5h-2c0-.6-.3-1-.8-1.3-.3-.2-.8-.3-1.3-.3-.6 0-1 .1-1.3.3s-.5.5-.5.9.2.6.5.8c.2.1.7.3 1.3.4l1.8.4c.7.4 1.2.7 1.6 1zm8.5 5.1c.3-.1.6-.2 1-.5l1.2 1.1 1.1-1.1-1.2-1.1c.3-.4.6-.9.8-1.4.2-.6.3-1.4.3-2.3 0-1.7-.5-3-1.5-4-.9-.8-2-1.2-3.3-1.2-1.3 0-2.4.4-3.2 1.2-1.1.9-1.6 2.3-1.6 4.2 0 1.8.5 3.2 1.6 4.2.9.8 1.9 1.2 3.3 1.2l1.5-.3zm-3.3-2.2c-.7-.6-1.1-1.6-1.1-3 0-1.2.2-2.1.7-2.7s1.2-.9 2-.9c.9 0 1.6.3 2 .9.5.6.7 1.5.7 2.6 0 .5-.1.9-.2 1.3-.1.2-.2.5-.3.9l-1-1-1.1 1.1 1 1c-.2.1-.3.1-.5.2s-.5.1-.7.1c-.5.1-1-.1-1.5-.5zM45.9 32h-7.1V21.9h2.1v8.3h5V32z"/></svg>