<svg width="128" height="128" xmlns="http://www.w3.org/2000/svg" viewBox="0 0 128 128"><title>Sql Data</title><path d="M107.8 55.8C107.8 31.6 88.2 12 64 12c-24.2 0-43.8 19.6-43.8 43.8 0 24.1 19.6 43.7 43.7 43.7V116l28.9-27.3c9.1-8 15-19.8 15-32.9zm-83.6 0C24.2 33.8 42.1 16 64 16s39.8 17.8 39.8 39.8S85.9 95.5 64 95.5 24.2 77.7 24.2 55.8zm26 4.7c0 2.3-.9 4.2-2.7 5.7-1.8 1.5-4.3 2.3-7.6 2.3s-5.9-.3-7.8-1.8c-1.9-1.5-2.9-3.7-2.9-5.7h5c.2 1 .5 1.5 1 2.1.9 1 2.4 1.3 4.5 1.3 1.3 0 2.3-.3 3.1-.5 1.5-.5 2.3-1.6 2.3-3 0-.8-.4-1.5-1.1-2-.7-.4-1.9-.9-3.5-1.2l-2.7-.6c-2.7-.6-4.5-1.2-5.5-1.9-1.7-1.2-2.6-3-2.6-5.5 0-2.3.8-4.1 2.5-5.6s4.1-2.2 7.3-2.2c2.7 0 5 .6 6.9 2.1 1.9 1.4 2.9 4.1 3 6.1h-5.1c-.1-1-.8-2.5-2-3.2-.8-.4-1.9-.6-3.1-.6-1.4 0-2.5.3-3.3.8s-1.2 1.3-1.2 2.3c0 .9.4 1.6 1.2 2 .5.3 1.6.6 3.4 1l4.4 1c1.9.5 3.4 1.1 4.4 1.8 1.3 1.3 2.1 3 2.1 5.3zM69.1 68c.7-.2 1.5-.6 2.4-1.2l3 2.9 2.8-2.9-2.9-2.7c.9-1 1.5-2.2 2-3.6.5-1.5.8-3.4.8-5.7 0-4.3-1.3-7.6-3.8-9.9-2.2-2-5-3.1-8.2-3.1-3.2 0-6 1-8.1 2.9-2.7 2.4-4 5.9-4 10.5s1.3 8.1 3.9 10.4c2.2 2 4.9 2.9 8.2 2.9 1.4.1 2.8-.1 3.9-.5zm-8.2-5.4c-1.8-1.5-2.7-4-2.7-7.4 0-3 .6-5.2 1.9-6.7 1.2-1.5 2.9-2.2 5-2.2 2.2 0 3.9.8 5.1 2.3 1.2 1.5 1.7 3.7 1.7 6.6 0 1.2-.1 2.3-.4 3.2-.2.6-.4 1.3-.8 2.2l-2.6-2.4-2.7 2.8 2.6 2.4c-.5.2-.9.4-1.2.4-.6.1-1.1.2-1.7.2-1.7.1-3.1-.4-4.2-1.4zM99 68H81V43h6v20h12v5z"/></svg>