<svg width="128" height="128" xmlns="http://www.w3.org/2000/svg" viewBox="0 0 128 128"><title>TSV File</title><path d="M104 36v88H24V4h48l32 32zm-4 5H67V8H28v112h72V41zM46 75h-6v6h-4v4h4v11.8c0 4.2 3.1 4.9 6.6 4.9 1.1 0 2.4 0 3.4-.2v-4.4c0 .1-1.2.2-1.8.2-1.9 0-2.3-.2-2.5-2.1V85.1H50v-4h-4V75zm6.7 11.8c0 3.7 3.2 4.7 6.6 5.5 4 .8 6.4 1.4 6.4 3.1 0 2-2.1 2.5-3.7 2.5-2.2 0-4.4-.8-4.4-3.8h-5.4c.2 6 4.9 7.6 9.7 7.6 4.7 0 9.4-1.4 9.4-6.8 0-3.8-3.2-5-6.6-5.8-3.2-.8-6.4-1-6.4-3.1 0-1.7 1.9-1.9 3.2-1.9 2 0 3.7.9 3.9 2.9h5.4c-.4-5-4.6-6.7-9.1-6.7-4.4 0-9 1.2-9 6.5zM85 101l7-20h-5.6L82 95h-.1l-4.4-14h-6l7.1 20H85z"/></svg>