<svg width="64" height="64" xmlns="http://www.w3.org/2000/svg" viewBox="0 0 64 64"><title>TSV File</title><path d="M53 18L37 2H11v60h42V18zm-3 41H14V5h20v16h16v38zM24.2 40.5h1.9v1.7h-1.9v4.7c0 .9.2 1.1 1.1 1.1.3 0 .6 0 .8-.1v2c-.4.1-1 .1-1.5.1-1.6 0-3-.3-3-2.2v-5.6H20v-1.7h1.6v-2.8h2.6v2.8zm7.1-.3c2 0 4 .7 4.2 3H33c-.1-1-.8-1.3-1.8-1.3-.6 0-1.4.1-1.4.9 0 .9 1.5 1.1 2.9 1.4 1.5.3 3 .9 3 2.6 0 2.5-2.2 3.3-4.3 3.3-2.2 0-4.3-.8-4.4-3.3h2.5c0 1.1 1 1.6 2 1.6.7 0 1.7-.3 1.7-1.2 0-.8-1.1-1.1-2.9-1.5-1.5-.3-3-.8-3-2.5-.1-2.4 2-3 4-3zm7.7 9.7l-3.2-9.4h2.7l2 6.4 2-6.4h2.6l-3.2 9.4H39z"/></svg>