<svg width="128" height="128" xmlns="http://www.w3.org/2000/svg" viewBox="0 0 128 128"><title>XML File</title><path d="M72 4H24v120h80V36L72 4zm28 116H28V8h39v33h33v79zM47.4 91.6l6.3 9.3h-5.3l-3.7-5.5-3.7 5.5h-5.1l6.1-9.2-6-8.3h5.6l3.2 4.6 3.4-4.6h5.4l-6.2 8.2zM66.8 83c2.2 0 4.2.8 5.1 2.9 1.1-1.5 2.8-2.9 5.3-2.9 3.7 0 6.4 1.7 6.4 6.3V101h-4.8V91c0-2.3-.2-4.3-2.9-4.3-2.7 0-3.2 2.3-3.2 4.4v9.8h-4.8v-9.8c0-2 .1-4.4-2.9-4.4-.9 0-3.3.6-3.3 4V101h-4.8V83.4h4.5v2.4h.1c1.2-1.8 3-2.8 5.3-2.8zM92 101h-4V77h4v24z"/></svg>