<svg xmlns="http://www.w3.org/2000/svg"
	viewBox="0 0 13 13"
	style="fill:#3D70B2"
>
	<path d="M10.3,1.3V0.5H8.8v0.8H4.3V0.5H2.8v0.8H0.5v11.2h12V1.3H10.3z M11,11H2V4.3h9V11z" />
	<rect x="3.5" y="5.8" width="1.5" height="1.5" />
	<rect x="8" y="5.8" width="1.5" height="1.5" />
	<rect x="5.8" y="5.8" width="1.5" height="1.5" />
	<rect x="3.5" y="8" width="1.5" height="1.5" />
	<rect x="8" y="8" width="1.5" height="1.5" />
	<rect x="5.8" y="8" width="1.5" height="1.5" />
	<circle fill="#FFFFFF" cx="8.4" cy="8.2" r="3.8" />
	<path d="M8.4,4.8C6.5,4.8,5,6.3,5,8.2s1.5,3.4,3.4,3.4s3.4-1.5,3.4-3.4S10.3,4.8,8.4,4.8z M8.8,8.7H7.1V7.8H8V6.1h0.8
		V8.7z"
	/>
</svg>
