<svg width="64" height="64" version="1.1" xmlns="http://www.w3.org/2000/svg" xmlns:xlink="http://www.w3.org/1999/xlink" viewBox="0 0 64 64" aria-labelledby="title">
		<title>Bubble Chart</title>
		<path d="M60,32c0,1.7-1.3,3-3,3s-3-1.3-3-3s1.3-3,3-3S60,30.3,60,32z M52,42c-3.9,0-7,3.1-7,7c0,3.9,3.1,7,7,7s7-3.1,7-7
		C59,45.1,55.9,42,52,42z M31.9,47.6C31.1,54.6,25.2,60,18,60c-7.7,0-14-6.3-14-14c0-4,1.7-7.6,4.3-10.1C6.9,32.9,6,29.5,6,26
		C6,13.9,15.9,4,28,4c12.1,0,22,9.9,22,22C50,36.8,42.2,45.8,31.9,47.6z M47,26c0-10.5-8.5-19-19-19C17.5,7,9,15.5,9,26
		c0,2.9,0.7,5.6,1.8,8c2.1-1.3,4.6-2,7.2-2c7.3,0,13.2,5.5,13.9,12.6C40.5,42.8,47,35.1,47,26z"></path>
</svg>