<svg width="16" height="16" version="1.1" xmlns="http://www.w3.org/2000/svg" xmlns:xlink="http://www.w3.org/1999/xlink" viewBox="0 0 16 16" aria-labelledby="title">
<title>Bubble Chart</title>
<path d="M12,6c0-2.8-2.2-5-5-5S2,3.2,2,6c0,0.9,0.3,1.8,0.7,2.5c-1,0.6-1.7,1.7-1.7,3C1,13.4,2.6,15,4.5,15S8,13.4,8,11.5
c0-0.2,0-0.4-0.1-0.6C10.2,10.5,12,8.4,12,6z M7.7,10.1C7.1,8.8,5.9,8,4.5,8c-0.3,0-0.7,0.1-1,0.2C3.1,7.5,2.9,6.8,2.9,6
c0-2.3,1.9-4.1,4.1-4.1s4.1,1.9,4.1,4.1C11.1,8,9.6,9.7,7.7,10.1z M15,8c0,0.6-0.4,1-1,1s-1-0.4-1-1s0.4-1,1-1S15,7.4,15,8z
		 M14,12.5c0,0.8-0.7,1.5-1.5,1.5S11,13.3,11,12.5s0.7-1.5,1.5-1.5S14,11.7,14,12.5z"></path>
</svg>