<svg width="32" height="32" version="1.1" xmlns="http://www.w3.org/2000/svg" xmlns:xlink="http://www.w3.org/1999/xlink" viewBox="0 0 32 32" aria-labelledby="title">
		<title>Bubble Chart</title>
		<path d="M25,13c0-6.1-4.9-11-11-11C7.9,2,3,6.9,3,13c0,1.8,0.4,3.4,1.2,4.9C2.8,19.2,2,21,2,23c0,3.9,3.1,7,7,7
		c3.6,0,6.5-2.7,6.9-6.2C21.1,22.9,25,18.4,25,13z M5,13c0-5,4-9,9-9c5,0,9,4,9,9c0,4.3-3.1,7.9-7.1,8.8C15.3,18.5,12.5,16,9,16
		c-1.1,0-2.2,0.3-3.2,0.8C5.3,15.6,5,14.3,5,13z M30,17.5c0,0.8-0.7,1.5-1.5,1.5S27,18.3,27,17.5s0.7-1.5,1.5-1.5S30,16.7,30,17.5z
		 M27,26c0,1.7-1.3,3-3,3s-3-1.3-3-3s1.3-3,3-3S27,24.3,27,26z"></path>
</svg>