<svg width="128" height="128" version="1.1" xmlns="http://www.w3.org/2000/svg" xmlns:xlink="http://www.w3.org/1999/xlink" viewBox="0 0 128 128" aria-labelledby="title">
			<title>Bubble Chart</title>
			<path d="M97,51C97,27.3,77.7,8,54,8C30.3,8,11,27.3,11,51c0,7.6,2,14.7,5.5,21C11.2,77,8,84.1,8,92c0,15.5,12.5,28,28,28
			c15.2,0,27.5-12.1,28-27.2C82.9,88.3,97,71.3,97,51z M63.8,88.7C62.2,74.8,50.4,64,36,64c-6.1,0-11.8,2-16.4,5.3
			C16.7,63.9,15,57.6,15,51c0-21.5,17.5-39,39-39s39,17.5,39,39C93,69.1,80.6,84.4,63.8,88.7z M116,99c0,8.3-6.7,15-15,15
			c-8.3,0-15-6.7-15-15c0-8.3,6.7-15,15-15C109.3,84,116,90.7,116,99z M120,66c0,3.9-3.1,7-7,7s-7-3.1-7-7c0-3.9,3.1-7,7-7
			S120,62.1,120,66z"></path>
</svg>