<svg width="24" height="24" version="1.1" xmlns="http://www.w3.org/2000/svg" xmlns:xlink="http://www.w3.org/1999/xlink" viewBox="0 0 24 24" aria-labelledby="title">
		<title>Bubble Chart</title>
		<path d="M20,10c0-5-4-9-9-9s-9,4-9,9c0,1.2,0.3,2.4,0.7,3.5c-1.1,1-1.7,2.4-1.7,4c0,3,2.5,5.5,5.5,5.5c2.5,0,4.7-1.7,5.3-4
		C16.4,18.6,20,14.7,20,10z M12,17.9c0-0.1,0-0.3,0-0.4c0-3-2.5-5.5-5.5-5.5c-1.1,0-2.1,0.3-3,0.9C3.2,12,3,11,3,10c0-4.4,3.6-8,8-8
		s8,3.6,8,8C19,14.1,15.9,17.4,12,17.9z M23,13c0,0.6-0.4,1-1,1s-1-0.4-1-1s0.4-1,1-1S23,12.4,23,13z M22,19c0,1.1-0.9,2-2,2
		s-2-0.9-2-2s0.9-2,2-2S22,17.9,22,19z"></path>
</svg>