<svg width="24" height="24" version="1.1" xmlns="http://www.w3.org/2000/svg" xmlns:xlink="http://www.w3.org/1999/xlink" viewBox="0 0 24 24" aria-labelledby="title">
		<title>Line Chart</title>
		<path d="M23,19v1H2H1v-1V3h1v16H23z M6,16c1.1,0,2-0.9,2-2c0-0.4-0.2-0.9-0.4-1.2l1.6-2C9.4,10.9,9.7,11,10,11c0.5,0,1-0.2,1.4-0.6
		l1.7,1C13,11.6,13,11.8,13,12c0,1.1,0.9,2,2,2s2-0.9,2-2c0-0.5-0.2-1-0.5-1.3l1.9-2.8C18.6,8,18.8,8,19,8c1.1,0,2-0.9,2-2
		s-0.9-2-2-2s-2,0.9-2,2c0,0.5,0.2,1,0.5,1.3l-1.9,2.8C15.4,10,15.2,10,15,10c-0.5,0-1,0.2-1.4,0.6l-1.7-1C12,9.4,12,9.2,12,9
		c0-1.1-0.9-2-2-2S8,7.9,8,9c0,0.4,0.2,0.9,0.4,1.2l-1.6,2C6.6,12.1,6.3,12,6,12c-1.1,0-2,0.9-2,2S4.9,16,6,16z"></path>
</svg>