<svg width="32" height="32" version="1.1" xmlns="http://www.w3.org/2000/svg" xmlns:xlink="http://www.w3.org/1999/xlink" viewBox="0 0 32 32" aria-labelledby="title">
		<title>Line Chart</title>
		<path d="M31,26v2H1v-1v-1V5h2v21H31z M8,23c1.7,0,3-1.3,3-3c0-0.7-0.3-1.3-0.7-1.9l2-3.2c0.2,0,0.4,0.1,0.6,0.1
		c0.7,0,1.3-0.3,1.9-0.7l3.2,2c0,0.2-0.1,0.4-0.1,0.6c0,1.7,1.3,3,3,3s3-1.3,3-3c0-0.7-0.3-1.3-0.7-1.9l2-3.2c0.2,0,0.4,0.1,0.6,0.1
		c1.7,0,3-1.3,3-3s-1.3-3-3-3s-3,1.3-3,3c0,0.7,0.3,1.3,0.7,1.9l-2,3.2C21.4,14,21.2,14,21,14c-0.7,0-1.3,0.3-1.9,0.7l-3.2-2
		c0-0.2,0.1-0.4,0.1-0.6c0-1.7-1.3-3-3-3s-3,1.3-3,3c0,0.7,0.3,1.3,0.7,1.9l-2,3.2C8.4,17,8.2,17,8,17c-1.7,0-3,1.3-3,3S6.3,23,8,23z
		"></path>
</svg>