<svg width="64" height="64" version="1.1" xmlns="http://www.w3.org/2000/svg" xmlns:xlink="http://www.w3.org/1999/xlink" viewBox="0 0 64 64" aria-labelledby="title">
		<title>Line Chart</title>
		<path d="M62,51v3H5H2v-3V10h3v41H62z M13,44c2.8,0,5-2.2,5-5c0-1-0.3-2-0.8-2.8l7-8.6c0.6,0.2,1.2,0.4,1.8,0.4
		c1.2,0,2.3-0.4,3.1-1.1l7.1,4.7C36.1,32.1,36,32.5,36,33c0,2.8,2.2,5,5,5s5-2.2,5-5c0-1-0.3-1.8-0.7-2.6l7.7-8.8
		c0.6,0.3,1.3,0.4,2,0.4c2.8,0,5-2.2,5-5s-2.2-5-5-5s-5,2.2-5,5c0,1,0.3,1.8,0.7,2.6L43,28.4c-0.6-0.3-1.3-0.4-2-0.4
		c-1.2,0-2.3,0.4-3.1,1.1l-7.1-4.7c0.1-0.4,0.2-0.9,0.2-1.4c0-2.8-2.2-5-5-5s-5,2.2-5,5c0,1,0.3,2,0.8,2.8l-7,8.6
		C14.3,34.1,13.7,34,13,34c-2.8,0-5,2.2-5,5S10.2,44,13,44z"></path>
</svg>