<svg width="128" height="128" version="1.1" xmlns="http://www.w3.org/2000/svg" xmlns:xlink="http://www.w3.org/1999/xlink" viewBox="0 0 128 128" aria-labelledby="title">
			<title>Line Chart</title>
			<path d="M124,104v4H8H6H4V20h4v84H124z M24,90c4.4,0,8-3.6,8-8c0-1.7-0.5-3.3-1.5-4.6l19-22.2c1.1,0.5,2.2,0.8,3.5,0.8
			c2.2,0,4.2-0.9,5.6-2.3l13.7,8.1C72.1,62.5,72,63.2,72,64c0,4.4,3.6,8,8,8s8-3.6,8-8c0-1.4-0.4-2.8-1-3.9l20.9-20.2
			c1.2,0.7,2.6,1.2,4.2,1.2c4.4,0,8-3.6,8-8s-3.6-8-8-8s-8,3.6-8,8c0,1.4,0.4,2.8,1,3.9L84.2,57.2C83,56.4,81.5,56,80,56
			c-2.2,0-4.2,0.9-5.6,2.3l-13.7-8.1c0.2-0.7,0.3-1.5,0.3-2.2c0-4.4-3.6-8-8-8s-8,3.6-8,8c0,1.7,0.5,3.3,1.5,4.6l-19,22.2
			C26.4,74.3,25.3,74,24,74c-4.4,0-8,3.6-8,8S19.6,90,24,90z"></path>
</svg>