<svg width="16" height="16" version="1.1" xmlns="http://www.w3.org/2000/svg" xmlns:xlink="http://www.w3.org/1999/xlink" viewBox="0 0 16 16" aria-labelledby="title">
<title>Line Chart</title>
<path d="M15,13v1H1v-1V2h1v11H15z M4,10c0.6,0,1-0.4,1-1c0-0.1,0-0.2,0-0.2L6.8,7C6.8,7,6.9,7,7,7c0.2,0,0.3,0,0.4-0.1L9,7.9
C9,8,9,8,9,8c0,0.6,0.4,1,1,1s1-0.4,1-1c0-0.1,0-0.3-0.1-0.4l2-2.6c0,0,0.1,0,0.1,0c0.6,0,1-0.4,1-1s-0.4-1-1-1s-1,0.4-1,1
c0,0.1,0,0.3,0.1,0.4l-2,2.6c0,0-0.1,0-0.1,0C9.8,7,9.7,7,9.6,7.1L8,6.1C8,6,8,6,8,6c0-0.6-0.4-1-1-1S6,5.4,6,6c0,0.1,0,0.2,0,0.2
L4.2,8C4.2,8,4.1,8,4,8C3.4,8,3,8.4,3,9S3.4,10,4,10z"></path>
</svg>