<svg width="24" height="24" version="1.1" xmlns="http://www.w3.org/2000/svg" xmlns:xlink="http://www.w3.org/1999/xlink" viewBox="0 0 24 24" aria-labelledby="title">
		<title>Network Chart</title>
		<path d="M14.9,9h3.1c0.2,1.1,1.2,2,2.4,2c1.4,0,2.5-1.1,2.5-2.5S21.9,6,20.5,6c-1.2,0-2.2,0.9-2.4,2H15c0-3.9-3.1-7-7-7S1,4.1,1,8
		s3.1,7,7,7v3.1c-1.1,0.2-2,1.2-2,2.4C6,21.9,7.1,23,8.5,23s2.5-1.1,2.5-2.5c0-1.2-0.9-2.2-2-2.4v-3.1c1.4-0.2,2.6-0.8,3.6-1.6
		l3.8,3.8C16.2,17.5,16,18,16,18.5c0,1.4,1.1,2.5,2.5,2.5s2.5-1.1,2.5-2.5S19.9,16,18.5,16c-0.5,0-1,0.2-1.4,0.4l-3.8-3.8
		C14.2,11.6,14.7,10.4,14.9,9z M2,8c0-3.3,2.7-6,6-6s6,2.7,6,6s-2.7,6-6,6S2,11.3,2,8z"></path>
</svg>