<svg width="128" height="128" version="1.1" xmlns="http://www.w3.org/2000/svg" xmlns:xlink="http://www.w3.org/1999/xlink" viewBox="0 0 128 128" aria-labelledby="title">
			<title>Network Chart</title>
			<path d="M63.9,38h24.2c1,7.9,7.7,14,15.9,14c8.8,0,16-7.2,16-16s-7.2-16-16-16c-8.2,0-14.9,6.1-15.9,14H63.9C62.9,19.5,50.8,8,36,8
			C20.6,8,8,20.6,8,36c0,14.8,11.5,26.9,26,27.9v24.2c-7.9,1-14,7.7-14,15.9c0,8.8,7.2,16,16,16s16-7.2,16-16c0-8.2-6.1-14.9-14-15.9
			V63.9c6.2-0.4,11.9-2.9,16.3-6.8l27.1,27.1C79.3,86.9,78,90.3,78,94c0,8.8,7.2,16,16,16s16-7.2,16-16s-7.2-16-16-16
			c-3.7,0-7.1,1.3-9.8,3.4L57.2,54.3C61,49.9,63.5,44.2,63.9,38z M12,36c0-13.2,10.8-24,24-24s24,10.8,24,24S49.2,60,36,60
			S12,49.2,12,36z"></path>
</svg>