<svg width="32" height="32" version="1.1" xmlns="http://www.w3.org/2000/svg" xmlns:xlink="http://www.w3.org/1999/xlink" viewBox="0 0 32 32" aria-labelledby="title">
		<title>Network Chart</title>
		<path d="M17.9,11h4.2c0.4,1.7,2,3,3.9,3c2.2,0,4-1.8,4-4s-1.8-4-4-4c-1.9,0-3.4,1.3-3.9,3h-4.2c-0.5-3.9-3.9-7-7.9-7
		c-4.4,0-8,3.6-8,8c0,4.1,3.1,7.4,7,7.9v4.2c-1.7,0.4-3,2-3,3.9c0,2.2,1.8,4,4,4s4-1.8,4-4c0-1.9-1.3-3.4-3-3.9v-4.2
		c1.5-0.2,2.8-0.8,3.9-1.6l5.7,5.7c-0.4,0.6-0.6,1.3-0.6,2c0,2.2,1.8,4,4,4s4-1.8,4-4s-1.8-4-4-4c-0.7,0-1.4,0.2-2,0.6l-5.7-5.7
		C17.2,13.8,17.7,12.5,17.9,11z M10,16c-3.3,0-6-2.7-6-6s2.7-6,6-6s6,2.7,6,6S13.3,16,10,16z"></path>
</svg>