<svg width="16" height="16" version="1.1" xmlns="http://www.w3.org/2000/svg" xmlns:xlink="http://www.w3.org/1999/xlink" viewBox="0 0 16 16" aria-labelledby="title">
<title>Network Chart</title>
<path d="M8.9,6h2.2c0.2,0.6,0.8,1,1.4,1C13.3,7,14,6.3,14,5.5S13.3,4,12.5,4c-0.7,0-1.2,0.4-1.4,1H9c0-2.2-1.8-4-4-4S1,2.8,1,5
		c0,2.2,1.8,4,4,4v2.1c-0.6,0.2-1,0.8-1,1.4C4,13.3,4.7,14,5.5,14S7,13.3,7,12.5c0-0.7-0.4-1.2-1-1.4V8.9c0.6-0.1,1.1-0.4,1.5-0.8
		l2.7,2.7C10.1,11,10,11.2,10,11.5c0,0.8,0.7,1.5,1.5,1.5s1.5-0.7,1.5-1.5S12.3,10,11.5,10c-0.3,0-0.5,0.1-0.7,0.2L8.1,7.5
		C8.5,7.1,8.7,6.6,8.9,6z M2,5c0-1.6,1.3-3,3-3s3,1.3,3,3S6.6,8,5,8S2,6.6,2,5z"></path>
</svg>