<svg width="64" height="64" version="1.1" xmlns="http://www.w3.org/2000/svg" xmlns:xlink="http://www.w3.org/1999/xlink" viewBox="0 0 64 64" aria-labelledby="title">
	<title>Pie Chart</title>
	<path d="M32,4L32,4L32,4C32,4,32,4,32,4C32,4,32,4,32,4l-3,0v26H4v1.6c0,0.1,0,0.3,0,0.4c0,0.1,0,0.3,0,0.4V33h0
		c0.5,15,12.8,27,28,27c15.5,0,28-12.5,28-28C60,16.5,47.5,4,32,4z M56.9,30H32V7C45.1,7,55.9,17.1,56.9,30z M32,57
		C18.5,57,7.6,46.3,7,33H57C56.4,46.3,45.4,57,32,57z"/>
	<path d="M25,4.9V26H4.6C6.9,15.7,14.8,7.5,25,4.9z"/>
</svg>
