<svg width="32" height="32" version="1.1" xmlns="http://www.w3.org/2000/svg" xmlns:xlink="http://www.w3.org/1999/xlink" viewBox="0 0 32 32" aria-labelledby="title">
<title>Pie Chart</title>
	<path d="M13,2.3C7.7,3.5,3.5,7.7,2.3,13H13L13,2.3z"/>
	<path d="M30,15c-0.5-6.9-6-12.5-13-13c-0.3,0-0.7,0-1,0s-0.7,0-1,0v13H4H2c0,0.3,0,0.7,0,1s0,0.7,0,1c0.5,7.3,6.6,13,14,13
		s13.4-5.7,14-13c0-0.3,0-0.7,0-1S30,15.3,30,15z M17,4c5.8,0.5,10.5,5.2,11,11H17V4z M16,28C9.7,28,4.5,23.2,4,17h24
		C27.5,23.2,22.3,28,16,28z"/>
</svg>
