<svg width="128" height="128" version="1.1" xmlns="http://www.w3.org/2000/svg" xmlns:xlink="http://www.w3.org/1999/xlink" viewBox="0 0 128 128" aria-labelledby="title">
	<title>Pie Chart</title>
	<polygon points="72,5 72,5 72,5 	"/>
	<path d="M56,10v47H9C12.7,32.7,31.7,13.7,56,10z"/>
	<path d="M66,9h-4v54H8v2l0,0v2l0,0c1.1,30.9,27.1,55.1,58,53.9s55.1-27.1,53.9-58C118.9,33.6,95.3,10.1,66,9z M116,63H66V13
		C93.2,14,115,35.8,116,63z M64,117c-28,0-50.9-22.1-52-50h104C114.9,94.9,92,117,64,117z"/>
</svg>
