<svg width="24" height="24" version="1.1" xmlns="http://www.w3.org/2000/svg" xmlns:xlink="http://www.w3.org/1999/xlink" viewBox="0 0 24 24" aria-labelledby="title">
	<title>Pie Chart</title>
		<path d="M12,1h-1v0.1C11.3,1,11.7,1,12,1L12,1z"/>
		<path d="M12,1c-0.3,0-0.7,0-1,0.1V11H1v1c0,3,1.2,5.8,3.2,7.8c2,2,4.8,3.2,7.8,3.2c6.1,0,11-4.9,11-11C23,5.9,18.1,1,12,1z M12,2
			c2.6,0,5,1,6.7,2.6c1.8,1.6,3,3.9,3.2,6.4H12V2z M19.4,18.7c-0.1,0.1-0.2,0.2-0.3,0.3s-0.2,0.2-0.3,0.3c-0.2,0.2-0.5,0.4-0.7,0.6
			c-1.7,1.2-3.7,2-6,2C6.5,22,2,17.5,2,12h20c0,2.2-0.7,4.3-2,6C19.8,18.2,19.6,18.5,19.4,18.7z"/>
	<path d="M9,1.4V9H1.4C2.5,5.3,5.3,2.5,9,1.4z"/>
</svg>
