<svg width="64" height="64" version="1.1" xmlns="http://www.w3.org/2000/svg" xmlns:xlink="http://www.w3.org/1999/xlink" viewBox="0 0 64 64" aria-labelledby="title">
		<title>Venn Diagram</title>
		<path d="M41,15c-3.3,0-6.4,0.9-9,2.6c-2.6-1.6-5.7-2.6-9-2.6c-9.4,0-17,7.6-17,17s7.6,17,17,17c3.3,0,6.4-0.9,9-2.6
		c2.6,1.6,5.7,2.6,9,2.6c9.4,0,17-7.6,17-17S50.4,15,41,15z M32,21.3c0.6,0.5,1.2,1.1,1.7,1.7h-3.4C30.8,22.4,31.4,21.8,32,21.3z
		 M27.9,37h8.1c-0.3,0.7-0.6,1.4-1,2h-6.2C28.5,38.4,28.2,37.7,27.9,37z M27.3,29h9.3c0.1,0.6,0.2,1.3,0.3,2h-9.9
		C27.1,30.3,27.2,29.6,27.3,29z M27.1,33h9.9c0,0.7-0.1,1.4-0.3,2h-9.3C27.2,34.4,27.1,33.7,27.1,33z M36.1,27h-8.1
		c0.3-0.7,0.6-1.4,1-2h6.2C35.5,25.6,35.8,26.3,36.1,27z M23,46c-7.7,0-14-6.3-14-14c0-7.7,6.3-14,14-14c2.3,0,4.5,0.6,6.4,1.6
		C26.1,22.7,24,27.1,24,32c0,4.9,2.1,9.3,5.4,12.4C27.5,45.4,25.3,46,23,46z M32,42.7c-0.6-0.5-1.2-1.1-1.7-1.7h3.4
		C33.2,41.6,32.6,42.2,32,42.7z"></path>
</svg>