<svg width="16" height="16" version="1.1" xmlns="http://www.w3.org/2000/svg" xmlns:xlink="http://www.w3.org/1999/xlink" viewBox="0 0 16 16" aria-labelledby="title">
<title>Venn Diagram</title>
<path d="M10.5,3C9.6,3,8.7,3.3,8,3.8C7.3,3.3,6.4,3,5.5,3C3,3,1,5,1,7.5S3,12,5.5,12c0.9,0,1.8-0.3,2.5-0.8c0.7,0.5,1.6,0.8,2.5,0.8 C13,12,15,10,15,7.5S13,3,10.5,3z M7,8h2c-0.1,0.8-0.5,1.5-1,2C7.5,9.5,7.1,8.8,7,8z M8,5c0.5,0.5,0.9,1.2,1,2H7
		C7.1,6.2,7.5,5.5,8,5z M2,7.5C2,5.6,3.6,4,5.5,4c0.6,0,1.2,0.2,1.7,0.5C6.5,5.3,6,6.3,6,7.5s0.5,2.2,1.2,3C6.7,10.8,6.1,11,5.5,11
		C3.6,11,2,9.4,2,7.5z"></path>
</svg>