<svg width="32" height="32" version="1.1" xmlns="http://www.w3.org/2000/svg" xmlns:xlink="http://www.w3.org/1999/xlink" viewBox="0 0 32 32" aria-labelledby="title">
		<title>Venn Diagram</title>
		<path d="M20,7c-1.4,0-2.8,0.3-4,0.9C14.8,7.3,13.4,7,12,7c-5,0-9,4-9,9s4,9,9,9c1.4,0,2.8-0.3,4-0.9c1.2,0.6,2.6,0.9,4,0.9
		c5,0,9-4,9-9S25,7,20,7z M16,10.3c1,0.7,1.8,1.6,2.3,2.7h-4.6C14.2,11.9,15,11,16,10.3z M12,23c-3.9,0-7-3.1-7-7s3.1-7,7-7
		c0.7,0,1.4,0.1,2,0.3c-1.9,1.6-3,4-3,6.7s1.2,5.1,3,6.7C13.4,22.9,12.7,23,12,23z M16,21.7c-1-0.7-1.8-1.6-2.3-2.7h4.6
		C17.8,20.1,17,21,16,21.7z M18.9,17h-5.8c-0.1-0.3-0.1-1.7,0-2h5.8C19,15.3,19,16.7,18.9,17z"></path>
</svg>