<svg width="24" height="24" version="1.1" xmlns="http://www.w3.org/2000/svg" xmlns:xlink="http://www.w3.org/1999/xlink" viewBox="0 0 24 24" aria-labelledby="title">
		<title>Venn Diagram</title>
		<path d="M16,5c-1.5,0-2.9,0.5-4,1.3C10.9,5.4,9.5,5,8,5c-3.9,0-7,3.1-7,7s3.1,7,7,7c1.5,0,2.9-0.5,4-1.3c1.1,0.8,2.5,1.3,4,1.3
		c3.9,0,7-3.1,7-7S19.9,5,16,5z M10.3,14h3.4c-0.3,1-0.9,1.8-1.7,2.5C11.3,15.8,10.7,15,10.3,14z M12,7.5c0.8,0.7,1.3,1.5,1.7,2.5
		h-3.4C10.7,9,11.3,8.2,12,7.5z M10,12c0-0.3,0-0.7,0.1-1H14c0.1,0.3,0.1,0.7,0.1,1s0,0.7-0.1,1h-3.9C10,12.7,10,12.3,10,12z M8,18
		c-3.3,0-6-2.7-6-6s2.7-6,6-6c1.2,0,2.3,0.3,3.2,0.9C9.8,8.2,9,10,9,12s0.9,3.8,2.2,5.1C10.3,17.7,9.2,18,8,18z"></path>
</svg>