<svg width="128" height="128" version="1.1" xmlns="http://www.w3.org/2000/svg" xmlns:xlink="http://www.w3.org/1999/xlink" viewBox="0 0 128 128" aria-labelledby="title">
			<title>Venn Diagram</title>
			<path d="M82,30c-6.6,0-12.8,1.9-18,5.1C58.8,31.9,52.6,30,46,30c-18.8,0-34,15.2-34,34c0,18.8,15.2,34,34,34c6.6,0,12.8-1.9,18-5.2
			c5.2,3.3,11.4,5.2,18,5.2c18.8,0,34-15.2,34-34C116,45.2,100.8,30,82,30z M58,82c-0.9-1.3-1.8-2.6-2.5-4h17c-0.7,1.4-1.6,2.7-2.5,4
			H58z M52,64c0-0.7,0-1.3,0.1-2h23.9c0,0.7,0.1,1.3,0.1,2s0,1.3-0.1,2H52.1C52,65.3,52,64.7,52,64z M58,46h12c0.9,1.3,1.8,2.6,2.5,4
			h-17C56.2,48.6,57.1,47.3,58,46z M53.7,54h20.5c0.5,1.3,0.8,2.6,1.1,4H52.6C52.9,56.6,53.3,55.3,53.7,54z M52.6,70h22.8
			c-0.3,1.4-0.7,2.7-1.1,4H53.7C53.3,72.7,52.9,71.4,52.6,70z M66.4,42h-4.7c0.8-0.7,1.5-1.4,2.4-2C64.8,40.6,65.6,41.3,66.4,42z
			 M46,94c-16.5,0-30-13.5-30-30c0-16.5,13.5-30,30-30c5.2,0,10.2,1.3,14.4,3.7C52.8,43.9,48,53.4,48,64c0,10.6,4.8,20.1,12.4,26.3
			C56.2,92.7,51.2,94,46,94z M61.6,86h4.7c-0.8,0.7-1.5,1.4-2.4,2C63.2,87.4,62.4,86.7,61.6,86z"></path>
</svg>