<svg id="Layer_1" data-name="Layer 1" xmlns="http://www.w3.org/2000/svg" viewBox="0 0 64 60"><defs><style>.cls-1{fill:#8c7300;fill-rule:evenodd;}.cls-2{fill:none;stroke:#fff;stroke-miterlimit:10;stroke-width:2px;}.cls-3{fill:#fff;}</style></defs><path class="cls-1" d="M33.18,58.33l26-18.85a2,2,0,0,0,.73-2.24L49.94,6.73A2,2,0,0,0,48,5.35H16a2,2,0,0,0-1.9,1.38L4.14,37.24a2,2,0,0,0,.73,2.24l26,18.85A2,2,0,0,0,33.18,58.33Z"/><circle class="cls-2" cx="38.78" cy="32.94" r="10.5"/><path class="cls-3" d="M24.66,19.94v-2h-3v-2h-2v2h-2v2h2v6a2,2,0,0,0,2,2h3v-2h-3v-6Z"/><polyline class="cls-2" points="38.78 27.65 38.78 33.72 42.47 38.23"/></svg>