<svg id="Layer_1" data-name="Layer 1" xmlns="http://www.w3.org/2000/svg" viewBox="0 0 64 60"><defs><style>.cls-1{fill:#8c7300;fill-rule:evenodd;}.cls-2{fill:#fff;}</style></defs><path class="cls-1" d="M33.18,58.33l26-18.85a2,2,0,0,0,.73-2.24L49.94,6.73A2,2,0,0,0,48,5.35H16a2,2,0,0,0-1.9,1.38L4.14,37.24a2,2,0,0,0,.73,2.24l26,18.85A2,2,0,0,0,33.18,58.33Z"/><path class="cls-2" d="M24.24,38.22v-19h-2v19a2,2,0,0,0,2,2h19v-2Z"/><path class="cls-2" d="M34.24,28.22a5,5,0,0,1,5-5v-2a7,7,0,0,0-7,7,5,5,0,0,1-5,5v2A7,7,0,0,0,34.24,28.22Z"/></svg>