<?xml version="1.0" encoding="utf-8"?>
<!-- Generator: Adobe Illustrator 21.1.0, SVG Export Plug-In . SVG Version: 6.00 Build 0)  -->
<svg version="1.1" id="Layer_1" xmlns="http://www.w3.org/2000/svg" xmlns:xlink="http://www.w3.org/1999/xlink" x="0px" y="0px"
	 viewBox="0 0 12.1 15.1" style="enable-background:new 0 0 12.1 15.1;" xml:space="preserve">
<style type="text/css">
	.st0{fill:#A6266E;}
</style>
<g>
	<path class="st0" d="M10.3,1.8C7.9-0.5,4.1-0.5,1.8,1.9s-2.3,6.2,0.1,8.5C3,11.4,4.5,12,6,12.1v3l4.3-4.5c1.2-1.2,1.8-2.9,1.8-4.5
		C12.1,4.4,11.4,2.9,10.3,1.8z M3.5,6.8C3.1,6.8,2.8,6.4,2.8,6s0.3-0.7,0.8-0.7c0.4,0,0.7,0.3,0.7,0.7C4.3,6.4,4,6.8,3.5,6.8
		C3.5,6.8,3.5,6.8,3.5,6.8L3.5,6.8z M6,6.8C5.6,6.8,5.3,6.4,5.3,6c0-0.4,0.4-0.7,0.8-0.7c0.4,0,0.7,0.3,0.7,0.7
		C6.8,6.4,6.5,6.8,6,6.8C6.1,6.8,6,6.8,6,6.8z M8.5,6.8C8.1,6.8,7.8,6.4,7.8,6c0-0.4,0.4-0.7,0.8-0.7C9,5.3,9.3,5.6,9.3,6
		C9.3,6.4,9,6.8,8.5,6.8C8.6,6.8,8.6,6.8,8.5,6.8L8.5,6.8z"/>
</g>
</svg>
