<?xml version="1.0" encoding="utf-8"?>
<!-- Generator: Adobe Illustrator 21.1.0, SVG Export Plug-In . SVG Version: 6.00 Build 0)  -->
<svg version="1.1" id="Layer_1" xmlns="http://www.w3.org/2000/svg" xmlns:xlink="http://www.w3.org/1999/xlink" x="0px" y="0px"
	 viewBox="0 0 16 16" style="enable-background:new 0 0 16 16;" xml:space="preserve">
<style type="text/css">
	.st0{fill:#AEAEAE;}
</style>
<g>
	<path class="st0" d="M8,2.9c-0.4,0-0.7-0.3-0.7-0.7S7.6,1.5,8,1.5s0.7,0.3,0.7,0.7c0,0,0,0,0,0C8.7,2.6,8.4,2.9,8,2.9z M2.2,8.7
		C1.8,8.7,1.5,8.4,1.5,8c0-0.4,0.3-0.7,0.7-0.7S2.9,7.6,2.9,8v0C2.9,8.4,2.6,8.7,2.2,8.7z M13.8,6.6H8.7V4.2
		c1.1-0.4,1.7-1.6,1.3-2.8C9.7,0.3,8.4-0.3,7.3,0.1S5.5,1.8,5.9,2.9C6.2,3.5,6.7,4,7.3,4.2v2.4C7,6.7,6.7,7,6.6,7.3H4.2
		C3.8,6.1,2.6,5.5,1.4,5.9s-1.7,1.6-1.3,2.8s1.6,1.7,2.8,1.3C3.5,9.8,4,9.3,4.2,8.7h2.3v5.1L8.7,16V8.7H16L13.8,6.6z"/>
</g>
</svg>
