<?xml version="1.0" encoding="utf-8"?>
<!-- Generator: Adobe Illustrator 21.1.0, SVG Export Plug-In . SVG Version: 6.00 Build 0)  -->
<svg version="1.1" id="Layer_1" xmlns="http://www.w3.org/2000/svg" xmlns:xlink="http://www.w3.org/1999/xlink" x="0px" y="0px"
	 viewBox="0 0 16 11.7" style="enable-background:new 0 0 16 11.7;" xml:space="preserve">
<style type="text/css">
	.st0{fill:#3D70B2;}
</style>
<g>
	<path class="st0" d="M6.5,0c3.5,0,6.4,2.8,6.5,6.3v3.4l2.3-2.2L16,8.2l-3.6,3.5L8.8,8.2l0.8-0.7l2.3,2.2V6.3C11.8,3.3,9.4,1,6.5,1
		c0,0,0,0,0,0C3.5,1,1.1,3.3,1.1,6.3c0,0,0,0,0,0C1.1,7.7,1.6,9,2.7,10l-0.8,0.7C0.7,9.6,0,8,0,6.3C0.1,2.8,2.9,0,6.5,0"/>
</g>
</svg>
