<?xml version="1.0" encoding="utf-8"?>
<!-- Generator: Adobe Illustrator 21.1.0, SVG Export Plug-In . SVG Version: 6.00 Build 0)  -->
<svg version="1.1" id="Layer_1" xmlns="http://www.w3.org/2000/svg" xmlns:xlink="http://www.w3.org/1999/xlink" x="0px" y="0px"
	 viewBox="0 0 16 11.7" style="enable-background:new 0 0 16 11.7;" xml:space="preserve">
<style type="text/css">
	.st0{fill:#AEAEAE;}
</style>
<g>
	<path class="st0" d="M9.5,0C6-0.1,3.1,2.8,3.1,6.3v3.4L0.8,7.5L0,8.2l3.6,3.5l3.6-3.5L6.5,7.5L4.2,9.7V6.3C4.2,3.3,6.6,1,9.5,1
		c0,0,0,0,0,0c2.9,0,5.3,2.3,5.4,5.2c0,1.4-0.6,2.8-1.6,3.8l0.8,0.7C15.3,9.6,16,8,16,6.3C15.9,2.8,13.1,0,9.5,0"/>
</g>
</svg>
