<svg xmlns="http://www.w3.org/2000/svg" viewBox="0 0 16 16"><defs><style>.cls-1,.cls-2{fill:#3D70B2;}.cls-1{fill-rule:evenodd;}</style></defs><title>Zoom_InAsset 12</title><g id="Layer_2" data-name="Layer 2"><g id="Layer_1-2" data-name="Layer 1"><path class="cls-1" d="M6.07,0a6.07,6.07,0,1,0,6.07,6.07A6.07,6.07,0,0,0,6.07,0m0,11a5,5,0,1,1,5-5,5,5,0,0,1-5,5"/><path class="cls-2" d="M6.07,0a6.07,6.07,0,1,0,6.07,6.07A6.07,6.07,0,0,0,6.07,0m0,11a5,5,0,1,1,5-5,5,5,0,0,1-5,5"/><rect class="cls-2" x="12.07" y="10.51" width="2.34" height="5.46" transform="translate(-5.48 13.24) rotate(-45)"/><polygon class="cls-1" points="6.53 3.31 5.61 3.31 5.61 5.61 3.31 5.61 3.31 6.53 5.61 6.53 5.61 8.83 6.53 8.83 6.53 6.53 8.83 6.53 8.83 5.61 6.53 5.61 6.53 3.31"/><polygon class="cls-2" points="6.53 3.31 5.61 3.31 5.61 5.61 3.31 5.61 3.31 6.53 5.61 6.53 5.61 8.83 6.53 8.83 6.53 6.53 8.83 6.53 8.83 5.61 6.53 5.61 6.53 3.31"/></g></g></svg>