<svg xmlns="http://www.w3.org/2000/svg" viewBox="0 0 16 16"><defs><style>.cls-1,.cls-2{fill:#a6266e;}.cls-1{fill-rule:evenodd;}</style></defs><title>Zoom_OutAsset 13</title><g id="Layer_2" data-name="Layer 2"><g id="Layer_1-2" data-name="Layer 1"><path class="cls-1" d="M6.07,0A6.07,6.07,0,1,1,0,6.07,6.07,6.07,0,0,1,6.07,0Zm0,11a5,5,0,1,0-5-5A5,5,0,0,0,6.07,11Z"/><path class="cls-2" d="M6.07,0A6.07,6.07,0,1,1,0,6.07,6.07,6.07,0,0,1,6.07,0Zm0,11a5,5,0,1,0-5-5A5,5,0,0,0,6.07,11Z"/><rect class="cls-2" x="12.07" y="10.51" width="2.34" height="5.46" transform="translate(-5.48 13.24) rotate(-45)"/><rect class="cls-2" x="3.31" y="5.52" width="5.52" height="1.1"/><rect class="cls-2" x="3.31" y="5.52" width="5.52" height="1.1"/></g></g></svg>