<svg class="defs-only" xmlns="http://www.w3.org/2000/svg">
  	<g id="help__icon">
	<path class="st0" d="M16,1C7.7,1,1,7.7,1,16s6.7,15,15,15s15-6.7,15-15S24.3,1,16,1z M16,28.8C8.8,28.8,3.2,23,3.2,16S9,3.2,16,3.2
		S28.8,9,28.8,16S23.2,28.8,16,28.8z"/>
	<path class="st0" d="M10.5,13.5C10.7,10.3,12.7,8,16,8c4.2,0,5.5,2.7,5.5,4.3c0,4.3-3.7,3.7-4,6.3v0.8h-3v-1
		c0.3-3.8,3.7-3.5,3.5-5.8c0-1.3-0.7-2-1.8-2c-1.7,0-2.3,1.3-2.3,2.8C13.8,13.5,10.5,13.5,10.5,13.5z M14.2,20.8h3.5v3.5h-3.5V20.8z
		"/>
</g>
</svg>
