<svg xmlns="http://www.w3.org/2000/svg" viewBox="0 0 64 60">
	<polygon points="17.28 4.63 26.88 14.07 24.74 15.87 18.94 10.35 18.94 26.29 15.78 26.29 15.78 10.35 9.97 16.12 7.91 14.04 17.28 4.63"/>
	<path d="M32.39,6.36l.2.1,20.35,11a2.7,2.7,0,0,1,1.11,1.11,2.74,2.74,0,0,1-.89,3.59l-.22.13L33,33a2.66,2.66,0,0,1-2.51,0l-6-3.13a1.83,1.83,0,1,1,1.69-3.25l5.57,2.89,18-9.69L30.85,9.68A1.83,1.83,0,0,1,30,7.39l.09-.19A1.83,1.83,0,0,1,32.39,6.36Z"/>
	<path d="M53,28.53l1.62,3L32.52,43.43a1.59,1.59,0,0,1-.8.21,1.66,1.66,0,0,1-.81-.21L8.8,31.53l1.61-3L31.72,40Z"/>
	<path d="M53,38.74l1.62,3L32.52,53.64a1.69,1.69,0,0,1-.8.2,1.76,1.76,0,0,1-.81-.2L8.8,41.73l1.61-3L31.72,50.21Z"/>
</svg>
