<svg xmlns="http://www.w3.org/2000/svg" viewBox="0 0 24.106667 23.293333" width="24.11"><g transform="matrix(.13333 0 0-.13333 0 23.293)" fill="#1b496d"><path d="m90.13 166c-.684 0-1.367-.145-1.965-.434l-78.1-38.2c-.891-.433-1.398-1.055-1.398-1.703 0-.648.512-1.27 1.402-1.699l78.69-38.24c1.18-.57 2.731-.566 3.922.008l78.09 38.19c.887.433 1.395 1.054 1.395 1.711 0 .648-.512 1.269-1.406 1.703l-78.68 38.23c-.598.293-1.273.434-1.953.434m.582-89.38c-1.977 0-3.941.434-5.734 1.305l-78.69 38.24c-3.867 1.875-6.277 5.512-6.289 9.484-.004 3.977 2.395 7.618 6.262 9.512l78.1 38.19c3.609 1.762 7.91 1.766 11.519.008l78.68-38.22v-.004c3.875-1.879 6.285-5.516 6.289-9.493.008-3.968-2.391-7.613-6.254-9.507l-78.1-38.2c-1.813-.879-3.793-1.32-5.773-1.32"/><path d="m90.72 0c-1.984 0-3.969.449-5.781 1.355l-78.71 39.668c-3.836 1.926-6.227 5.637-6.23 9.668-.004 4.04 2.375 7.746 6.207 9.688l5.555 2.832c2.137 1.074 4.746.234 5.832-1.902 1.086-2.129.238-4.738-1.895-5.832l-5.566-2.832c-.934-.469-1.461-1.172-1.461-1.941 0-.762.531-1.477 1.461-1.934l78.69-39.668c1.141-.566 2.641-.578 3.805.008l78.09 39.621c.926.469 1.461 1.18 1.453 1.953 0 .762-.531 1.465-1.453 1.922l-5.582 2.824c-2.141 1.074-2.996 3.68-1.918 5.82 1.078 2.137 3.676 3.03 5.824 1.914l5.57-2.813c3.828-1.914 6.223-5.617 6.231-9.648.011-4.04-2.364-7.754-6.199-9.707l-78.1-39.617c-1.82-.918-3.824-1.379-5.824-1.379"/><path d="m90.71 37.5c-1.992 0-3.988.461-5.808 1.375l-78.67 39.644c-3.84 1.938-6.23 5.645-6.234 9.68-.004 4.03 2.375 7.742 6.203 9.688l5.57 2.82c2.125 1.086 4.734.231 5.824-1.91 1.082-2.133.23-4.738-1.91-5.824l-5.566-2.82c-.922-.469-1.449-1.18-1.449-1.945 0-.766.531-1.473 1.465-1.941l78.69-39.656c1.152-.586 2.637-.574 3.789.012l78.11 39.609c.926.469 1.453 1.176 1.453 1.949 0 .766-.531 1.469-1.457 1.938l-5.578 2.813c-2.141 1.078-2.996 3.688-1.918 5.824 1.078 2.129 3.676 3.01 5.824 1.918l5.57-2.813c3.832-1.934 6.223-5.633 6.231-9.668.008-4.03-2.367-7.746-6.199-9.691l-78.1-39.613c-1.824-.926-3.828-1.387-5.828-1.387"/></g></svg>
