<?xml version="1.0" encoding="UTF-8"?>
<svg width="16px" height="12px" viewBox="0 0 16 12" version="1.1" xmlns="http://www.w3.org/2000/svg" xmlns:xlink="http://www.w3.org/1999/xlink">
    <!-- Generator: Sketch 45.1 (43504) - http://www.bohemiancoding.com/sketch -->
    <title>reset-revert_32</title>
    <desc>Created with Sketch.</desc>
    <defs></defs>
    <g id="Page-1" stroke="none" stroke-width="1">
        <g id="DSx-Admin-View-Copy-25" transform="translate(-511.000000, -119.000000)">
            <g id="Group-2" transform="translate(511.000000, 116.000000)">
                <g id="reset-revert_32" transform="translate(0.000000, 3.000000)">
                    <path d="M9.53687683,0 C5.973003,0 3.07375366,2.81790548 3.07375366,6.28178817 L3.07375366,9.72944291 L0.761571347,7.48213319 L7.10542736e-15,8.22233723 L3.61234726,11.7333333 L7.22469452,8.22233723 L6.46312317,7.48213319 L4.15094086,9.72944291 L4.15094086,6.28178817 C4.15094086,3.3953065 6.56707173,1.04696469 9.53687683,1.04696469 C12.5066819,1.04696469 14.9228128,3.3953065 14.9228128,6.28178817 C14.9228128,7.68000952 14.3626755,8.99447369 13.3452722,9.98333185 L14.1068435,10.7235359 C15.3278352,9.5368014 16,7.95954909 16,6.28178817 C16,2.81790548 13.1007507,0 9.53687683,0 L9.53687683,0 Z" id="Shape"></path>
                </g>
            </g>
        </g>
    </g>
</svg>
