<svg id="Layer_1" xmlns="http://www.w3.org/2000/svg" viewBox="0 0 22 22"><style>.st0{fill:#fff}</style><path class="st0" d="M11 1.5c5.2 0 9.5 4.3 9.5 9.5s-4.3 9.5-9.5 9.5-9.5-4.3-9.5-9.5S5.8 1.5 11 1.5M11 0C4.9 0 0 4.9 0 11s4.9 11 11 11 11-4.9 11-11S17.1 0 11 0z"/><path class="st0" d="M9.9 4.7c.3-.3.7-.4 1.1-.4s.8.1 1.1.4c.3.3.4.7.4 1.1 0 .4-.1.8-.4 1.1-.3.3-.7.4-1.1.4-.4 0-.8-.1-1.1-.4-.3-.3-.4-.7-.4-1.1 0-.4.1-.8.4-1.1zM12.8 17.7H9.1v-.5c.3 0 .5-.1.6-.3.2-.2.2-.5.2-.9v-5.7c0-.4-.1-.7-.2-.8 0-.1-.2-.2-.5-.3v-.4h3v7.4c0 .4.1.7.2.8.1.1.3.2.6.3l-.2.4z"/></svg>