<svg id="Layer_1" data-name="Layer 1" xmlns="http://www.w3.org/2000/svg" viewBox="0 0 64 60"><defs><style>.cls-1{fill:#198038;}.cls-2{fill:#fff;}</style></defs><rect class="cls-1" x="8" y="5.7" width="48" height="48" rx="2"/><path class="cls-2" d="M32,16a4,4,0,1,0,4,4A4,4,0,0,0,32,16Zm0,6a2,2,0,1,1,2-2A2,2,0,0,1,32,22Z"/><path class="cls-2" d="M32,26a4,4,0,1,0,4,4A4,4,0,0,0,32,26Zm0,6a2,2,0,1,1,2-2A2,2,0,0,1,32,32Z"/><path class="cls-2" d="M32,36a4,4,0,1,0,4,4A4,4,0,0,0,32,36Zm0,6a2,2,0,1,1,2-2A2,2,0,0,1,32,42Z"/><path class="cls-2" d="M41,31a4,4,0,1,0,4,4A4,4,0,0,0,41,31Zm0,6a2,2,0,1,1,2-2A2,2,0,0,1,41,37Z"/><path class="cls-2" d="M23,31a4,4,0,1,0,4,4A4,4,0,0,0,23,31Zm0,6a2,2,0,1,1,2-2A2,2,0,0,1,23,37Z"/><path class="cls-2" d="M23,21a4,4,0,1,0,4,4A4,4,0,0,0,23,21Zm0,6a2,2,0,1,1,2-2A2,2,0,0,1,23,27Z"/><path class="cls-2" d="M41,29a4,4,0,1,0-4-4A4,4,0,0,0,41,29Zm0-6a2,2,0,1,1-2,2A2,2,0,0,1,41,23Z"/></svg>