<svg id="Layer_1" data-name="Layer 1" xmlns="http://www.w3.org/2000/svg" viewBox="0 0 64 60"><defs><style>.cls-1{fill:#198038;}.cls-2{fill:#fff;}</style></defs><rect class="cls-1" x="8" y="5.7" width="48" height="48" rx="2"/><path class="cls-2" d="M34.68,29.79a7.8,7.8,0,1,0-3.63,6.58l5.84,5.84,1.42-1.42L32.6,35.08A7.74,7.74,0,0,0,34.68,29.79Zm-13.57,0a5.79,5.79,0,1,1,5.78,5.79A5.79,5.79,0,0,1,21.11,29.79Z"/><polygon class="cls-2" points="44.9 20.79 41.9 20.79 41.9 17.79 39.9 17.79 39.9 20.79 36.9 20.79 36.9 22.79 39.9 22.79 39.9 25.79 41.9 25.79 41.9 22.79 44.9 22.79 44.9 20.79"/></svg>