<svg id="Layer_1" data-name="Layer 1" xmlns="http://www.w3.org/2000/svg" viewBox="0 0 64 60"><defs><style>.cls-1{fill:#198038;}.cls-2{fill:#fff;}</style></defs><rect class="cls-1" x="8.36" y="5.7" width="48" height="48" rx="2"/><path class="cls-2" d="M20,42V16H18V42a2,2,0,0,0,2,2H46V42Z"/><path class="cls-2" d="M28.47,29.63a1,1,0,0,0-1.36.35l-4.22,7,1.72,1,3.71-6.16,11.21,6.51A1,1,0,0,0,40.89,38l4.22-7-1.72-1-3.71,6.16Z"/><path class="cls-2" d="M26.32,22.86l11.21,6.51A1,1,0,0,0,38.89,29l4.22-7-1.72-1-3.71,6.16L26.47,20.63a1,1,0,0,0-1.36.35l-4.22,7,1.72,1Z"/></svg>