<svg id="Layer_1" data-name="Layer 1" xmlns="http://www.w3.org/2000/svg" viewBox="0 0 64 60"><defs><style>.cls-1{fill:#198038;}.cls-2{fill:#fff;}</style></defs><rect class="cls-1" x="8" y="5.7" width="48" height="48" rx="2"/><polygon class="cls-2" points="43.96 18.69 42.53 17.29 37.59 22.34 35.55 20.29 34.13 21.7 37.6 25.19 43.96 18.69"/><path class="cls-2" d="M38.19,29.68h0v11h-14v-5H26v-2H24.19v-2H26v-2H24.19v-2H26v-2H24.19v-4h7.35v-2H24.19a2,2,0,0,0-2,2v4H20v2h2.15v2H20v2h2.15v2H20v2h2.15v5a2,2,0,0,0,2,2h14a2,2,0,0,0,2-2v-13h-2Z"/><rect class="cls-2" x="28.54" y="27.71" width="7" height="2"/><rect class="cls-2" x="28.54" y="31.71" width="7" height="2"/></svg>