<svg id="Layer_1" data-name="Layer 1" xmlns="http://www.w3.org/2000/svg" viewBox="0 0 64 60"><defs><style>.cls-1{fill:#198038;}.cls-2{fill:#fff;}</style></defs><rect class="cls-1" x="8" y="5.7" width="48" height="48" rx="2"/><path class="cls-2" d="M44,16H20a2,2,0,0,0-2,2V42a2,2,0,0,0,2,2H44a2,2,0,0,0,2-2V18A2,2,0,0,0,44,16Zm0,8.67H37.33V18H44Zm-24,2h6.67v6.66H20Zm8.67,0h6.66v6.66H28.67Zm8.66,0H44v6.66H37.33Zm-2-8.67v6.67H28.67V18Zm-8.66,0v6.67H20V18ZM20,35.33h6.67V42H20ZM28.67,42V35.33h6.66V42Zm8.66,0V35.33H44V42Z"/></svg>