<svg id="Layer_1" data-name="Layer 1" xmlns="http://www.w3.org/2000/svg" viewBox="0 0 64 60"><defs><style>.cls-1{fill:#198038;}.cls-2{fill:#fff;}</style></defs><rect class="cls-1" x="8.08" y="5.63" width="48" height="48" rx="2"/><path class="cls-2" d="M20,42V16H18V42a2,2,0,0,0,2,2H46V42Z"/><path class="cls-2" d="M32.36,37a8,8,0,1,0-8-8A8,8,0,0,0,32.36,37Zm0-14a6,6,0,1,1-6,6A6,6,0,0,1,32.36,23Z"/><polygon class="cls-2" points="36.07 31.29 33.36 28.58 33.36 24.57 31.36 24.57 31.36 29.41 34.65 32.7 36.07 31.29"/></svg>