<svg id="Layer_1" data-name="Layer 1" xmlns="http://www.w3.org/2000/svg" viewBox="0 0 64 60"><defs><style>.cls-1{fill:#198038;}.cls-2{fill:#fff;}</style></defs><rect class="cls-1" x="8" y="5.7" width="48" height="48" rx="2"/><path class="cls-2" d="M19,24H39a1,1,0,0,0,1-1V19a1,1,0,0,0-1-1H19a1,1,0,0,0-1,1v4A1,1,0,0,0,19,24Zm1-4H38v2H20Z"/><path class="cls-2" d="M19,32H34V30H20V28H37V26H19a1,1,0,0,0-1,1v4A1,1,0,0,0,19,32Z"/><path class="cls-2" d="M45.71,31.29l-3-3A1,1,0,0,0,42,28a1,1,0,0,0-.71.29L32,37.59V42h4.41l9.3-9.29a1,1,0,0,0,0-1.42ZM35.59,40H34V38.41l5-5L40.59,35ZM42,33.59,40.41,32,42,30.41,43.59,32Z"/><path class="cls-2" d="M18,35v4a1,1,0,0,0,1,1h9V38H20V36H30V34H19A1,1,0,0,0,18,35Z"/></svg>