<svg id="Layer_1" data-name="Layer 1" xmlns="http://www.w3.org/2000/svg" viewBox="0 0 64 60"><defs><style>.cls-1{fill:#008985;fill-rule:evenodd;}.cls-2{fill:#fff;}</style></defs><path class="cls-1" d="M33.18.73l26,18.86a2,2,0,0,1,.73,2.23L49.94,52.33A2,2,0,0,1,48,53.71H16a2,2,0,0,1-1.9-1.38L4.14,21.82a2,2,0,0,1,.73-2.23L30.82.73A2,2,0,0,1,33.18.73Z"/><path class="cls-2" d="M25,27.46a8,8,0,1,0,8,8A8,8,0,0,0,25,27.46Zm0,14a6,6,0,1,1,6-6A6,6,0,0,1,25,41.46Z"/><polygon class="cls-2" points="26 31.04 24 31.04 24 35.87 27.29 39.17 28.71 37.75 26 35.04 26 31.04"/><path class="cls-2" d="M29.5,23v2a6,6,0,0,1,6,6h2A8,8,0,0,0,29.5,23Z"/><path class="cls-2" d="M40.5,16.54v2a2,2,0,0,1,2,2h2A4,4,0,0,0,40.5,16.54Z"/><path class="cls-2" d="M35.5,19.54v2a4,4,0,0,1,4,4h2A6,6,0,0,0,35.5,19.54Z"/></svg>