<svg width="128" height="128" xmlns="http://www.w3.org/2000/svg" viewBox="0 0 128 128"><title>Bubble Chart</title><path d="M97 51C97 27.3 77.7 8 54 8S11 27.3 11 51c0 7.6 2 14.7 5.5 21C11.2 77 8 84.1 8 92c0 15.5 12.5 28 28 28 15.2 0 27.5-12.1 28-27.2C82.9 88.3 97 71.3 97 51zM63.8 88.7C62.2 74.8 50.4 64 36 64c-6.1 0-11.8 2-16.4 5.3C16.7 63.9 15 57.6 15 51c0-21.5 17.5-39 39-39s39 17.5 39 39c0 18.1-12.4 33.4-29.2 37.7zM116 99c0 8.3-6.7 15-15 15s-15-6.7-15-15 6.7-15 15-15 15 6.7 15 15zm4-33c0 3.9-3.1 7-7 7s-7-3.1-7-7 3.1-7 7-7 7 3.1 7 7z"/></svg>