<svg width="16" height="16" xmlns="http://www.w3.org/2000/svg" viewBox="0 0 16 16"><title>Bubble Chart</title><path d="M12 6c0-2.8-2.2-5-5-5S2 3.2 2 6c0 .9.3 1.8.7 2.5-1 .6-1.7 1.7-1.7 3C1 13.4 2.6 15 4.5 15S8 13.4 8 11.5c0-.2 0-.4-.1-.6C10.2 10.5 12 8.4 12 6zm-4.3 4.1C7.1 8.8 5.9 8 4.5 8c-.3 0-.7.1-1 .2-.4-.7-.6-1.4-.6-2.2 0-2.3 1.9-4.1 4.1-4.1s4.1 1.9 4.1 4.1c0 2-1.5 3.7-3.4 4.1zM15 8c0 .6-.4 1-1 1s-1-.4-1-1 .4-1 1-1 1 .4 1 1zm-1 4.5c0 .8-.7 1.5-1.5 1.5s-1.5-.7-1.5-1.5.7-1.5 1.5-1.5 1.5.7 1.5 1.5z"/></svg>