<svg width="64" height="64" xmlns="http://www.w3.org/2000/svg" viewBox="0 0 64 64"><title>Bubble Chart</title><path d="M60 32c0 1.7-1.3 3-3 3s-3-1.3-3-3 1.3-3 3-3 3 1.3 3 3zm-8 10c-3.9 0-7 3.1-7 7s3.1 7 7 7 7-3.1 7-7-3.1-7-7-7zm-20.1 5.6C31.1 54.6 25.2 60 18 60c-7.7 0-14-6.3-14-14 0-4 1.7-7.6 4.3-10.1C6.9 32.9 6 29.5 6 26 6 13.9 15.9 4 28 4s22 9.9 22 22c0 10.8-7.8 19.8-18.1 21.6zM47 26c0-10.5-8.5-19-19-19S9 15.5 9 26c0 2.9.7 5.6 1.8 8 2.1-1.3 4.6-2 7.2-2 7.3 0 13.2 5.5 13.9 12.6C40.5 42.8 47 35.1 47 26z"/></svg>