<svg width="32" height="32" xmlns="http://www.w3.org/2000/svg" viewBox="0 0 32 32"><title>Bubble Chart</title><path d="M25 13c0-6.1-4.9-11-11-11S3 6.9 3 13c0 1.8.4 3.4 1.2 4.9C2.8 19.2 2 21 2 23c0 3.9 3.1 7 7 7 3.6 0 6.5-2.7 6.9-6.2 5.2-.9 9.1-5.4 9.1-10.8zM5 13c0-5 4-9 9-9s9 4 9 9c0 4.3-3.1 7.9-7.1 8.8-.6-3.3-3.4-5.8-6.9-5.8-1.1 0-2.2.3-3.2.8-.5-1.2-.8-2.5-.8-3.8zm25 4.5c0 .8-.7 1.5-1.5 1.5s-1.5-.7-1.5-1.5.7-1.5 1.5-1.5 1.5.7 1.5 1.5zM27 26c0 1.7-1.3 3-3 3s-3-1.3-3-3 1.3-3 3-3 3 1.3 3 3z"/></svg>