<svg width="24" height="24" xmlns="http://www.w3.org/2000/svg" viewBox="0 0 24 24"><title>Line Chart</title><path d="M23 19v1H1V3h1v16h21zM6 16c1.1 0 2-.9 2-2 0-.4-.2-.9-.4-1.2l1.6-2c.2.1.5.2.8.2.5 0 1-.2 1.4-.6l1.7 1c-.1.2-.1.4-.1.6 0 1.1.9 2 2 2s2-.9 2-2c0-.5-.2-1-.5-1.3l1.9-2.8c.2.1.4.1.6.1 1.1 0 2-.9 2-2s-.9-2-2-2-2 .9-2 2c0 .5.2 1 .5 1.3l-1.9 2.8c-.2-.1-.4-.1-.6-.1-.5 0-1 .2-1.4.6l-1.7-1c.1-.2.1-.4.1-.6 0-1.1-.9-2-2-2s-2 .9-2 2c0 .4.2.9.4 1.2l-1.6 2c-.2-.1-.5-.2-.8-.2-1.1 0-2 .9-2 2s.9 2 2 2z"/></svg>