<svg width="64" height="64" xmlns="http://www.w3.org/2000/svg" viewBox="0 0 64 64"><title>Line Chart</title><path d="M62 51v3H2V10h3v41h57zm-49-7c2.8 0 5-2.2 5-5 0-1-.3-2-.8-2.8l7-8.6c.6.2 1.2.4 1.8.4 1.2 0 2.3-.4 3.1-1.1l7.1 4.7c-.1.5-.2.9-.2 1.4 0 2.8 2.2 5 5 5s5-2.2 5-5c0-1-.3-1.8-.7-2.6l7.7-8.8c.6.3 1.3.4 2 .4 2.8 0 5-2.2 5-5s-2.2-5-5-5-5 2.2-5 5c0 1 .3 1.8.7 2.6L43 28.4c-.6-.3-1.3-.4-2-.4-1.2 0-2.3.4-3.1 1.1l-7.1-4.7c.1-.4.2-.9.2-1.4 0-2.8-2.2-5-5-5s-5 2.2-5 5c0 1 .3 2 .8 2.8l-7 8.6c-.5-.3-1.1-.4-1.8-.4-2.8 0-5 2.2-5 5s2.2 5 5 5z"/></svg>