<svg width="128" height="128" xmlns="http://www.w3.org/2000/svg" viewBox="0 0 128 128"><title>Line Chart</title><path d="M124 104v4H4V20h4v84h116zM24 90c4.4 0 8-3.6 8-8 0-1.7-.5-3.3-1.5-4.6l19-22.2c1.1.5 2.2.8 3.5.8 2.2 0 4.2-.9 5.6-2.3l13.7 8.1c-.2.7-.3 1.4-.3 2.2 0 4.4 3.6 8 8 8s8-3.6 8-8c0-1.4-.4-2.8-1-3.9l20.9-20.2c1.2.7 2.6 1.2 4.2 1.2 4.4 0 8-3.6 8-8s-3.6-8-8-8-8 3.6-8 8c0 1.4.4 2.8 1 3.9L84.2 57.2C83 56.4 81.5 56 80 56c-2.2 0-4.2.9-5.6 2.3l-13.7-8.1c.2-.7.3-1.5.3-2.2 0-4.4-3.6-8-8-8s-8 3.6-8 8c0 1.7.5 3.3 1.5 4.6l-19 22.2c-1.1-.5-2.2-.8-3.5-.8-4.4 0-8 3.6-8 8s3.6 8 8 8z"/></svg>