<svg width="32" height="32" xmlns="http://www.w3.org/2000/svg" viewBox="0 0 32 32"><title>Line Chart</title><path d="M31 26v2H1V5h2v21h28zM8 23c1.7 0 3-1.3 3-3 0-.7-.3-1.3-.7-1.9l2-3.2c.2 0 .4.1.6.1.7 0 1.3-.3 1.9-.7l3.2 2c0 .2-.1.4-.1.6 0 1.7 1.3 3 3 3s3-1.3 3-3c0-.7-.3-1.3-.7-1.9l2-3.2c.2 0 .4.1.6.1 1.7 0 3-1.3 3-3s-1.3-3-3-3-3 1.3-3 3c0 .7.3 1.3.7 1.9l-2 3.2H21c-.7 0-1.3.3-1.9.7l-3.2-2c0-.2.1-.4.1-.6 0-1.7-1.3-3-3-3s-3 1.3-3 3c0 .7.3 1.3.7 1.9l-2 3.2c-.3-.2-.5-.2-.7-.2-1.7 0-3 1.3-3 3s1.3 3 3 3z"/></svg>