<svg width="24" height="24" xmlns="http://www.w3.org/2000/svg" viewBox="0 0 24 24"><title>Network Chart</title><path d="M14.9 9H18c.2 1.1 1.2 2 2.4 2 1.4 0 2.5-1.1 2.5-2.5S21.9 6 20.5 6c-1.2 0-2.2.9-2.4 2H15c0-3.9-3.1-7-7-7S1 4.1 1 8s3.1 7 7 7v3.1c-1.1.2-2 1.2-2 2.4C6 21.9 7.1 23 8.5 23s2.5-1.1 2.5-2.5c0-1.2-.9-2.2-2-2.4V15c1.4-.2 2.6-.8 3.6-1.6l3.8 3.8c-.2.3-.4.8-.4 1.3 0 1.4 1.1 2.5 2.5 2.5s2.5-1.1 2.5-2.5-1.1-2.5-2.5-2.5c-.5 0-1 .2-1.4.4l-3.8-3.8c.9-1 1.4-2.2 1.6-3.6zM2 8c0-3.3 2.7-6 6-6s6 2.7 6 6-2.7 6-6 6-6-2.7-6-6z"/></svg>