<svg width="64" height="64" xmlns="http://www.w3.org/2000/svg" viewBox="0 0 64 64"><title>Network Chart</title><path d="M33.9 20H44c.5 3.9 3.9 7 7.9 7 4.4 0 8-3.6 8-8s-3.6-8-8-8c-3.7 0-6.8 2.6-7.7 6H33.9C32.9 9.7 26.6 4 19 4 10.7 4 4 10.7 4 19c0 7.9 6.2 14.4 14 14.9v10.3c-3.4.9-6 4-6 7.7 0 4.4 3.6 8 8 8s8-3.6 8-8c0-4.1-3.1-7.4-7-7.9V33.9c2.8-.4 5.4-1.5 7.5-3.3l11.9 11.9c-.9 1.3-1.4 2.8-1.4 4.5 0 4.4 3.6 8 8 8s8-3.6 8-8-3.6-8-8-8c-1.7 0-3.2.5-4.5 1.4L30.6 28.5c1.9-2.3 3.1-5.3 3.3-8.5zM7 19c0-6.6 5.4-12 12-12s12 5.4 12 12-5.4 12-12 12S7 25.6 7 19z"/></svg>