<svg width="32" height="32" xmlns="http://www.w3.org/2000/svg" viewBox="0 0 32 32"><title>Network Chart</title><path d="M17.9 11h4.2c.4 1.7 2 3 3.9 3 2.2 0 4-1.8 4-4s-1.8-4-4-4c-1.9 0-3.4 1.3-3.9 3h-4.2C17.4 5.1 14 2 10 2c-4.4 0-8 3.6-8 8 0 4.1 3.1 7.4 7 7.9v4.2c-1.7.4-3 2-3 3.9 0 2.2 1.8 4 4 4s4-1.8 4-4c0-1.9-1.3-3.4-3-3.9v-4.2c1.5-.2 2.8-.8 3.9-1.6l5.7 5.7c-.4.6-.6 1.3-.6 2 0 2.2 1.8 4 4 4s4-1.8 4-4-1.8-4-4-4c-.7 0-1.4.2-2 .6l-5.7-5.7c.9-1.1 1.4-2.4 1.6-3.9zM10 16c-3.3 0-6-2.7-6-6s2.7-6 6-6 6 2.7 6 6-2.7 6-6 6z"/></svg>