<svg width="128" height="128" xmlns="http://www.w3.org/2000/svg" viewBox="0 0 128 128"><title>Network Chart</title><path d="M63.9 38h24.2c1 7.9 7.7 14 15.9 14 8.8 0 16-7.2 16-16s-7.2-16-16-16c-8.2 0-14.9 6.1-15.9 14H63.9C62.9 19.5 50.8 8 36 8 20.6 8 8 20.6 8 36c0 14.8 11.5 26.9 26 27.9v24.2c-7.9 1-14 7.7-14 15.9 0 8.8 7.2 16 16 16s16-7.2 16-16c0-8.2-6.1-14.9-14-15.9V63.9c6.2-.4 11.9-2.9 16.3-6.8l27.1 27.1C79.3 86.9 78 90.3 78 94c0 8.8 7.2 16 16 16s16-7.2 16-16-7.2-16-16-16c-3.7 0-7.1 1.3-9.8 3.4l-27-27.1c3.8-4.4 6.3-10.1 6.7-16.3zM12 36c0-13.2 10.8-24 24-24s24 10.8 24 24-10.8 24-24 24-24-10.8-24-24z"/></svg>