<svg width="16" height="16" xmlns="http://www.w3.org/2000/svg" viewBox="0 0 16 16"><title>Network Chart</title><path d="M8.9 6h2.2c.2.6.8 1 1.4 1 .8 0 1.5-.7 1.5-1.5S13.3 4 12.5 4c-.7 0-1.2.4-1.4 1H9c0-2.2-1.8-4-4-4S1 2.8 1 5s1.8 4 4 4v2.1c-.6.2-1 .8-1 1.4 0 .8.7 1.5 1.5 1.5S7 13.3 7 12.5c0-.7-.4-1.2-1-1.4V8.9c.6-.1 1.1-.4 1.5-.8l2.7 2.7c-.1.2-.2.4-.2.7 0 .8.7 1.5 1.5 1.5s1.5-.7 1.5-1.5-.7-1.5-1.5-1.5c-.3 0-.5.1-.7.2L8.1 7.5c.4-.4.6-.9.8-1.5zM2 5c0-1.6 1.3-3 3-3s3 1.3 3 3-1.4 3-3 3-3-1.4-3-3z"/></svg>