<svg width="24" height="24" xmlns="http://www.w3.org/2000/svg" viewBox="0 0 24 24"><title>Venn Diagram</title><path d="M16 5c-1.5 0-2.9.5-4 1.3C10.9 5.4 9.5 5 8 5c-3.9 0-7 3.1-7 7s3.1 7 7 7c1.5 0 2.9-.5 4-1.3 1.1.8 2.5 1.3 4 1.3 3.9 0 7-3.1 7-7s-3.1-7-7-7zm-5.7 9h3.4c-.3 1-.9 1.8-1.7 2.5-.7-.7-1.3-1.5-1.7-2.5zM12 7.5c.8.7 1.3 1.5 1.7 2.5h-3.4c.4-1 1-1.8 1.7-2.5zM10 12c0-.3 0-.7.1-1H14c.1.3.1.7.1 1s0 .7-.1 1h-3.9c-.1-.3-.1-.7-.1-1zm-2 6c-3.3 0-6-2.7-6-6s2.7-6 6-6c1.2 0 2.3.3 3.2.9C9.8 8.2 9 10 9 12s.9 3.8 2.2 5.1c-.9.6-2 .9-3.2.9z"/></svg>