<svg width="64" height="64" xmlns="http://www.w3.org/2000/svg" viewBox="0 0 64 64"><title>Venn Diagram</title><path d="M41 15c-3.3 0-6.4.9-9 2.6-2.6-1.6-5.7-2.6-9-2.6-9.4 0-17 7.6-17 17s7.6 17 17 17c3.3 0 6.4-.9 9-2.6 2.6 1.6 5.7 2.6 9 2.6 9.4 0 17-7.6 17-17s-7.6-17-17-17zm-9 6.3c.6.5 1.2 1.1 1.7 1.7h-3.4c.5-.6 1.1-1.2 1.7-1.7zM27.9 37H36c-.3.7-.6 1.4-1 2h-6.2c-.3-.6-.6-1.3-.9-2zm-.6-8h9.3c.1.6.2 1.3.3 2H27c.1-.7.2-1.4.3-2zm-.2 4H37c0 .7-.1 1.4-.3 2h-9.3c-.2-.6-.3-1.3-.3-2zm9-6H28c.3-.7.6-1.4 1-2h6.2c.3.6.6 1.3.9 2zM23 46c-7.7 0-14-6.3-14-14s6.3-14 14-14c2.3 0 4.5.6 6.4 1.6C26.1 22.7 24 27.1 24 32s2.1 9.3 5.4 12.4c-1.9 1-4.1 1.6-6.4 1.6zm9-3.3c-.6-.5-1.2-1.1-1.7-1.7h3.4c-.5.6-1.1 1.2-1.7 1.7z"/></svg>