<svg width="32" height="32" xmlns="http://www.w3.org/2000/svg" viewBox="0 0 32 32"><title>Venn Diagram</title><path d="M20 7c-1.4 0-2.8.3-4 .9-1.2-.6-2.6-.9-4-.9-5 0-9 4-9 9s4 9 9 9c1.4 0 2.8-.3 4-.9 1.2.6 2.6.9 4 .9 5 0 9-4 9-9s-4-9-9-9zm-4 3.3c1 .7 1.8 1.6 2.3 2.7h-4.6c.5-1.1 1.3-2 2.3-2.7zM12 23c-3.9 0-7-3.1-7-7s3.1-7 7-7c.7 0 1.4.1 2 .3-1.9 1.6-3 4-3 6.7s1.2 5.1 3 6.7c-.6.2-1.3.3-2 .3zm4-1.3c-1-.7-1.8-1.6-2.3-2.7h4.6c-.5 1.1-1.3 2-2.3 2.7zm2.9-4.7h-5.8c-.1-.3-.1-1.7 0-2h5.8c.1.3.1 1.7 0 2z"/></svg>