<svg width="128" height="128" xmlns="http://www.w3.org/2000/svg" viewBox="0 0 128 128"><title>Venn Diagram</title><path d="M82 30c-6.6 0-12.8 1.9-18 5.1-5.2-3.2-11.4-5.1-18-5.1-18.8 0-34 15.2-34 34s15.2 34 34 34c6.6 0 12.8-1.9 18-5.2 5.2 3.3 11.4 5.2 18 5.2 18.8 0 34-15.2 34-34s-15.2-34-34-34zM58 82c-.9-1.3-1.8-2.6-2.5-4h17c-.7 1.4-1.6 2.7-2.5 4H58zm-6-18c0-.7 0-1.3.1-2H76c0 .7.1 1.3.1 2s0 1.3-.1 2H52.1c-.1-.7-.1-1.3-.1-2zm6-18h12c.9 1.3 1.8 2.6 2.5 4h-17c.7-1.4 1.6-2.7 2.5-4zm-4.3 8h20.5c.5 1.3.8 2.6 1.1 4H52.6c.3-1.4.7-2.7 1.1-4zm-1.1 16h22.8c-.3 1.4-.7 2.7-1.1 4H53.7c-.4-1.3-.8-2.6-1.1-4zm13.8-28h-4.7c.8-.7 1.5-1.4 2.4-2 .7.6 1.5 1.3 2.3 2zM46 94c-16.5 0-30-13.5-30-30s13.5-30 30-30c5.2 0 10.2 1.3 14.4 3.7C52.8 43.9 48 53.4 48 64c0 10.6 4.8 20.1 12.4 26.3C56.2 92.7 51.2 94 46 94zm15.6-8h4.7c-.8.7-1.5 1.4-2.4 2-.7-.6-1.5-1.3-2.3-2z"/></svg>